%TF.GenerationSoftware,KiCad,Pcbnew,7.0.10*%
%TF.CreationDate,2024-01-10T06:21:24+05:30*%
%TF.ProjectId,Dashcam,44617368-6361-46d2-9e6b-696361645f70,rev?*%
%TF.SameCoordinates,Original*%
%TF.FileFunction,Copper,L2,Bot*%
%TF.FilePolarity,Positive*%
%FSLAX46Y46*%
G04 Gerber Fmt 4.6, Leading zero omitted, Abs format (unit mm)*
G04 Created by KiCad (PCBNEW 7.0.10) date 2024-01-10 06:21:24*
%MOMM*%
%LPD*%
G01*
G04 APERTURE LIST*
G04 Aperture macros list*
%AMRoundRect*
0 Rectangle with rounded corners*
0 $1 Rounding radius*
0 $2 $3 $4 $5 $6 $7 $8 $9 X,Y pos of 4 corners*
0 Add a 4 corners polygon primitive as box body*
4,1,4,$2,$3,$4,$5,$6,$7,$8,$9,$2,$3,0*
0 Add four circle primitives for the rounded corners*
1,1,$1+$1,$2,$3*
1,1,$1+$1,$4,$5*
1,1,$1+$1,$6,$7*
1,1,$1+$1,$8,$9*
0 Add four rect primitives between the rounded corners*
20,1,$1+$1,$2,$3,$4,$5,0*
20,1,$1+$1,$4,$5,$6,$7,0*
20,1,$1+$1,$6,$7,$8,$9,0*
20,1,$1+$1,$8,$9,$2,$3,0*%
G04 Aperture macros list end*
%TA.AperFunction,ComponentPad*%
%ADD10R,1.700000X1.700000*%
%TD*%
%TA.AperFunction,ComponentPad*%
%ADD11O,1.700000X1.700000*%
%TD*%
%TA.AperFunction,SMDPad,CuDef*%
%ADD12RoundRect,0.200000X-0.200000X-0.275000X0.200000X-0.275000X0.200000X0.275000X-0.200000X0.275000X0*%
%TD*%
%TA.AperFunction,SMDPad,CuDef*%
%ADD13RoundRect,0.225000X-0.250000X0.225000X-0.250000X-0.225000X0.250000X-0.225000X0.250000X0.225000X0*%
%TD*%
%TA.AperFunction,SMDPad,CuDef*%
%ADD14C,1.000000*%
%TD*%
%TA.AperFunction,SMDPad,CuDef*%
%ADD15RoundRect,0.200000X-0.650000X0.200000X-0.650000X-0.200000X0.650000X-0.200000X0.650000X0.200000X0*%
%TD*%
%TA.AperFunction,SMDPad,CuDef*%
%ADD16RoundRect,0.525000X-0.975000X0.525000X-0.975000X-0.525000X0.975000X-0.525000X0.975000X0.525000X0*%
%TD*%
%TA.AperFunction,SMDPad,CuDef*%
%ADD17RoundRect,0.150000X-0.587500X-0.150000X0.587500X-0.150000X0.587500X0.150000X-0.587500X0.150000X0*%
%TD*%
%TA.AperFunction,SMDPad,CuDef*%
%ADD18RoundRect,0.200000X-0.275000X0.200000X-0.275000X-0.200000X0.275000X-0.200000X0.275000X0.200000X0*%
%TD*%
%TA.AperFunction,SMDPad,CuDef*%
%ADD19RoundRect,0.200000X0.275000X-0.200000X0.275000X0.200000X-0.275000X0.200000X-0.275000X-0.200000X0*%
%TD*%
%TA.AperFunction,SMDPad,CuDef*%
%ADD20RoundRect,0.225000X0.225000X0.250000X-0.225000X0.250000X-0.225000X-0.250000X0.225000X-0.250000X0*%
%TD*%
%TA.AperFunction,ComponentPad*%
%ADD21R,2.000000X2.000000*%
%TD*%
%TA.AperFunction,ComponentPad*%
%ADD22C,2.000000*%
%TD*%
%TA.AperFunction,SMDPad,CuDef*%
%ADD23RoundRect,0.040600X0.814400X0.249400X-0.814400X0.249400X-0.814400X-0.249400X0.814400X-0.249400X0*%
%TD*%
%TA.AperFunction,SMDPad,CuDef*%
%ADD24R,1.700000X0.900000*%
%TD*%
%TA.AperFunction,SMDPad,CuDef*%
%ADD25RoundRect,0.225000X0.250000X-0.225000X0.250000X0.225000X-0.250000X0.225000X-0.250000X-0.225000X0*%
%TD*%
%TA.AperFunction,ViaPad*%
%ADD26C,0.800000*%
%TD*%
%TA.AperFunction,Conductor*%
%ADD27C,0.250000*%
%TD*%
%TA.AperFunction,Conductor*%
%ADD28C,0.254000*%
%TD*%
%TA.AperFunction,Conductor*%
%ADD29C,0.508000*%
%TD*%
G04 APERTURE END LIST*
D10*
%TO.P,J3,1,Pin_1*%
%TO.N,MISO*%
X157875000Y-63965000D03*
D11*
%TO.P,J3,2,Pin_2*%
%TO.N,+5V*%
X157875000Y-61425000D03*
%TO.P,J3,3,Pin_3*%
%TO.N,SEK*%
X155335000Y-63965000D03*
%TO.P,J3,4,Pin_4*%
%TO.N,MOSI*%
X155335000Y-61425000D03*
%TO.P,J3,5,Pin_5*%
%TO.N,Reset*%
X152795000Y-63965000D03*
%TO.P,J3,6,Pin_6*%
%TO.N,GND*%
X152795000Y-61425000D03*
%TD*%
D12*
%TO.P,R7,1*%
%TO.N,LED Selector*%
X134020000Y-58115000D03*
%TO.P,R7,2*%
%TO.N,SEK*%
X135670000Y-58115000D03*
%TD*%
D13*
%TO.P,C8,1*%
%TO.N,GND*%
X145513000Y-52768000D03*
%TO.P,C8,2*%
%TO.N,Reset*%
X145513000Y-54318000D03*
%TD*%
D14*
%TO.P,FID3,*%
%TO.N,*%
X116300000Y-83300000D03*
%TD*%
D15*
%TO.P,J4,1,Pin_1*%
%TO.N,+5V*%
X114570000Y-52470000D03*
%TO.P,J4,2,Pin_2*%
%TO.N,LED Selector*%
X114570000Y-53720000D03*
%TO.P,J4,3,Pin_3*%
%TO.N,ValuePin_1*%
X114570000Y-54970000D03*
%TO.P,J4,4,Pin_4*%
%TO.N,ValuePin_2*%
X114570000Y-56220000D03*
%TO.P,J4,5,Pin_5*%
%TO.N,buzzer*%
X114570000Y-57470000D03*
%TO.P,J4,6,Pin_6*%
%TO.N,pushbutton*%
X114570000Y-58720000D03*
%TO.P,J4,7,Pin_7*%
%TO.N,unconnected-(J4-Pin_7-Pad7)*%
X114570000Y-59970000D03*
%TO.P,J4,8,Pin_8*%
%TO.N,GND*%
X114570000Y-61220000D03*
D16*
%TO.P,J4,MP*%
%TO.N,N/C*%
X111520000Y-50120000D03*
X111595000Y-63420000D03*
%TD*%
D14*
%TO.P,FID2,*%
%TO.N,*%
X163056000Y-43950000D03*
%TD*%
D17*
%TO.P,U2,1,B*%
%TO.N,Net-(U2-B)*%
X115190000Y-78750000D03*
%TO.P,U2,2,E*%
%TO.N,GND*%
X115190000Y-76850000D03*
%TO.P,U2,3,C*%
%TO.N,Net-(BZ1-+)*%
X117065000Y-77800000D03*
%TD*%
D18*
%TO.P,R3,1*%
%TO.N,Reset*%
X160780000Y-63245000D03*
%TO.P,R3,2*%
%TO.N,+5V*%
X160780000Y-64895000D03*
%TD*%
D13*
%TO.P,C7,1*%
%TO.N,GND*%
X141830000Y-52895000D03*
%TO.P,C7,2*%
%TO.N,+5V*%
X141830000Y-54445000D03*
%TD*%
D19*
%TO.P,R1,2*%
%TO.N,GND*%
X110715000Y-76785000D03*
%TO.P,R1,1*%
%TO.N,pushbutton*%
X110715000Y-78435000D03*
%TD*%
D13*
%TO.P,C6,1*%
%TO.N,GND*%
X138020000Y-52895000D03*
%TO.P,C6,2*%
%TO.N,+5V*%
X138020000Y-54445000D03*
%TD*%
D20*
%TO.P,C1,1*%
%TO.N,+5V*%
X116570000Y-80340000D03*
%TO.P,C1,2*%
%TO.N,pushbutton*%
X115020000Y-80340000D03*
%TD*%
D12*
%TO.P,R9,1*%
%TO.N,Net-(U3-PB4)*%
X147990000Y-60020000D03*
%TO.P,R9,2*%
%TO.N,ValuePin_2*%
X149640000Y-60020000D03*
%TD*%
D21*
%TO.P,BZ1,1,-*%
%TO.N,Net-(BZ1--)*%
X121510000Y-64475000D03*
D22*
%TO.P,BZ1,2,+*%
%TO.N,Net-(BZ1-+)*%
X121510000Y-72075000D03*
%TD*%
D23*
%TO.P,U3,1,PB5*%
%TO.N,Reset*%
X145460000Y-56845000D03*
%TO.P,U3,2,PB3*%
%TO.N,Net-(U3-PB3)*%
X145460000Y-58115000D03*
%TO.P,U3,3,PB4*%
%TO.N,Net-(U3-PB4)*%
X145460000Y-59385000D03*
%TO.P,U3,4,GND*%
%TO.N,GND*%
X145460000Y-60655000D03*
%TO.P,U3,5,PB0*%
%TO.N,MOSI*%
X138200000Y-60655000D03*
%TO.P,U3,6,PB1*%
%TO.N,MISO*%
X138200000Y-59385000D03*
%TO.P,U3,7,PB2*%
%TO.N,SEK*%
X138200000Y-58115000D03*
%TO.P,U3,8,VCC*%
%TO.N,+5V*%
X138200000Y-56845000D03*
%TD*%
D24*
%TO.P,SW1,1,1*%
%TO.N,pushbutton*%
X109445000Y-83085000D03*
%TO.P,SW1,2,2*%
%TO.N,+5V*%
X109445000Y-86485000D03*
%TD*%
D13*
%TO.P,C5,1*%
%TO.N,GND*%
X139925000Y-52895000D03*
%TO.P,C5,2*%
%TO.N,+5V*%
X139925000Y-54445000D03*
%TD*%
D12*
%TO.P,R8,1*%
%TO.N,Net-(U3-PB3)*%
X147990000Y-58115000D03*
%TO.P,R8,2*%
%TO.N,ValuePin_1*%
X149640000Y-58115000D03*
%TD*%
D25*
%TO.P,DC_U1,1*%
%TO.N,+5V*%
X127606000Y-62433000D03*
%TO.P,DC_U1,2*%
%TO.N,GND*%
X127606000Y-60883000D03*
%TD*%
D13*
%TO.P,DC_U4,1*%
%TO.N,+5V*%
X160753000Y-60007000D03*
%TO.P,DC_U4,2*%
%TO.N,GND*%
X160753000Y-61557000D03*
%TD*%
D18*
%TO.P,R4,1*%
%TO.N,buzzer*%
X113255000Y-73610000D03*
%TO.P,R4,2*%
%TO.N,Net-(U2-B)*%
X113255000Y-75260000D03*
%TD*%
%TO.P,R2,1*%
%TO.N,+5V*%
X119605000Y-59195000D03*
%TO.P,R2,2*%
%TO.N,Net-(BZ1--)*%
X119605000Y-60845000D03*
%TD*%
D19*
%TO.P,R5,1*%
%TO.N,GND*%
X110715000Y-75260000D03*
%TO.P,R5,2*%
%TO.N,buzzer*%
X110715000Y-73610000D03*
%TD*%
D12*
%TO.P,R6,1*%
%TO.N,neodin*%
X134020000Y-60655000D03*
%TO.P,R6,2*%
%TO.N,MOSI*%
X135670000Y-60655000D03*
%TD*%
D26*
%TO.N,GND*%
X162400000Y-62000000D03*
%TO.N,MISO*%
X141195000Y-64465000D03*
%TO.N,MOSI*%
X138655000Y-63830000D03*
%TO.N,+5V*%
X119605000Y-56845000D03*
X113255000Y-86055000D03*
X136115000Y-53670000D03*
X130400000Y-60020000D03*
X162150000Y-58115000D03*
%TO.N,GND*%
X129765000Y-51130000D03*
X120240000Y-80340000D03*
X125320000Y-54940000D03*
X125955000Y-46050000D03*
X119605000Y-47955000D03*
X151355000Y-51765000D03*
X143735000Y-51765000D03*
X110715000Y-65735000D03*
X111985000Y-79070000D03*
X147545000Y-54940000D03*
X122780000Y-81610000D03*
X122223154Y-68454674D03*
X113890000Y-70815000D03*
X134210000Y-54940000D03*
X134845000Y-52400000D03*
%TO.N,neodin*%
X128400000Y-64500000D03*
%TO.N,LED Selector*%
X119605000Y-50495000D03*
X117015000Y-53085000D03*
%TO.N,ValuePin_1*%
X120875000Y-50495000D03*
X117065000Y-54305000D03*
%TO.N,ValuePin_2*%
X117065000Y-55575000D03*
X122145000Y-50495000D03*
%TD*%
D27*
%TO.N,Reset*%
X143195000Y-57502500D02*
X143195000Y-62020000D01*
%TO.N,SEK*%
X145305000Y-65400000D02*
X154865000Y-65400000D01*
X141600000Y-61695000D02*
X145305000Y-65400000D01*
X141600000Y-59100000D02*
X141600000Y-61695000D01*
X141000000Y-58500000D02*
X141600000Y-59100000D01*
X154865000Y-65400000D02*
X155335000Y-64930000D01*
X155335000Y-64930000D02*
X155335000Y-63965000D01*
D28*
%TO.N,neodin*%
X134020000Y-62080000D02*
X134020000Y-60655000D01*
X131600000Y-64500000D02*
X134020000Y-62080000D01*
X128400000Y-64500000D02*
X131600000Y-64500000D01*
%TO.N,SEK*%
X141000000Y-58500000D02*
X140615000Y-58115000D01*
X140615000Y-58115000D02*
X138200000Y-58115000D01*
D27*
%TO.N,MISO*%
X140300000Y-63570000D02*
X141195000Y-64465000D01*
X140300000Y-60000000D02*
X140300000Y-63570000D01*
X139685000Y-59385000D02*
X140300000Y-60000000D01*
X138200000Y-59385000D02*
X139685000Y-59385000D01*
D29*
%TO.N,+5V*%
X162505000Y-64895000D02*
X160780000Y-64895000D01*
X163900000Y-63500000D02*
X162505000Y-64895000D01*
X163900000Y-60300000D02*
X163900000Y-63500000D01*
X162985000Y-59385000D02*
X163900000Y-60300000D01*
X162150000Y-59385000D02*
X162985000Y-59385000D01*
X159293000Y-60007000D02*
X157875000Y-61425000D01*
X160753000Y-60007000D02*
X159293000Y-60007000D01*
D27*
%TO.N,Reset*%
X160235000Y-62700000D02*
X160780000Y-63245000D01*
X154060000Y-62700000D02*
X160235000Y-62700000D01*
X152795000Y-63965000D02*
X154060000Y-62700000D01*
%TO.N,MOSI*%
X138655000Y-62835000D02*
X138655000Y-63830000D01*
X138200000Y-62380000D02*
X138655000Y-62835000D01*
X138200000Y-60655000D02*
X138200000Y-62380000D01*
%TO.N,Reset*%
X143195000Y-62020000D02*
X145140000Y-63965000D01*
X145140000Y-63965000D02*
X152795000Y-63965000D01*
D29*
%TO.N,Net-(BZ1--)*%
X121510000Y-61656264D02*
X121510000Y-64475000D01*
D28*
X121592000Y-64557000D02*
X121510000Y-64475000D01*
D29*
X119605000Y-60845000D02*
X120698736Y-60845000D01*
X121510000Y-64475000D02*
X121719000Y-64684000D01*
X120698736Y-60845000D02*
X121510000Y-61656264D01*
%TO.N,+5V*%
X139290000Y-56845000D02*
X139925000Y-56210000D01*
X119605000Y-59195000D02*
X120685000Y-59195000D01*
X118335000Y-51765000D02*
X116430000Y-51765000D01*
X128495000Y-62433000D02*
X130400000Y-60528000D01*
X139925000Y-56210000D02*
X139925000Y-54445000D01*
X160753000Y-60007000D02*
X161528000Y-60007000D01*
X136890000Y-54445000D02*
X138020000Y-54445000D01*
X138200000Y-56845000D02*
X139290000Y-56845000D01*
X130400000Y-60528000D02*
X130400000Y-60020000D01*
X161528000Y-60007000D02*
X162150000Y-59385000D01*
X116430000Y-51765000D02*
X115725000Y-52470000D01*
X109445000Y-86485000D02*
X112825000Y-86485000D01*
X120685000Y-59195000D02*
X120875000Y-59385000D01*
D27*
X116570000Y-80835000D02*
X115795000Y-81610000D01*
X115795000Y-81610000D02*
X115160000Y-81610000D01*
D29*
X136115000Y-53670000D02*
X136890000Y-54445000D01*
X127606000Y-62433000D02*
X128495000Y-62433000D01*
D27*
X116570000Y-80340000D02*
X116570000Y-80835000D01*
D29*
X141944000Y-54445000D02*
X138020000Y-54445000D01*
X130400000Y-60274000D02*
X130400000Y-60020000D01*
D27*
X115160000Y-81610000D02*
X113255000Y-83515000D01*
D29*
X115725000Y-52470000D02*
X114570000Y-52470000D01*
X120875000Y-54305000D02*
X118335000Y-51765000D01*
X120875000Y-56845000D02*
X120875000Y-54305000D01*
X120875000Y-56845000D02*
X120875000Y-59385000D01*
D27*
X113255000Y-83515000D02*
X113255000Y-86055000D01*
D29*
X119605000Y-56845000D02*
X120875000Y-56845000D01*
X112825000Y-86485000D02*
X113255000Y-86055000D01*
X120875000Y-59385000D02*
X123923000Y-62433000D01*
X162150000Y-59385000D02*
X162150000Y-58115000D01*
X141830000Y-54445000D02*
X141944000Y-54445000D01*
X123923000Y-62433000D02*
X127606000Y-62433000D01*
X141944000Y-54445000D02*
X141957000Y-54432000D01*
%TO.N,Net-(BZ1-+)*%
X117065000Y-77800000D02*
X118970000Y-77800000D01*
X120240000Y-76530000D02*
X120240000Y-73345000D01*
X118970000Y-77800000D02*
X120240000Y-76530000D01*
D28*
X117065000Y-77800000D02*
X117700000Y-77800000D01*
D29*
X120240000Y-73345000D02*
X121510000Y-72075000D01*
D28*
%TO.N,GND*%
X145386000Y-52895000D02*
X145513000Y-52768000D01*
X141830000Y-52895000D02*
X145386000Y-52895000D01*
%TO.N,pushbutton*%
X109445000Y-83085000D02*
X110715000Y-81815000D01*
X110715000Y-81815000D02*
X110715000Y-80340000D01*
X109445000Y-77800000D02*
X109445000Y-69545000D01*
X116557000Y-62433000D02*
X116557000Y-59385000D01*
D27*
X115020000Y-80340000D02*
X110715000Y-80340000D01*
X116557000Y-59385000D02*
X115892000Y-58720000D01*
D28*
X109445000Y-69545000D02*
X116557000Y-62433000D01*
X110715000Y-80340000D02*
X110715000Y-78435000D01*
X110715000Y-78435000D02*
X110080000Y-78435000D01*
X110080000Y-78435000D02*
X109445000Y-77800000D01*
D27*
X115892000Y-58720000D02*
X114570000Y-58720000D01*
D28*
%TO.N,buzzer*%
X110715000Y-69545000D02*
X117192000Y-63068000D01*
D27*
X117192000Y-58242000D02*
X116420000Y-57470000D01*
X117192000Y-58750000D02*
X117192000Y-58242000D01*
X116420000Y-57470000D02*
X114570000Y-57470000D01*
D28*
X113255000Y-73610000D02*
X110715000Y-73610000D01*
X110715000Y-73610000D02*
X110715000Y-69545000D01*
X117192000Y-63068000D02*
X117192000Y-58750000D01*
%TO.N,Reset*%
X143195000Y-57502500D02*
X143852500Y-56845000D01*
X145460000Y-56845000D02*
X145460000Y-54371000D01*
X143852500Y-56845000D02*
X145460000Y-56845000D01*
X145460000Y-54371000D02*
X145513000Y-54318000D01*
%TO.N,LED Selector*%
X117065000Y-53035000D02*
X117015000Y-53085000D01*
X122145000Y-53035000D02*
X119605000Y-50495000D01*
D27*
X116380000Y-53720000D02*
X114570000Y-53720000D01*
X132305000Y-56845000D02*
X132305000Y-54305000D01*
X132305000Y-54305000D02*
X131035000Y-53035000D01*
X117015000Y-53085000D02*
X116380000Y-53720000D01*
X133575000Y-58115000D02*
X132305000Y-56845000D01*
D28*
X131035000Y-53035000D02*
X122145000Y-53035000D01*
D27*
X134020000Y-58115000D02*
X133575000Y-58115000D01*
D28*
%TO.N,MOSI*%
X138200000Y-60655000D02*
X135670000Y-60655000D01*
%TO.N,ValuePin_1*%
X123415000Y-51765000D02*
X122145000Y-51765000D01*
X117035000Y-54335000D02*
X117065000Y-54305000D01*
X122145000Y-51765000D02*
X120875000Y-50495000D01*
D27*
X117065000Y-54305000D02*
X116400000Y-54970000D01*
D28*
X144370000Y-49225000D02*
X125955000Y-49225000D01*
D27*
X116400000Y-54970000D02*
X114570000Y-54970000D01*
D28*
X125955000Y-49225000D02*
X123415000Y-51765000D01*
D27*
X149640000Y-54495000D02*
X149640000Y-58115000D01*
D28*
X147545000Y-52400000D02*
X144370000Y-49225000D01*
D27*
X147545000Y-52400000D02*
X149640000Y-54495000D01*
D28*
%TO.N,ValuePin_2*%
X117055000Y-55585000D02*
X117065000Y-55575000D01*
D27*
X150720000Y-58940000D02*
X150720000Y-54305000D01*
X117065000Y-55575000D02*
X116420000Y-56220000D01*
D28*
X145005000Y-48590000D02*
X150720000Y-54305000D01*
X124050000Y-48590000D02*
X145005000Y-48590000D01*
D27*
X116420000Y-56220000D02*
X114570000Y-56220000D01*
X149640000Y-60020000D02*
X150720000Y-58940000D01*
D28*
X122145000Y-50495000D02*
X124050000Y-48590000D01*
%TO.N,Net-(U2-B)*%
X113570000Y-78750000D02*
X115190000Y-78750000D01*
X113255000Y-75260000D02*
X113255000Y-78435000D01*
X113255000Y-78435000D02*
X113570000Y-78750000D01*
D27*
%TO.N,Net-(U3-PB3)*%
X145460000Y-58115000D02*
X147990000Y-58115000D01*
%TO.N,Net-(U3-PB4)*%
X147545000Y-60020000D02*
X147990000Y-60020000D01*
X146910000Y-59385000D02*
X147545000Y-60020000D01*
X145460000Y-59385000D02*
X146910000Y-59385000D01*
%TO.N,SEK*%
X138200000Y-58115000D02*
X135670000Y-58115000D01*
%TD*%
%TA.AperFunction,Conductor*%
%TO.N,GND*%
G36*
X125981182Y-32093091D02*
G01*
X127156454Y-32680727D01*
X127207613Y-32728314D01*
X127225000Y-32791636D01*
X127225000Y-42875000D01*
X128495000Y-45415000D01*
X131670000Y-47320000D01*
X155165000Y-47320000D01*
X157070000Y-46050000D01*
X158645000Y-43950000D01*
X162050659Y-43950000D01*
X162069975Y-44146129D01*
X162127188Y-44334733D01*
X162220086Y-44508532D01*
X162220090Y-44508539D01*
X162345116Y-44660883D01*
X162497460Y-44785909D01*
X162497467Y-44785913D01*
X162671266Y-44878811D01*
X162671269Y-44878811D01*
X162671273Y-44878814D01*
X162859868Y-44936024D01*
X163056000Y-44955341D01*
X163252132Y-44936024D01*
X163440727Y-44878814D01*
X163614538Y-44785910D01*
X163766883Y-44660883D01*
X163891910Y-44508538D01*
X163984814Y-44334727D01*
X164042024Y-44146132D01*
X164061341Y-43950000D01*
X164042024Y-43753868D01*
X163984814Y-43565273D01*
X163984811Y-43565269D01*
X163984811Y-43565266D01*
X163891913Y-43391467D01*
X163891909Y-43391460D01*
X163766883Y-43239116D01*
X163614539Y-43114090D01*
X163614532Y-43114086D01*
X163440733Y-43021188D01*
X163440727Y-43021186D01*
X163252132Y-42963976D01*
X163252129Y-42963975D01*
X163056000Y-42944659D01*
X162859870Y-42963975D01*
X162671266Y-43021188D01*
X162497467Y-43114086D01*
X162497460Y-43114090D01*
X162345116Y-43239116D01*
X162220090Y-43391460D01*
X162220086Y-43391467D01*
X162127188Y-43565266D01*
X162069975Y-43753870D01*
X162050659Y-43950000D01*
X158645000Y-43950000D01*
X158975000Y-43510000D01*
X158975000Y-36603618D01*
X161649500Y-36603618D01*
X161683610Y-36808034D01*
X161750898Y-37004037D01*
X161750900Y-37004043D01*
X161849534Y-37186302D01*
X161849537Y-37186306D01*
X161976818Y-37349836D01*
X161976821Y-37349840D01*
X162129296Y-37490204D01*
X162302788Y-37603551D01*
X162492572Y-37686798D01*
X162693469Y-37737672D01*
X162762312Y-37743376D01*
X162899994Y-37754786D01*
X162900000Y-37754786D01*
X162900006Y-37754786D01*
X163023918Y-37744517D01*
X163106531Y-37737672D01*
X163307428Y-37686798D01*
X163497212Y-37603551D01*
X163670706Y-37490202D01*
X163823176Y-37349843D01*
X163950465Y-37186303D01*
X164049100Y-37004042D01*
X164116390Y-36808032D01*
X164150500Y-36603619D01*
X164150500Y-36500000D01*
X164150500Y-36499500D01*
X164150500Y-34499901D01*
X164150500Y-34396381D01*
X164116390Y-34191968D01*
X164049100Y-33995958D01*
X163950465Y-33813697D01*
X163950462Y-33813693D01*
X163823181Y-33650163D01*
X163823178Y-33650159D01*
X163670703Y-33509795D01*
X163497211Y-33396448D01*
X163307428Y-33313202D01*
X163106527Y-33262327D01*
X162900006Y-33245214D01*
X162899994Y-33245214D01*
X162693472Y-33262327D01*
X162492571Y-33313202D01*
X162302788Y-33396448D01*
X162129296Y-33509795D01*
X161976821Y-33650159D01*
X161976818Y-33650163D01*
X161849537Y-33813693D01*
X161849534Y-33813697D01*
X161750900Y-33995956D01*
X161750898Y-33995962D01*
X161683610Y-34191965D01*
X161649500Y-34396381D01*
X161649500Y-36603618D01*
X158975000Y-36603618D01*
X158975000Y-34014272D01*
X158988091Y-33958818D01*
X159060652Y-33813697D01*
X159119243Y-33696515D01*
X159591515Y-32751970D01*
X159639102Y-32700811D01*
X159646970Y-32696515D01*
X160853818Y-32093091D01*
X160909272Y-32080000D01*
X165908638Y-32080000D01*
X165975677Y-32099685D01*
X165996319Y-32116319D01*
X166574300Y-32694300D01*
X166604256Y-32742769D01*
X167223637Y-34600911D01*
X167230000Y-34640123D01*
X167230000Y-79653638D01*
X167210315Y-79720677D01*
X167193681Y-79741319D01*
X165996319Y-80938681D01*
X165934996Y-80972166D01*
X165908638Y-80975000D01*
X159661362Y-80975000D01*
X159594323Y-80955315D01*
X159573681Y-80938681D01*
X158376319Y-79741319D01*
X158342834Y-79679996D01*
X158340000Y-79653638D01*
X158340000Y-78603619D01*
X161649500Y-78603619D01*
X161654844Y-78635644D01*
X161683610Y-78808034D01*
X161750898Y-79004037D01*
X161750900Y-79004043D01*
X161849534Y-79186302D01*
X161849537Y-79186306D01*
X161976818Y-79349836D01*
X161976821Y-79349840D01*
X161976823Y-79349842D01*
X161976824Y-79349843D01*
X162020700Y-79390234D01*
X162129296Y-79490204D01*
X162216900Y-79547438D01*
X162302788Y-79603551D01*
X162492572Y-79686798D01*
X162693469Y-79737672D01*
X162762312Y-79743376D01*
X162899994Y-79754786D01*
X162900000Y-79754786D01*
X162900006Y-79754786D01*
X163023918Y-79744517D01*
X163106531Y-79737672D01*
X163307428Y-79686798D01*
X163497212Y-79603551D01*
X163670706Y-79490202D01*
X163823176Y-79349843D01*
X163950465Y-79186303D01*
X164049100Y-79004042D01*
X164116390Y-78808032D01*
X164150500Y-78603619D01*
X164150500Y-78500000D01*
X164150500Y-78499500D01*
X164150500Y-76499901D01*
X164150500Y-76396381D01*
X164116390Y-76191968D01*
X164049100Y-75995958D01*
X163950465Y-75813697D01*
X163903152Y-75752909D01*
X163823181Y-75650163D01*
X163823178Y-75650159D01*
X163670703Y-75509795D01*
X163497211Y-75396448D01*
X163307428Y-75313202D01*
X163106527Y-75262327D01*
X162900006Y-75245214D01*
X162899994Y-75245214D01*
X162693472Y-75262327D01*
X162492571Y-75313202D01*
X162302788Y-75396448D01*
X162129296Y-75509795D01*
X161976821Y-75650159D01*
X161976818Y-75650163D01*
X161849537Y-75813693D01*
X161849534Y-75813697D01*
X161750900Y-75995956D01*
X161750898Y-75995962D01*
X161683610Y-76191965D01*
X161649500Y-76396381D01*
X161649500Y-76499901D01*
X161649500Y-78499500D01*
X161649500Y-78500000D01*
X161649500Y-78603619D01*
X158340000Y-78603619D01*
X158340000Y-69545000D01*
X156435000Y-67640000D01*
X156434997Y-67639998D01*
X155671161Y-67334464D01*
X155649392Y-67323142D01*
X155461875Y-67200631D01*
X155461872Y-67200630D01*
X155098092Y-67003761D01*
X155098078Y-67003755D01*
X154719278Y-66837597D01*
X154719272Y-66837595D01*
X154719270Y-66837594D01*
X154719271Y-66837594D01*
X154328060Y-66703291D01*
X154328054Y-66703289D01*
X154328047Y-66703287D01*
X154094297Y-66644093D01*
X153927062Y-66601743D01*
X153927063Y-66601743D01*
X153789787Y-66578835D01*
X153764146Y-66571657D01*
X153260000Y-66370000D01*
X131035000Y-66370000D01*
X131034999Y-66370000D01*
X129764999Y-67005000D01*
X129130004Y-67639994D01*
X129130001Y-67639997D01*
X127859999Y-69545001D01*
X127225000Y-71450000D01*
X127225000Y-77770728D01*
X127211909Y-77826182D01*
X125330502Y-81588995D01*
X125302545Y-81625709D01*
X118974120Y-87321292D01*
X118965568Y-87328324D01*
X116455415Y-89210938D01*
X116398551Y-89234492D01*
X112126536Y-89844780D01*
X112057387Y-89834774D01*
X112004624Y-89788971D01*
X111985000Y-89722026D01*
X111985000Y-87371500D01*
X112004685Y-87304461D01*
X112057489Y-87258706D01*
X112109000Y-87247500D01*
X112760418Y-87247500D01*
X112778388Y-87248809D01*
X112781080Y-87249203D01*
X112802672Y-87252366D01*
X112852896Y-87247971D01*
X112863703Y-87247500D01*
X112869406Y-87247500D01*
X112869412Y-87247500D01*
X112900759Y-87243835D01*
X112904280Y-87243476D01*
X112980240Y-87236831D01*
X112980248Y-87236828D01*
X112987309Y-87235371D01*
X112987317Y-87235414D01*
X112995016Y-87233707D01*
X112995007Y-87233666D01*
X113002033Y-87232000D01*
X113002036Y-87231998D01*
X113002042Y-87231998D01*
X113073757Y-87205895D01*
X113077012Y-87204764D01*
X113149440Y-87180765D01*
X113149446Y-87180761D01*
X113155988Y-87177711D01*
X113156006Y-87177750D01*
X113163102Y-87174315D01*
X113163083Y-87174276D01*
X113169535Y-87171035D01*
X113169539Y-87171034D01*
X113233275Y-87129113D01*
X113236206Y-87127245D01*
X113301149Y-87087188D01*
X113301153Y-87087183D01*
X113306813Y-87082709D01*
X113306840Y-87082743D01*
X113312953Y-87077763D01*
X113312926Y-87077730D01*
X113318457Y-87073088D01*
X113318462Y-87073085D01*
X113370803Y-87017606D01*
X113373281Y-87015056D01*
X113418935Y-86969402D01*
X113480258Y-86935917D01*
X113480836Y-86935793D01*
X113480940Y-86935770D01*
X113537288Y-86923794D01*
X113711752Y-86846118D01*
X113866253Y-86733866D01*
X113994040Y-86591944D01*
X114089527Y-86426556D01*
X114148542Y-86244928D01*
X114168504Y-86055000D01*
X114148542Y-85865072D01*
X114089527Y-85683444D01*
X114032177Y-85584111D01*
X113994041Y-85518057D01*
X113994036Y-85518050D01*
X113920350Y-85436213D01*
X113890120Y-85373221D01*
X113888500Y-85353241D01*
X113888500Y-83828766D01*
X113908185Y-83761727D01*
X113924819Y-83741085D01*
X115386086Y-82279819D01*
X115447409Y-82246334D01*
X115473767Y-82243500D01*
X115663695Y-82243500D01*
X115730734Y-82263185D01*
X115776489Y-82315989D01*
X115786433Y-82385147D01*
X115757408Y-82448703D01*
X115742360Y-82463353D01*
X115589116Y-82589116D01*
X115464090Y-82741460D01*
X115464086Y-82741467D01*
X115371188Y-82915266D01*
X115313975Y-83103870D01*
X115294659Y-83300000D01*
X115313975Y-83496129D01*
X115371188Y-83684733D01*
X115464086Y-83858532D01*
X115464090Y-83858539D01*
X115589116Y-84010883D01*
X115741460Y-84135909D01*
X115741467Y-84135913D01*
X115915266Y-84228811D01*
X115915269Y-84228811D01*
X115915273Y-84228814D01*
X116103868Y-84286024D01*
X116300000Y-84305341D01*
X116496132Y-84286024D01*
X116684727Y-84228814D01*
X116858538Y-84135910D01*
X117010883Y-84010883D01*
X117135910Y-83858538D01*
X117228814Y-83684727D01*
X117286024Y-83496132D01*
X117305341Y-83300000D01*
X117286024Y-83103868D01*
X117228814Y-82915273D01*
X117228811Y-82915269D01*
X117228811Y-82915266D01*
X117135913Y-82741467D01*
X117135909Y-82741460D01*
X117010883Y-82589116D01*
X116858539Y-82464090D01*
X116858532Y-82464086D01*
X116684733Y-82371188D01*
X116684727Y-82371186D01*
X116496132Y-82313976D01*
X116496129Y-82313975D01*
X116299181Y-82294578D01*
X116234394Y-82268417D01*
X116194035Y-82211383D01*
X116190918Y-82141583D01*
X116226033Y-82081178D01*
X116226450Y-82080784D01*
X116232098Y-82075478D01*
X116232107Y-82075472D01*
X116260359Y-82041319D01*
X116268203Y-82032699D01*
X116958815Y-81342087D01*
X116971175Y-81332187D01*
X116971001Y-81331977D01*
X116977010Y-81327004D01*
X116977018Y-81327000D01*
X116989011Y-81314227D01*
X117040401Y-81281403D01*
X117107101Y-81259302D01*
X117253040Y-81169285D01*
X117374285Y-81048040D01*
X117464302Y-80902101D01*
X117518236Y-80739336D01*
X117528500Y-80638872D01*
X117528500Y-80041128D01*
X117518236Y-79940664D01*
X117464302Y-79777899D01*
X117464298Y-79777893D01*
X117464297Y-79777890D01*
X117374287Y-79631963D01*
X117374284Y-79631959D01*
X117253040Y-79510715D01*
X117253036Y-79510712D01*
X117107109Y-79420702D01*
X117107103Y-79420699D01*
X117107101Y-79420698D01*
X116944336Y-79366764D01*
X116843879Y-79356500D01*
X116843872Y-79356500D01*
X116489960Y-79356500D01*
X116422921Y-79336815D01*
X116377166Y-79284011D01*
X116367222Y-79214853D01*
X116383227Y-79169381D01*
X116386643Y-79163604D01*
X116386645Y-79163601D01*
X116432336Y-79006331D01*
X116433061Y-79003835D01*
X116433062Y-79003829D01*
X116436000Y-78966502D01*
X116436000Y-78732500D01*
X116455685Y-78665461D01*
X116508489Y-78619706D01*
X116560000Y-78608500D01*
X117718996Y-78608500D01*
X117719002Y-78608500D01*
X117756331Y-78605562D01*
X117763019Y-78603619D01*
X121649500Y-78603619D01*
X121654844Y-78635644D01*
X121683610Y-78808034D01*
X121750898Y-79004037D01*
X121750900Y-79004043D01*
X121849534Y-79186302D01*
X121849537Y-79186306D01*
X121976818Y-79349836D01*
X121976821Y-79349840D01*
X121976823Y-79349842D01*
X121976824Y-79349843D01*
X122020700Y-79390234D01*
X122129296Y-79490204D01*
X122216900Y-79547438D01*
X122302788Y-79603551D01*
X122492572Y-79686798D01*
X122693469Y-79737672D01*
X122762312Y-79743376D01*
X122899994Y-79754786D01*
X122900000Y-79754786D01*
X122900006Y-79754786D01*
X123023918Y-79744517D01*
X123106531Y-79737672D01*
X123307428Y-79686798D01*
X123497212Y-79603551D01*
X123670706Y-79490202D01*
X123823176Y-79349843D01*
X123950465Y-79186303D01*
X124049100Y-79004042D01*
X124116390Y-78808032D01*
X124150500Y-78603619D01*
X124150500Y-78500000D01*
X124150500Y-78499500D01*
X124150500Y-76499901D01*
X124150500Y-76396381D01*
X124116390Y-76191968D01*
X124049100Y-75995958D01*
X123950465Y-75813697D01*
X123903152Y-75752909D01*
X123823181Y-75650163D01*
X123823178Y-75650159D01*
X123670703Y-75509795D01*
X123497211Y-75396448D01*
X123307428Y-75313202D01*
X123106527Y-75262327D01*
X122900006Y-75245214D01*
X122899994Y-75245214D01*
X122693472Y-75262327D01*
X122492571Y-75313202D01*
X122302788Y-75396448D01*
X122129296Y-75509795D01*
X121976821Y-75650159D01*
X121976818Y-75650163D01*
X121849537Y-75813693D01*
X121849534Y-75813697D01*
X121750900Y-75995956D01*
X121750898Y-75995962D01*
X121683610Y-76191965D01*
X121649500Y-76396381D01*
X121649500Y-76499901D01*
X121649500Y-78499500D01*
X121649500Y-78500000D01*
X121649500Y-78603619D01*
X117763019Y-78603619D01*
X117836800Y-78582183D01*
X117887609Y-78567423D01*
X117922203Y-78562500D01*
X118905418Y-78562500D01*
X118923388Y-78563809D01*
X118926080Y-78564203D01*
X118947672Y-78567366D01*
X118997896Y-78562971D01*
X119008703Y-78562500D01*
X119014406Y-78562500D01*
X119014412Y-78562500D01*
X119045759Y-78558835D01*
X119049280Y-78558476D01*
X119125240Y-78551831D01*
X119125248Y-78551828D01*
X119132309Y-78550371D01*
X119132317Y-78550414D01*
X119140016Y-78548707D01*
X119140007Y-78548666D01*
X119147033Y-78547000D01*
X119147036Y-78546998D01*
X119147042Y-78546998D01*
X119218757Y-78520895D01*
X119222012Y-78519764D01*
X119294440Y-78495765D01*
X119294446Y-78495761D01*
X119300988Y-78492711D01*
X119301006Y-78492750D01*
X119308102Y-78489315D01*
X119308083Y-78489276D01*
X119314535Y-78486035D01*
X119314539Y-78486034D01*
X119378275Y-78444113D01*
X119381206Y-78442245D01*
X119446149Y-78402188D01*
X119446153Y-78402183D01*
X119451813Y-78397709D01*
X119451840Y-78397743D01*
X119457954Y-78392763D01*
X119457927Y-78392730D01*
X119463457Y-78388088D01*
X119463462Y-78388085D01*
X119515821Y-78332586D01*
X119518265Y-78330070D01*
X120733504Y-77114832D01*
X120747133Y-77103055D01*
X120751237Y-77100000D01*
X120766822Y-77088398D01*
X120799229Y-77049774D01*
X120806541Y-77041796D01*
X120810573Y-77037765D01*
X120810576Y-77037760D01*
X120810581Y-77037756D01*
X120817944Y-77028441D01*
X120830170Y-77012979D01*
X120832333Y-77010322D01*
X120881396Y-76951853D01*
X120881400Y-76951844D01*
X120885364Y-76945819D01*
X120885400Y-76945843D01*
X120889637Y-76939192D01*
X120889601Y-76939170D01*
X120893393Y-76933022D01*
X120893395Y-76933020D01*
X120925630Y-76863888D01*
X120927170Y-76860707D01*
X120961394Y-76792566D01*
X120961395Y-76792558D01*
X120963863Y-76785780D01*
X120963903Y-76785794D01*
X120966493Y-76778344D01*
X120966453Y-76778331D01*
X120968723Y-76771480D01*
X120968723Y-76771476D01*
X120968725Y-76771474D01*
X120984146Y-76696781D01*
X120984924Y-76693280D01*
X121002500Y-76619121D01*
X121003339Y-76611949D01*
X121003380Y-76611953D01*
X121004181Y-76604106D01*
X121004140Y-76604103D01*
X121004769Y-76596913D01*
X121002552Y-76520711D01*
X121002500Y-76517105D01*
X121002500Y-73712199D01*
X121022185Y-73645160D01*
X121038819Y-73624518D01*
X121079447Y-73583890D01*
X121140770Y-73550405D01*
X121196073Y-73550996D01*
X121273289Y-73569535D01*
X121510000Y-73588165D01*
X121746711Y-73569535D01*
X121977594Y-73514105D01*
X121977596Y-73514104D01*
X121977597Y-73514104D01*
X122196959Y-73423242D01*
X122196960Y-73423241D01*
X122196963Y-73423240D01*
X122399416Y-73299176D01*
X122579969Y-73144969D01*
X122734176Y-72964416D01*
X122858240Y-72761963D01*
X122858987Y-72760161D01*
X122949104Y-72542597D01*
X122949104Y-72542596D01*
X122949105Y-72542594D01*
X123004535Y-72311711D01*
X123023165Y-72075000D01*
X123004535Y-71838289D01*
X122949105Y-71607406D01*
X122949104Y-71607403D01*
X122949104Y-71607402D01*
X122858242Y-71388040D01*
X122858240Y-71388037D01*
X122734179Y-71185589D01*
X122734178Y-71185586D01*
X122650101Y-71087145D01*
X122579969Y-71005031D01*
X122460596Y-70903076D01*
X122399413Y-70850821D01*
X122399410Y-70850820D01*
X122196962Y-70726759D01*
X122196959Y-70726757D01*
X121977596Y-70635895D01*
X121746714Y-70580465D01*
X121510000Y-70561835D01*
X121273285Y-70580465D01*
X121042404Y-70635895D01*
X121042402Y-70635895D01*
X120823040Y-70726757D01*
X120823037Y-70726759D01*
X120620589Y-70850820D01*
X120620586Y-70850821D01*
X120440031Y-71005031D01*
X120285821Y-71185586D01*
X120285820Y-71185589D01*
X120161759Y-71388037D01*
X120161757Y-71388040D01*
X120070895Y-71607402D01*
X120070895Y-71607404D01*
X120015465Y-71838285D01*
X119996835Y-72075000D01*
X120015465Y-72311714D01*
X120034002Y-72388923D01*
X120030511Y-72458705D01*
X120001109Y-72505551D01*
X119746499Y-72760161D01*
X119732872Y-72771939D01*
X119713175Y-72786604D01*
X119680762Y-72825231D01*
X119673470Y-72833191D01*
X119669423Y-72837238D01*
X119649860Y-72861979D01*
X119647586Y-72864770D01*
X119598603Y-72923147D01*
X119594637Y-72929178D01*
X119594603Y-72929156D01*
X119590361Y-72935815D01*
X119590395Y-72935836D01*
X119586604Y-72941981D01*
X119554392Y-73011058D01*
X119552822Y-73014300D01*
X119518605Y-73082432D01*
X119516135Y-73089221D01*
X119516097Y-73089207D01*
X119513506Y-73096661D01*
X119513546Y-73096674D01*
X119511274Y-73103529D01*
X119495864Y-73178158D01*
X119495084Y-73181675D01*
X119477499Y-73255877D01*
X119476661Y-73263052D01*
X119476619Y-73263047D01*
X119475818Y-73270893D01*
X119475860Y-73270897D01*
X119475230Y-73278086D01*
X119477448Y-73354287D01*
X119477500Y-73357893D01*
X119477500Y-76162800D01*
X119457815Y-76229839D01*
X119441181Y-76250481D01*
X118690481Y-77001181D01*
X118629158Y-77034666D01*
X118602800Y-77037500D01*
X117922203Y-77037500D01*
X117887609Y-77032577D01*
X117756329Y-76994437D01*
X117719007Y-76991500D01*
X117719002Y-76991500D01*
X116410998Y-76991500D01*
X116410992Y-76991500D01*
X116373670Y-76994437D01*
X116373664Y-76994438D01*
X116213903Y-77040853D01*
X116213902Y-77040853D01*
X116212308Y-77041796D01*
X116143087Y-77082733D01*
X116079969Y-77100000D01*
X115440000Y-77100000D01*
X115440000Y-77650000D01*
X115695000Y-77650000D01*
X115762039Y-77669685D01*
X115807794Y-77722489D01*
X115819000Y-77774000D01*
X115819000Y-77817500D01*
X115799315Y-77884539D01*
X115746511Y-77930294D01*
X115695000Y-77941500D01*
X114535992Y-77941500D01*
X114498670Y-77944437D01*
X114498664Y-77944438D01*
X114338903Y-77990853D01*
X114338898Y-77990855D01*
X114195696Y-78075544D01*
X114195687Y-78075551D01*
X114193058Y-78078181D01*
X114190489Y-78079583D01*
X114189527Y-78080330D01*
X114189406Y-78080174D01*
X114131735Y-78111666D01*
X114105377Y-78114500D01*
X114014500Y-78114500D01*
X113947461Y-78094815D01*
X113901706Y-78042011D01*
X113890500Y-77990500D01*
X113890500Y-77506602D01*
X113910185Y-77439563D01*
X113962989Y-77393808D01*
X114032147Y-77383864D01*
X114095703Y-77412889D01*
X114102181Y-77418921D01*
X114200938Y-77517678D01*
X114200947Y-77517685D01*
X114342303Y-77601282D01*
X114342306Y-77601283D01*
X114500004Y-77647099D01*
X114500010Y-77647100D01*
X114536850Y-77649999D01*
X114536866Y-77650000D01*
X114940000Y-77650000D01*
X114940000Y-76050000D01*
X115440000Y-76050000D01*
X115440000Y-76600000D01*
X116424795Y-76600000D01*
X116424795Y-76599998D01*
X116424600Y-76597513D01*
X116378781Y-76439801D01*
X116295185Y-76298447D01*
X116295178Y-76298438D01*
X116179061Y-76182321D01*
X116179052Y-76182314D01*
X116037696Y-76098717D01*
X116037693Y-76098716D01*
X115879995Y-76052900D01*
X115879989Y-76052899D01*
X115843149Y-76050000D01*
X115440000Y-76050000D01*
X114940000Y-76050000D01*
X114536850Y-76050000D01*
X114500010Y-76052899D01*
X114500004Y-76052900D01*
X114342306Y-76098716D01*
X114342303Y-76098717D01*
X114200947Y-76182314D01*
X114200938Y-76182321D01*
X114102181Y-76281079D01*
X114040858Y-76314564D01*
X113971166Y-76309580D01*
X113915233Y-76267708D01*
X113890816Y-76202244D01*
X113890500Y-76193398D01*
X113890500Y-76139905D01*
X113910185Y-76072866D01*
X113950351Y-76033787D01*
X113970155Y-76021816D01*
X114091816Y-75900155D01*
X114180827Y-75752913D01*
X114232013Y-75588649D01*
X114238500Y-75517265D01*
X114238499Y-75002736D01*
X114238499Y-75002735D01*
X114238499Y-75002727D01*
X114232014Y-74931354D01*
X114232011Y-74931344D01*
X114180828Y-74767090D01*
X114180827Y-74767089D01*
X114180827Y-74767087D01*
X114091816Y-74619845D01*
X114091814Y-74619843D01*
X114091813Y-74619841D01*
X113994653Y-74522681D01*
X113961168Y-74461358D01*
X113966152Y-74391666D01*
X113994653Y-74347319D01*
X114091812Y-74250159D01*
X114091813Y-74250158D01*
X114091816Y-74250155D01*
X114180827Y-74102913D01*
X114232013Y-73938649D01*
X114238500Y-73867265D01*
X114238499Y-73352736D01*
X114238499Y-73352727D01*
X114232014Y-73281354D01*
X114232011Y-73281344D01*
X114180828Y-73117090D01*
X114180827Y-73117089D01*
X114180827Y-73117087D01*
X114091816Y-72969845D01*
X114091814Y-72969843D01*
X114091813Y-72969841D01*
X113970158Y-72848186D01*
X113945353Y-72833191D01*
X113822913Y-72759173D01*
X113658649Y-72707987D01*
X113658647Y-72707986D01*
X113658645Y-72707986D01*
X113608667Y-72703444D01*
X113587265Y-72701500D01*
X113587262Y-72701500D01*
X112922727Y-72701500D01*
X112851354Y-72707985D01*
X112851344Y-72707988D01*
X112687090Y-72759171D01*
X112539843Y-72848185D01*
X112494846Y-72893183D01*
X112449846Y-72938182D01*
X112388526Y-72971666D01*
X112362167Y-72974500D01*
X111607833Y-72974500D01*
X111540794Y-72954815D01*
X111520156Y-72938185D01*
X111430155Y-72848184D01*
X111410347Y-72836209D01*
X111363161Y-72784680D01*
X111350500Y-72730094D01*
X111350500Y-69859593D01*
X111370185Y-69792554D01*
X111386814Y-69771917D01*
X117582072Y-63576658D01*
X117594461Y-63566735D01*
X117594289Y-63566528D01*
X117600298Y-63561555D01*
X117600303Y-63561553D01*
X117647149Y-63511665D01*
X117649798Y-63508932D01*
X117669638Y-63489094D01*
X117672183Y-63485813D01*
X117679776Y-63476922D01*
X117710217Y-63444506D01*
X117720102Y-63426524D01*
X117730773Y-63410278D01*
X117743349Y-63394067D01*
X117761011Y-63353250D01*
X117766142Y-63342776D01*
X117787569Y-63303803D01*
X117792670Y-63283931D01*
X117798973Y-63265526D01*
X117807117Y-63246708D01*
X117814075Y-63202771D01*
X117816442Y-63191345D01*
X117818115Y-63184831D01*
X117827500Y-63148282D01*
X117827500Y-63127774D01*
X117829027Y-63108374D01*
X117832235Y-63088121D01*
X117831196Y-63077133D01*
X117828050Y-63043848D01*
X117827500Y-63032179D01*
X117827500Y-58710018D01*
X117827499Y-58710012D01*
X117827325Y-58708638D01*
X117826477Y-58701926D01*
X117825500Y-58686383D01*
X117825500Y-58325631D01*
X117827239Y-58309879D01*
X117826968Y-58309854D01*
X117827700Y-58302098D01*
X117827702Y-58302091D01*
X117825561Y-58233968D01*
X117825500Y-58230073D01*
X117825500Y-58202147D01*
X117825500Y-58202144D01*
X117824982Y-58198047D01*
X117824065Y-58186398D01*
X117823562Y-58170386D01*
X117822674Y-58142111D01*
X117816976Y-58122499D01*
X117813033Y-58103466D01*
X117810474Y-58083203D01*
X117794163Y-58042007D01*
X117790381Y-58030959D01*
X117778018Y-57988408D01*
X117778018Y-57988407D01*
X117767626Y-57970835D01*
X117759066Y-57953362D01*
X117751552Y-57934383D01*
X117725510Y-57898539D01*
X117719099Y-57888781D01*
X117696542Y-57850638D01*
X117682108Y-57836204D01*
X117669471Y-57821409D01*
X117657472Y-57804893D01*
X117657469Y-57804891D01*
X117657469Y-57804890D01*
X117623325Y-57776643D01*
X117614685Y-57768781D01*
X116927091Y-57081187D01*
X116917188Y-57068825D01*
X116916978Y-57069000D01*
X116911999Y-57062981D01*
X116862331Y-57016340D01*
X116859534Y-57013629D01*
X116839766Y-56993861D01*
X116836504Y-56991331D01*
X116827619Y-56983743D01*
X116817095Y-56973861D01*
X116795321Y-56953414D01*
X116795318Y-56953412D01*
X116793571Y-56952451D01*
X116792465Y-56951338D01*
X116789012Y-56948830D01*
X116789416Y-56948272D01*
X116744310Y-56902902D01*
X116729656Y-56834587D01*
X116754263Y-56769193D01*
X116790195Y-56737059D01*
X116811362Y-56724542D01*
X116825802Y-56710100D01*
X116840592Y-56697470D01*
X116857107Y-56685472D01*
X116885355Y-56651324D01*
X116893198Y-56642704D01*
X117016086Y-56519818D01*
X117077410Y-56486334D01*
X117103767Y-56483500D01*
X117160487Y-56483500D01*
X117347288Y-56443794D01*
X117521752Y-56366118D01*
X117676253Y-56253866D01*
X117804040Y-56111944D01*
X117899527Y-55946556D01*
X117958542Y-55764928D01*
X117978504Y-55575000D01*
X117958542Y-55385072D01*
X117901131Y-55208380D01*
X117899529Y-55203450D01*
X117899528Y-55203449D01*
X117899527Y-55203444D01*
X117804040Y-55038056D01*
X117790458Y-55022972D01*
X117760229Y-54959981D01*
X117768853Y-54890646D01*
X117790459Y-54857027D01*
X117792196Y-54855098D01*
X117804040Y-54841944D01*
X117899527Y-54676556D01*
X117958542Y-54494928D01*
X117978504Y-54305000D01*
X117958542Y-54115072D01*
X117899527Y-53933444D01*
X117804040Y-53768056D01*
X117782455Y-53744083D01*
X117752227Y-53681095D01*
X117760852Y-53611760D01*
X117767213Y-53599126D01*
X117849527Y-53456556D01*
X117908542Y-53274928D01*
X117928504Y-53085000D01*
X117908542Y-52895072D01*
X117849527Y-52713444D01*
X117849524Y-52713438D01*
X117846886Y-52707514D01*
X117847987Y-52707023D01*
X117833086Y-52645600D01*
X117855939Y-52579573D01*
X117910860Y-52536382D01*
X117956946Y-52527500D01*
X117967801Y-52527500D01*
X118034840Y-52547185D01*
X118055482Y-52563819D01*
X120076181Y-54584518D01*
X120109666Y-54645841D01*
X120112500Y-54672199D01*
X120112500Y-55885533D01*
X120092815Y-55952572D01*
X120040011Y-55998327D01*
X119970853Y-56008271D01*
X119938066Y-55998813D01*
X119887289Y-55976206D01*
X119887286Y-55976205D01*
X119700487Y-55936500D01*
X119509513Y-55936500D01*
X119322714Y-55976205D01*
X119235480Y-56015044D01*
X119164829Y-56046500D01*
X119148246Y-56053883D01*
X118993745Y-56166135D01*
X118865959Y-56308057D01*
X118770473Y-56473443D01*
X118770470Y-56473450D01*
X118715480Y-56642693D01*
X118711458Y-56655072D01*
X118691496Y-56845000D01*
X118711458Y-57034928D01*
X118711459Y-57034931D01*
X118770470Y-57216549D01*
X118770473Y-57216556D01*
X118865960Y-57381944D01*
X118953800Y-57479500D01*
X118989754Y-57519432D01*
X118993747Y-57523866D01*
X119148248Y-57636118D01*
X119322712Y-57713794D01*
X119509513Y-57753500D01*
X119700487Y-57753500D01*
X119887288Y-57713794D01*
X119938064Y-57691186D01*
X120007314Y-57681902D01*
X120070591Y-57711530D01*
X120107804Y-57770665D01*
X120112500Y-57804466D01*
X120112500Y-58166645D01*
X120092815Y-58233684D01*
X120040011Y-58279439D01*
X119977279Y-58290136D01*
X119953709Y-58287994D01*
X119937265Y-58286500D01*
X119937263Y-58286500D01*
X119272727Y-58286500D01*
X119201354Y-58292985D01*
X119201344Y-58292988D01*
X119037090Y-58344171D01*
X118889841Y-58433186D01*
X118768186Y-58554841D01*
X118679173Y-58702086D01*
X118627986Y-58866354D01*
X118624009Y-58910124D01*
X118622202Y-58930016D01*
X118621500Y-58937737D01*
X118621500Y-59452272D01*
X118627985Y-59523645D01*
X118627988Y-59523655D01*
X118679171Y-59687909D01*
X118679172Y-59687911D01*
X118679173Y-59687913D01*
X118761350Y-59823850D01*
X118768186Y-59835158D01*
X118865347Y-59932319D01*
X118898832Y-59993642D01*
X118893848Y-60063334D01*
X118865347Y-60107681D01*
X118768187Y-60204840D01*
X118768186Y-60204841D01*
X118679173Y-60352086D01*
X118627986Y-60516354D01*
X118621500Y-60587737D01*
X118621500Y-61102272D01*
X118627985Y-61173645D01*
X118627988Y-61173655D01*
X118679171Y-61337909D01*
X118679172Y-61337911D01*
X118679173Y-61337913D01*
X118765548Y-61480794D01*
X118768186Y-61485158D01*
X118889841Y-61606813D01*
X118889843Y-61606814D01*
X118889845Y-61606816D01*
X119037087Y-61695827D01*
X119201351Y-61747013D01*
X119272735Y-61753500D01*
X119937264Y-61753499D01*
X119937272Y-61753499D01*
X120008645Y-61747014D01*
X120008648Y-61747013D01*
X120008649Y-61747013D01*
X120129368Y-61709396D01*
X120172910Y-61695828D01*
X120172910Y-61695827D01*
X120172913Y-61695827D01*
X120275697Y-61633691D01*
X120343251Y-61615856D01*
X120409724Y-61637374D01*
X120427527Y-61652128D01*
X120711181Y-61935782D01*
X120744666Y-61997105D01*
X120747500Y-62023463D01*
X120747500Y-62842500D01*
X120727815Y-62909539D01*
X120675011Y-62955294D01*
X120623500Y-62966500D01*
X120461345Y-62966500D01*
X120400797Y-62973011D01*
X120400795Y-62973011D01*
X120263795Y-63024111D01*
X120146739Y-63111739D01*
X120059111Y-63228795D01*
X120008011Y-63365795D01*
X120008011Y-63365797D01*
X120001500Y-63426345D01*
X120001500Y-65523654D01*
X120008011Y-65584202D01*
X120008011Y-65584204D01*
X120037165Y-65662366D01*
X120059111Y-65721204D01*
X120146739Y-65838261D01*
X120263796Y-65925889D01*
X120400799Y-65976989D01*
X120428050Y-65979918D01*
X120461345Y-65983499D01*
X120461362Y-65983500D01*
X122558638Y-65983500D01*
X122558654Y-65983499D01*
X122585692Y-65980591D01*
X122619201Y-65976989D01*
X122756204Y-65925889D01*
X122873261Y-65838261D01*
X122960889Y-65721204D01*
X123011739Y-65584872D01*
X123011988Y-65584204D01*
X123011988Y-65584203D01*
X123011989Y-65584201D01*
X123017262Y-65535155D01*
X123018499Y-65523654D01*
X123018500Y-65523637D01*
X123018500Y-63426362D01*
X123018499Y-63426345D01*
X123014640Y-63390461D01*
X123011989Y-63365799D01*
X123011391Y-63364196D01*
X122988266Y-63302196D01*
X122960889Y-63228796D01*
X122873261Y-63111739D01*
X122756204Y-63024111D01*
X122748091Y-63021085D01*
X122619203Y-62973011D01*
X122558654Y-62966500D01*
X122558638Y-62966500D01*
X122396500Y-62966500D01*
X122329461Y-62946815D01*
X122283706Y-62894011D01*
X122272500Y-62842500D01*
X122272500Y-62160199D01*
X122292185Y-62093160D01*
X122344989Y-62047405D01*
X122414147Y-62037461D01*
X122477703Y-62066486D01*
X122484178Y-62072515D01*
X122912755Y-62501093D01*
X123338162Y-62926500D01*
X123349938Y-62940125D01*
X123364602Y-62959822D01*
X123364604Y-62959823D01*
X123364605Y-62959825D01*
X123403224Y-62992230D01*
X123411200Y-62999539D01*
X123415232Y-63003571D01*
X123439973Y-63023134D01*
X123442766Y-63025409D01*
X123449123Y-63030743D01*
X123501147Y-63074396D01*
X123501153Y-63074399D01*
X123507184Y-63078366D01*
X123507160Y-63078401D01*
X123513807Y-63082636D01*
X123513829Y-63082601D01*
X123519976Y-63086392D01*
X123519980Y-63086395D01*
X123523684Y-63088122D01*
X123589084Y-63118619D01*
X123592330Y-63120191D01*
X123636040Y-63142142D01*
X123660434Y-63154394D01*
X123660443Y-63154396D01*
X123667227Y-63156866D01*
X123667212Y-63156906D01*
X123674659Y-63159494D01*
X123674673Y-63159454D01*
X123681523Y-63161724D01*
X123681526Y-63161724D01*
X123681527Y-63161725D01*
X123756193Y-63177141D01*
X123759647Y-63177907D01*
X123833877Y-63195500D01*
X123833880Y-63195500D01*
X123833884Y-63195501D01*
X123841051Y-63196339D01*
X123841046Y-63196379D01*
X123848893Y-63197181D01*
X123848897Y-63197140D01*
X123856086Y-63197769D01*
X123856090Y-63197768D01*
X123856091Y-63197769D01*
X123932289Y-63195552D01*
X123935895Y-63195500D01*
X126804813Y-63195500D01*
X126871852Y-63215185D01*
X126892494Y-63231819D01*
X126897959Y-63237284D01*
X126897963Y-63237287D01*
X127043890Y-63327297D01*
X127043893Y-63327298D01*
X127043899Y-63327302D01*
X127206664Y-63381236D01*
X127307128Y-63391500D01*
X127307133Y-63391500D01*
X127904867Y-63391500D01*
X127904872Y-63391500D01*
X128005336Y-63381236D01*
X128168101Y-63327302D01*
X128314040Y-63237285D01*
X128319506Y-63231819D01*
X128380829Y-63198334D01*
X128407187Y-63195500D01*
X128430418Y-63195500D01*
X128448388Y-63196809D01*
X128450649Y-63197140D01*
X128472672Y-63200366D01*
X128522896Y-63195971D01*
X128533703Y-63195500D01*
X128539406Y-63195500D01*
X128539412Y-63195500D01*
X128570759Y-63191835D01*
X128574280Y-63191476D01*
X128650240Y-63184831D01*
X128650248Y-63184828D01*
X128657309Y-63183371D01*
X128657317Y-63183414D01*
X128665016Y-63181707D01*
X128665007Y-63181666D01*
X128672033Y-63180000D01*
X128672036Y-63179998D01*
X128672042Y-63179998D01*
X128743757Y-63153895D01*
X128747012Y-63152764D01*
X128819440Y-63128765D01*
X128819446Y-63128761D01*
X128825988Y-63125711D01*
X128826006Y-63125750D01*
X128833102Y-63122315D01*
X128833083Y-63122276D01*
X128839535Y-63119035D01*
X128839539Y-63119034D01*
X128903275Y-63077113D01*
X128906206Y-63075245D01*
X128971149Y-63035188D01*
X128971153Y-63035183D01*
X128976813Y-63030709D01*
X128976840Y-63030743D01*
X128982954Y-63025763D01*
X128982927Y-63025730D01*
X128988457Y-63021088D01*
X128988462Y-63021085D01*
X129040821Y-62965586D01*
X129043265Y-62963070D01*
X130893504Y-61112832D01*
X130907133Y-61101055D01*
X130926822Y-61086398D01*
X130959229Y-61047774D01*
X130966541Y-61039796D01*
X130970573Y-61035765D01*
X130990170Y-61010979D01*
X130992333Y-61008322D01*
X131041396Y-60949853D01*
X131041400Y-60949844D01*
X131045364Y-60943819D01*
X131045400Y-60943843D01*
X131049635Y-60937196D01*
X131049599Y-60937174D01*
X131053389Y-60931026D01*
X131053395Y-60931020D01*
X131085619Y-60861911D01*
X131087178Y-60858693D01*
X131095567Y-60841989D01*
X131121394Y-60790566D01*
X131121397Y-60790553D01*
X131123864Y-60783777D01*
X131123905Y-60783792D01*
X131126493Y-60776347D01*
X131126452Y-60776334D01*
X131128723Y-60769478D01*
X131128723Y-60769476D01*
X131128725Y-60769473D01*
X131144141Y-60694802D01*
X131144922Y-60691286D01*
X131156879Y-60640841D01*
X131162500Y-60617123D01*
X131162500Y-60617118D01*
X131163338Y-60609950D01*
X131163379Y-60609954D01*
X131164181Y-60602105D01*
X131164140Y-60602102D01*
X131164768Y-60594913D01*
X131164767Y-60594912D01*
X131164769Y-60594908D01*
X131163505Y-60551487D01*
X131180064Y-60485887D01*
X131234527Y-60391556D01*
X131293542Y-60209928D01*
X131313504Y-60020000D01*
X131293542Y-59830072D01*
X131234527Y-59648444D01*
X131139040Y-59483056D01*
X131011253Y-59341134D01*
X130856752Y-59228882D01*
X130682288Y-59151206D01*
X130682286Y-59151205D01*
X130495487Y-59111500D01*
X130304513Y-59111500D01*
X130117714Y-59151205D01*
X130117712Y-59151206D01*
X129989744Y-59208181D01*
X129943246Y-59228883D01*
X129788745Y-59341135D01*
X129660959Y-59483057D01*
X129565473Y-59648443D01*
X129565470Y-59648450D01*
X129506459Y-59830068D01*
X129506458Y-59830072D01*
X129486496Y-60020000D01*
X129506458Y-60209928D01*
X129506459Y-60209930D01*
X129515661Y-60238253D01*
X129517655Y-60308094D01*
X129485410Y-60364250D01*
X128736511Y-61113149D01*
X128675188Y-61146634D01*
X128605496Y-61141650D01*
X128592037Y-61133000D01*
X126631001Y-61133000D01*
X126631001Y-61156322D01*
X126641144Y-61255607D01*
X126694452Y-61416481D01*
X126694454Y-61416486D01*
X126734496Y-61481403D01*
X126752936Y-61548795D01*
X126732014Y-61615459D01*
X126678372Y-61660229D01*
X126628957Y-61670500D01*
X124290199Y-61670500D01*
X124223160Y-61650815D01*
X124202518Y-61634181D01*
X123201337Y-60633000D01*
X126631000Y-60633000D01*
X127356000Y-60633000D01*
X127356000Y-59933000D01*
X127856000Y-59933000D01*
X127856000Y-60633000D01*
X128580999Y-60633000D01*
X128580999Y-60609692D01*
X128580998Y-60609677D01*
X128570855Y-60510392D01*
X128517547Y-60349518D01*
X128517542Y-60349507D01*
X128428575Y-60205271D01*
X128428572Y-60205267D01*
X128308732Y-60085427D01*
X128308728Y-60085424D01*
X128164492Y-59996457D01*
X128164481Y-59996452D01*
X128003606Y-59943144D01*
X127904322Y-59933000D01*
X127856000Y-59933000D01*
X127356000Y-59933000D01*
X127355999Y-59932999D01*
X127307693Y-59933000D01*
X127307675Y-59933001D01*
X127208392Y-59943144D01*
X127047518Y-59996452D01*
X127047507Y-59996457D01*
X126903271Y-60085424D01*
X126903267Y-60085427D01*
X126783427Y-60205267D01*
X126783424Y-60205271D01*
X126694457Y-60349507D01*
X126694452Y-60349518D01*
X126641144Y-60510393D01*
X126631000Y-60609677D01*
X126631000Y-60633000D01*
X123201337Y-60633000D01*
X121673819Y-59105481D01*
X121640334Y-59044158D01*
X121637500Y-59017800D01*
X121637500Y-56870790D01*
X121637710Y-56863580D01*
X121639172Y-56838474D01*
X121641392Y-56800363D01*
X121639384Y-56788973D01*
X121637500Y-56767442D01*
X121637500Y-54369580D01*
X121638809Y-54351610D01*
X121639777Y-54345000D01*
X121642366Y-54327327D01*
X121637971Y-54277105D01*
X121637500Y-54266297D01*
X121637500Y-54260593D01*
X121637500Y-54260588D01*
X121633836Y-54229244D01*
X121633472Y-54225680D01*
X121626831Y-54149765D01*
X121625370Y-54142691D01*
X121625413Y-54142682D01*
X121623706Y-54134981D01*
X121623665Y-54134991D01*
X121621999Y-54127963D01*
X121621998Y-54127961D01*
X121621998Y-54127958D01*
X121595897Y-54056250D01*
X121594739Y-54052916D01*
X121570764Y-53980559D01*
X121570760Y-53980553D01*
X121567714Y-53974020D01*
X121567753Y-53974001D01*
X121564312Y-53966894D01*
X121564274Y-53966914D01*
X121561036Y-53960468D01*
X121561034Y-53960461D01*
X121519131Y-53896750D01*
X121517220Y-53893752D01*
X121487356Y-53845335D01*
X121477186Y-53828846D01*
X121472710Y-53823186D01*
X121472742Y-53823160D01*
X121467761Y-53817044D01*
X121467729Y-53817072D01*
X121463086Y-53811539D01*
X121407640Y-53759228D01*
X121405053Y-53756715D01*
X119224302Y-51575964D01*
X119190817Y-51514641D01*
X119195801Y-51444949D01*
X119237673Y-51389016D01*
X119303137Y-51364599D01*
X119337761Y-51366992D01*
X119509513Y-51403500D01*
X119563406Y-51403500D01*
X119630445Y-51423185D01*
X119651087Y-51439819D01*
X121636339Y-53425071D01*
X121646269Y-53437465D01*
X121646476Y-53437295D01*
X121651443Y-53443300D01*
X121701296Y-53490114D01*
X121704096Y-53492828D01*
X121723904Y-53512637D01*
X121727184Y-53515181D01*
X121736066Y-53522766D01*
X121768494Y-53553217D01*
X121786470Y-53563099D01*
X121802716Y-53573770D01*
X121818933Y-53586349D01*
X121859756Y-53604014D01*
X121870223Y-53609143D01*
X121885168Y-53617359D01*
X121909192Y-53630567D01*
X121909194Y-53630567D01*
X121909197Y-53630569D01*
X121929066Y-53635670D01*
X121947462Y-53641968D01*
X121966292Y-53650117D01*
X122010219Y-53657073D01*
X122021650Y-53659441D01*
X122064718Y-53670500D01*
X122085226Y-53670500D01*
X122104623Y-53672026D01*
X122124877Y-53675234D01*
X122124878Y-53675235D01*
X122124878Y-53675234D01*
X122124879Y-53675235D01*
X122144397Y-53673389D01*
X122169152Y-53671050D01*
X122180821Y-53670500D01*
X130723234Y-53670500D01*
X130790273Y-53690185D01*
X130810915Y-53706819D01*
X131635181Y-54531085D01*
X131668666Y-54592408D01*
X131671500Y-54618766D01*
X131671500Y-56761366D01*
X131669761Y-56777113D01*
X131670032Y-56777139D01*
X131669298Y-56784905D01*
X131671439Y-56853016D01*
X131671500Y-56856912D01*
X131671500Y-56884859D01*
X131672018Y-56888958D01*
X131672934Y-56900598D01*
X131674326Y-56944889D01*
X131674327Y-56944891D01*
X131680022Y-56964495D01*
X131683967Y-56983542D01*
X131686526Y-57003797D01*
X131686527Y-57003800D01*
X131686528Y-57003804D01*
X131702838Y-57045000D01*
X131706621Y-57056049D01*
X131718981Y-57098592D01*
X131729372Y-57116162D01*
X131737932Y-57133635D01*
X131745447Y-57152617D01*
X131771491Y-57188463D01*
X131777905Y-57198227D01*
X131800458Y-57236362D01*
X131800462Y-57236366D01*
X131814889Y-57250793D01*
X131827526Y-57265588D01*
X131839528Y-57282107D01*
X131852977Y-57293233D01*
X131873668Y-57310350D01*
X131882309Y-57318213D01*
X133067910Y-58503814D01*
X133077820Y-58516182D01*
X133078029Y-58516010D01*
X133082997Y-58522015D01*
X133082999Y-58522017D01*
X133083000Y-58522018D01*
X133092613Y-58531045D01*
X133110151Y-58547515D01*
X133143652Y-58601016D01*
X133169171Y-58682908D01*
X133169173Y-58682913D01*
X133246823Y-58811362D01*
X133258186Y-58830158D01*
X133379841Y-58951813D01*
X133379843Y-58951814D01*
X133379845Y-58951816D01*
X133527087Y-59040827D01*
X133691351Y-59092013D01*
X133762735Y-59098500D01*
X134277264Y-59098499D01*
X134277272Y-59098499D01*
X134348645Y-59092014D01*
X134348648Y-59092013D01*
X134348649Y-59092013D01*
X134512913Y-59040827D01*
X134660155Y-58951816D01*
X134707698Y-58904273D01*
X134757319Y-58854653D01*
X134818642Y-58821168D01*
X134888334Y-58826152D01*
X134932681Y-58854653D01*
X135029841Y-58951813D01*
X135029843Y-58951814D01*
X135029845Y-58951816D01*
X135177087Y-59040827D01*
X135341351Y-59092013D01*
X135412735Y-59098500D01*
X135927264Y-59098499D01*
X135927272Y-59098499D01*
X135998645Y-59092014D01*
X135998648Y-59092013D01*
X135998649Y-59092013D01*
X136162913Y-59040827D01*
X136310155Y-58951816D01*
X136431816Y-58830155D01*
X136441324Y-58814427D01*
X136444998Y-58808350D01*
X136496526Y-58761163D01*
X136551115Y-58748500D01*
X136765807Y-58748500D01*
X136832846Y-58768185D01*
X136878601Y-58820989D01*
X136888545Y-58890147D01*
X136881161Y-58917991D01*
X136847098Y-59004368D01*
X136847097Y-59004370D01*
X136836500Y-59092614D01*
X136836500Y-59677386D01*
X136841670Y-59720435D01*
X136847097Y-59765631D01*
X136880372Y-59850010D01*
X136886654Y-59919597D01*
X136854317Y-59981533D01*
X136793629Y-60016154D01*
X136765018Y-60019500D01*
X136549906Y-60019500D01*
X136482867Y-59999815D01*
X136443789Y-59959650D01*
X136431818Y-59939848D01*
X136431817Y-59939847D01*
X136431816Y-59939845D01*
X136310155Y-59818184D01*
X136162913Y-59729173D01*
X135998649Y-59677987D01*
X135998647Y-59677986D01*
X135998645Y-59677986D01*
X135948667Y-59673444D01*
X135927265Y-59671500D01*
X135927262Y-59671500D01*
X135412727Y-59671500D01*
X135341354Y-59677985D01*
X135341344Y-59677988D01*
X135177090Y-59729171D01*
X135029841Y-59818186D01*
X134932681Y-59915347D01*
X134871358Y-59948832D01*
X134801666Y-59943848D01*
X134757319Y-59915347D01*
X134660158Y-59818186D01*
X134650044Y-59812072D01*
X134512913Y-59729173D01*
X134348649Y-59677987D01*
X134348647Y-59677986D01*
X134348645Y-59677986D01*
X134298667Y-59673444D01*
X134277265Y-59671500D01*
X134277262Y-59671500D01*
X133762727Y-59671500D01*
X133691354Y-59677985D01*
X133691344Y-59677988D01*
X133527090Y-59729171D01*
X133379841Y-59818186D01*
X133258186Y-59939841D01*
X133169173Y-60087086D01*
X133117986Y-60251354D01*
X133115037Y-60283808D01*
X133111538Y-60322323D01*
X133111500Y-60322737D01*
X133111500Y-60987272D01*
X133117985Y-61058645D01*
X133117988Y-61058655D01*
X133169171Y-61222909D01*
X133169172Y-61222911D01*
X133169173Y-61222913D01*
X133258184Y-61370155D01*
X133348182Y-61460153D01*
X133381666Y-61521474D01*
X133384500Y-61547833D01*
X133384500Y-61765405D01*
X133364815Y-61832444D01*
X133348181Y-61853086D01*
X131373086Y-63828181D01*
X131311763Y-63861666D01*
X131285405Y-63864500D01*
X129105509Y-63864500D01*
X129038470Y-63844815D01*
X129013358Y-63823472D01*
X129011254Y-63821135D01*
X128963080Y-63786134D01*
X128856752Y-63708882D01*
X128682288Y-63631206D01*
X128682286Y-63631205D01*
X128495487Y-63591500D01*
X128304513Y-63591500D01*
X128117714Y-63631205D01*
X127943246Y-63708883D01*
X127788745Y-63821135D01*
X127660959Y-63963057D01*
X127565473Y-64128443D01*
X127565470Y-64128450D01*
X127506459Y-64310068D01*
X127506458Y-64310072D01*
X127486496Y-64500000D01*
X127506458Y-64689928D01*
X127506459Y-64689931D01*
X127565470Y-64871549D01*
X127565473Y-64871556D01*
X127660960Y-65036944D01*
X127748570Y-65134245D01*
X127784827Y-65174513D01*
X127788747Y-65178866D01*
X127943248Y-65291118D01*
X128117712Y-65368794D01*
X128304513Y-65408500D01*
X128495487Y-65408500D01*
X128682288Y-65368794D01*
X128856752Y-65291118D01*
X129011253Y-65178866D01*
X129013358Y-65176527D01*
X129014915Y-65175568D01*
X129016088Y-65174513D01*
X129016280Y-65174727D01*
X129072845Y-65139880D01*
X129105509Y-65135500D01*
X131516153Y-65135500D01*
X131531932Y-65137241D01*
X131531958Y-65136974D01*
X131539711Y-65137706D01*
X131539719Y-65137708D01*
X131608044Y-65135561D01*
X131611939Y-65135500D01*
X131639977Y-65135500D01*
X131639983Y-65135500D01*
X131644122Y-65134976D01*
X131655753Y-65134061D01*
X131700205Y-65132665D01*
X131719906Y-65126940D01*
X131738951Y-65122997D01*
X131759299Y-65120427D01*
X131800659Y-65104051D01*
X131811660Y-65100283D01*
X131854393Y-65087869D01*
X131872054Y-65077423D01*
X131889512Y-65068871D01*
X131908588Y-65061319D01*
X131944568Y-65035177D01*
X131954315Y-65028774D01*
X131992598Y-65006134D01*
X132007094Y-64991637D01*
X132021892Y-64978998D01*
X132038487Y-64966942D01*
X132066835Y-64932673D01*
X132074687Y-64924043D01*
X134410075Y-62588656D01*
X134422458Y-62578738D01*
X134422286Y-62578530D01*
X134428294Y-62573558D01*
X134428303Y-62573553D01*
X134475103Y-62523714D01*
X134477783Y-62520948D01*
X134497639Y-62501094D01*
X134500192Y-62497801D01*
X134507774Y-62488923D01*
X134538217Y-62456506D01*
X134548094Y-62438537D01*
X134558779Y-62422272D01*
X134560653Y-62419856D01*
X134571350Y-62406067D01*
X134589019Y-62365234D01*
X134594145Y-62354770D01*
X134615569Y-62315803D01*
X134620670Y-62295930D01*
X134626969Y-62277534D01*
X134635117Y-62258708D01*
X134642072Y-62214787D01*
X134644442Y-62203347D01*
X134649560Y-62183414D01*
X134655500Y-62160282D01*
X134655500Y-62139774D01*
X134657027Y-62120374D01*
X134660235Y-62100121D01*
X134657057Y-62066500D01*
X134656050Y-62055848D01*
X134655500Y-62044179D01*
X134655500Y-61547833D01*
X134675185Y-61480794D01*
X134691813Y-61460157D01*
X134757321Y-61394649D01*
X134818640Y-61361167D01*
X134888332Y-61366151D01*
X134932680Y-61394652D01*
X135029841Y-61491813D01*
X135029843Y-61491814D01*
X135029845Y-61491816D01*
X135177087Y-61580827D01*
X135341351Y-61632013D01*
X135412735Y-61638500D01*
X135927264Y-61638499D01*
X135927272Y-61638499D01*
X135998645Y-61632014D01*
X135998648Y-61632013D01*
X135998649Y-61632013D01*
X136162913Y-61580827D01*
X136310155Y-61491816D01*
X136431816Y-61370155D01*
X136437320Y-61361049D01*
X136443789Y-61350350D01*
X136495317Y-61303163D01*
X136549906Y-61290500D01*
X136944301Y-61290500D01*
X137011340Y-61310185D01*
X137019226Y-61315696D01*
X137113951Y-61387528D01*
X137113953Y-61387529D01*
X137132016Y-61394652D01*
X137254370Y-61442903D01*
X137342614Y-61453500D01*
X137442500Y-61453500D01*
X137509539Y-61473185D01*
X137555294Y-61525989D01*
X137566500Y-61577500D01*
X137566500Y-62296366D01*
X137564761Y-62312113D01*
X137565032Y-62312139D01*
X137564298Y-62319905D01*
X137564298Y-62319908D01*
X137564298Y-62319909D01*
X137565427Y-62355832D01*
X137566439Y-62388016D01*
X137566500Y-62391912D01*
X137566500Y-62419859D01*
X137567018Y-62423958D01*
X137567934Y-62435598D01*
X137569326Y-62479889D01*
X137569327Y-62479891D01*
X137575022Y-62499495D01*
X137578967Y-62518542D01*
X137581526Y-62538797D01*
X137581527Y-62538800D01*
X137581528Y-62538804D01*
X137597838Y-62580000D01*
X137601621Y-62591049D01*
X137613981Y-62633592D01*
X137624372Y-62651162D01*
X137632932Y-62668635D01*
X137640447Y-62687617D01*
X137666491Y-62723463D01*
X137672905Y-62733227D01*
X137695456Y-62771359D01*
X137695458Y-62771362D01*
X137695462Y-62771366D01*
X137709889Y-62785793D01*
X137722526Y-62800588D01*
X137734528Y-62817107D01*
X137742632Y-62823811D01*
X137768668Y-62845350D01*
X137777309Y-62853213D01*
X137975456Y-63051360D01*
X138008941Y-63112683D01*
X138003957Y-63182375D01*
X137979926Y-63222012D01*
X137915963Y-63293050D01*
X137915958Y-63293057D01*
X137820473Y-63458443D01*
X137820470Y-63458450D01*
X137761459Y-63640068D01*
X137761458Y-63640072D01*
X137741496Y-63830000D01*
X137761458Y-64019928D01*
X137761459Y-64019931D01*
X137820470Y-64201549D01*
X137820473Y-64201556D01*
X137915960Y-64366944D01*
X138043747Y-64508866D01*
X138198248Y-64621118D01*
X138372712Y-64698794D01*
X138559513Y-64738500D01*
X138750487Y-64738500D01*
X138937288Y-64698794D01*
X139111752Y-64621118D01*
X139266253Y-64508866D01*
X139394040Y-64366944D01*
X139489527Y-64201556D01*
X139548542Y-64019928D01*
X139551837Y-63988574D01*
X139578420Y-63923964D01*
X139635717Y-63883978D01*
X139705536Y-63881318D01*
X139765710Y-63916827D01*
X139781889Y-63938419D01*
X139795453Y-63961356D01*
X139795462Y-63961366D01*
X139809889Y-63975793D01*
X139822526Y-63990588D01*
X139834528Y-64007107D01*
X139850026Y-64019928D01*
X139868668Y-64035350D01*
X139877309Y-64043213D01*
X140248378Y-64414282D01*
X140281863Y-64475605D01*
X140284018Y-64489001D01*
X140291992Y-64564868D01*
X140301458Y-64654928D01*
X140301459Y-64654931D01*
X140360470Y-64836549D01*
X140360473Y-64836556D01*
X140455960Y-65001944D01*
X140516216Y-65068865D01*
X140574918Y-65134061D01*
X140583747Y-65143866D01*
X140738248Y-65256118D01*
X140912712Y-65333794D01*
X141099513Y-65373500D01*
X141290487Y-65373500D01*
X141477288Y-65333794D01*
X141651752Y-65256118D01*
X141806253Y-65143866D01*
X141934040Y-65001944D01*
X142029527Y-64836556D01*
X142088542Y-64654928D01*
X142108504Y-64465000D01*
X142088542Y-64275072D01*
X142029527Y-64093444D01*
X141934040Y-63928056D01*
X141806253Y-63786134D01*
X141651752Y-63673882D01*
X141477288Y-63596206D01*
X141477286Y-63596205D01*
X141290487Y-63556500D01*
X141233767Y-63556500D01*
X141166728Y-63536815D01*
X141146086Y-63520181D01*
X140969819Y-63343914D01*
X140936334Y-63282591D01*
X140933500Y-63256233D01*
X140933500Y-62229315D01*
X140953185Y-62162276D01*
X141005989Y-62116521D01*
X141075147Y-62106577D01*
X141136541Y-62133772D01*
X141168669Y-62160351D01*
X141177309Y-62168213D01*
X144797910Y-65788814D01*
X144807816Y-65801178D01*
X144808026Y-65801005D01*
X144812997Y-65807013D01*
X144813000Y-65807018D01*
X144862701Y-65853690D01*
X144865465Y-65856369D01*
X144885230Y-65876134D01*
X144888504Y-65878673D01*
X144897370Y-65886247D01*
X144929678Y-65916586D01*
X144947567Y-65926420D01*
X144963833Y-65937104D01*
X144979959Y-65949613D01*
X145020616Y-65967207D01*
X145031107Y-65972346D01*
X145069940Y-65993695D01*
X145089718Y-65998773D01*
X145108119Y-66005073D01*
X145126855Y-66013181D01*
X145170630Y-66020113D01*
X145182045Y-66022478D01*
X145224970Y-66033500D01*
X145245384Y-66033500D01*
X145264783Y-66035027D01*
X145284943Y-66038220D01*
X145329057Y-66034050D01*
X145340726Y-66033500D01*
X154781366Y-66033500D01*
X154797113Y-66035238D01*
X154797139Y-66034968D01*
X154804905Y-66035701D01*
X154804909Y-66035702D01*
X154873017Y-66033560D01*
X154876913Y-66033500D01*
X154904858Y-66033500D01*
X154904860Y-66033499D01*
X154906262Y-66033322D01*
X154908949Y-66032983D01*
X154920608Y-66032064D01*
X154964889Y-66030673D01*
X154984481Y-66024980D01*
X155003538Y-66021032D01*
X155023797Y-66018474D01*
X155065006Y-66002157D01*
X155076043Y-65998379D01*
X155118593Y-65986018D01*
X155136165Y-65975625D01*
X155153632Y-65967068D01*
X155172617Y-65959552D01*
X155208461Y-65933508D01*
X155218230Y-65927092D01*
X155220266Y-65925888D01*
X155256362Y-65904542D01*
X155270802Y-65890100D01*
X155285592Y-65877470D01*
X155302107Y-65865472D01*
X155330359Y-65831319D01*
X155338203Y-65822699D01*
X155723815Y-65437087D01*
X155736180Y-65427183D01*
X155736006Y-65426973D01*
X155742009Y-65422005D01*
X155742018Y-65422000D01*
X155788677Y-65372311D01*
X155791356Y-65369546D01*
X155811134Y-65349770D01*
X155813660Y-65346512D01*
X155821246Y-65337629D01*
X155851586Y-65305321D01*
X155861423Y-65287424D01*
X155872097Y-65271174D01*
X155884613Y-65255041D01*
X155891753Y-65238538D01*
X155936438Y-65184830D01*
X155946528Y-65178731D01*
X156080576Y-65106189D01*
X156258240Y-64967906D01*
X156321452Y-64899239D01*
X156381337Y-64863250D01*
X156451175Y-64865349D01*
X156508791Y-64904873D01*
X156528861Y-64939888D01*
X156565062Y-65036944D01*
X156574111Y-65061204D01*
X156661739Y-65178261D01*
X156778796Y-65265889D01*
X156915799Y-65316989D01*
X156943050Y-65319918D01*
X156976345Y-65323499D01*
X156976362Y-65323500D01*
X158773638Y-65323500D01*
X158773654Y-65323499D01*
X158800692Y-65320591D01*
X158834201Y-65316989D01*
X158971204Y-65265889D01*
X159088261Y-65178261D01*
X159175889Y-65061204D01*
X159226989Y-64924201D01*
X159232650Y-64871549D01*
X159233499Y-64863654D01*
X159233500Y-64863637D01*
X159233500Y-63457500D01*
X159253185Y-63390461D01*
X159305989Y-63344706D01*
X159357500Y-63333500D01*
X159672501Y-63333500D01*
X159739540Y-63353185D01*
X159785295Y-63405989D01*
X159796501Y-63457500D01*
X159796501Y-63502272D01*
X159802985Y-63573644D01*
X159802988Y-63573655D01*
X159854171Y-63737909D01*
X159854172Y-63737911D01*
X159854173Y-63737913D01*
X159943184Y-63885155D01*
X159943186Y-63885158D01*
X160040347Y-63982319D01*
X160073832Y-64043642D01*
X160068848Y-64113334D01*
X160040347Y-64157681D01*
X159943187Y-64254840D01*
X159943186Y-64254841D01*
X159854173Y-64402086D01*
X159802986Y-64566354D01*
X159796500Y-64637737D01*
X159796500Y-65152272D01*
X159802985Y-65223645D01*
X159802988Y-65223655D01*
X159854171Y-65387909D01*
X159854172Y-65387911D01*
X159854173Y-65387913D01*
X159943184Y-65535155D01*
X159943186Y-65535158D01*
X160064841Y-65656813D01*
X160064843Y-65656814D01*
X160064845Y-65656816D01*
X160212087Y-65745827D01*
X160376351Y-65797013D01*
X160447735Y-65803500D01*
X161112264Y-65803499D01*
X161112272Y-65803499D01*
X161183645Y-65797014D01*
X161183648Y-65797013D01*
X161183649Y-65797013D01*
X161347913Y-65745827D01*
X161390048Y-65720355D01*
X161464443Y-65675383D01*
X161528592Y-65657500D01*
X162440418Y-65657500D01*
X162458388Y-65658809D01*
X162461080Y-65659203D01*
X162482672Y-65662366D01*
X162532896Y-65657971D01*
X162543703Y-65657500D01*
X162549406Y-65657500D01*
X162549412Y-65657500D01*
X162580759Y-65653835D01*
X162584280Y-65653476D01*
X162660240Y-65646831D01*
X162660248Y-65646828D01*
X162667309Y-65645371D01*
X162667317Y-65645414D01*
X162675016Y-65643707D01*
X162675007Y-65643666D01*
X162682033Y-65642000D01*
X162682036Y-65641998D01*
X162682042Y-65641998D01*
X162753757Y-65615895D01*
X162757012Y-65614764D01*
X162829440Y-65590765D01*
X162829446Y-65590761D01*
X162835988Y-65587711D01*
X162836006Y-65587750D01*
X162843102Y-65584315D01*
X162843083Y-65584276D01*
X162849535Y-65581035D01*
X162849539Y-65581034D01*
X162913275Y-65539113D01*
X162916206Y-65537245D01*
X162981149Y-65497188D01*
X162981153Y-65497183D01*
X162986813Y-65492709D01*
X162986840Y-65492743D01*
X162992954Y-65487763D01*
X162992927Y-65487730D01*
X162998457Y-65483088D01*
X162998462Y-65483085D01*
X163050821Y-65427586D01*
X163053265Y-65425070D01*
X164393504Y-64084832D01*
X164407133Y-64073055D01*
X164411237Y-64070000D01*
X164426822Y-64058398D01*
X164459229Y-64019774D01*
X164466541Y-64011796D01*
X164470573Y-64007765D01*
X164490170Y-63982979D01*
X164492333Y-63980322D01*
X164541396Y-63921853D01*
X164541400Y-63921844D01*
X164545364Y-63915819D01*
X164545400Y-63915843D01*
X164549635Y-63909196D01*
X164549599Y-63909174D01*
X164553389Y-63903026D01*
X164553395Y-63903020D01*
X164585619Y-63833911D01*
X164587178Y-63830693D01*
X164591979Y-63821134D01*
X164621394Y-63762566D01*
X164621397Y-63762553D01*
X164623864Y-63755777D01*
X164623905Y-63755792D01*
X164626494Y-63748344D01*
X164626453Y-63748331D01*
X164628724Y-63741478D01*
X164642680Y-63673883D01*
X164644145Y-63666785D01*
X164644914Y-63663320D01*
X164662500Y-63589123D01*
X164662500Y-63589119D01*
X164663339Y-63581949D01*
X164663380Y-63581953D01*
X164664181Y-63574107D01*
X164664140Y-63574104D01*
X164664769Y-63566913D01*
X164662552Y-63490711D01*
X164662500Y-63487105D01*
X164662500Y-60364580D01*
X164663809Y-60346610D01*
X164663998Y-60345316D01*
X164667366Y-60322327D01*
X164665438Y-60300295D01*
X164662972Y-60272106D01*
X164662500Y-60261297D01*
X164662500Y-60255593D01*
X164662500Y-60255588D01*
X164658836Y-60224244D01*
X164658472Y-60220680D01*
X164657531Y-60209928D01*
X164655247Y-60183818D01*
X164651831Y-60144765D01*
X164650370Y-60137691D01*
X164650413Y-60137682D01*
X164648706Y-60129981D01*
X164648665Y-60129991D01*
X164646999Y-60122963D01*
X164646998Y-60122961D01*
X164646998Y-60122958D01*
X164620897Y-60051250D01*
X164619739Y-60047916D01*
X164595764Y-59975559D01*
X164595760Y-59975553D01*
X164592714Y-59969020D01*
X164592753Y-59969001D01*
X164589312Y-59961894D01*
X164589274Y-59961914D01*
X164586036Y-59955468D01*
X164586034Y-59955461D01*
X164544131Y-59891750D01*
X164542220Y-59888752D01*
X164506026Y-59830072D01*
X164502186Y-59823846D01*
X164497710Y-59818186D01*
X164497742Y-59818160D01*
X164492761Y-59812044D01*
X164492729Y-59812072D01*
X164488086Y-59806539D01*
X164432640Y-59754228D01*
X164430053Y-59751715D01*
X163569838Y-58891500D01*
X163558055Y-58877865D01*
X163543403Y-58858184D01*
X163543397Y-58858177D01*
X163504771Y-58825766D01*
X163496796Y-58818458D01*
X163492761Y-58814423D01*
X163468029Y-58794867D01*
X163465236Y-58792592D01*
X163406854Y-58743604D01*
X163400820Y-58739636D01*
X163400843Y-58739600D01*
X163394193Y-58735363D01*
X163394172Y-58735399D01*
X163388018Y-58731604D01*
X163318916Y-58699381D01*
X163315701Y-58697825D01*
X163247566Y-58663606D01*
X163247565Y-58663605D01*
X163247562Y-58663604D01*
X163240781Y-58661136D01*
X163240794Y-58661097D01*
X163233340Y-58658506D01*
X163233327Y-58658546D01*
X163226471Y-58656274D01*
X163151841Y-58640864D01*
X163148321Y-58640084D01*
X163080830Y-58624089D01*
X163020137Y-58589475D01*
X162987792Y-58527543D01*
X162991493Y-58465114D01*
X163043542Y-58304928D01*
X163063504Y-58115000D01*
X163043542Y-57925072D01*
X162984527Y-57743444D01*
X162889040Y-57578056D01*
X162761253Y-57436134D01*
X162606752Y-57323882D01*
X162432288Y-57246206D01*
X162432286Y-57246205D01*
X162245487Y-57206500D01*
X162054513Y-57206500D01*
X161867714Y-57246205D01*
X161824177Y-57265589D01*
X161729264Y-57307847D01*
X161693246Y-57323883D01*
X161538745Y-57436135D01*
X161410959Y-57578057D01*
X161315473Y-57743443D01*
X161315470Y-57743450D01*
X161256459Y-57925068D01*
X161256458Y-57925072D01*
X161236496Y-58115000D01*
X161256458Y-58304928D01*
X161256459Y-58304930D01*
X161256459Y-58304931D01*
X161315470Y-58486549D01*
X161315473Y-58486556D01*
X161354897Y-58554841D01*
X161370887Y-58582535D01*
X161387500Y-58644535D01*
X161387500Y-58964969D01*
X161367815Y-59032008D01*
X161315011Y-59077763D01*
X161245853Y-59087707D01*
X161224496Y-59082675D01*
X161152336Y-59058764D01*
X161051879Y-59048500D01*
X161051872Y-59048500D01*
X160454128Y-59048500D01*
X160454120Y-59048500D01*
X160353663Y-59058764D01*
X160190901Y-59112697D01*
X160190890Y-59112702D01*
X160044963Y-59202712D01*
X160044959Y-59202715D01*
X160039494Y-59208181D01*
X159978171Y-59241666D01*
X159951813Y-59244500D01*
X159357588Y-59244500D01*
X159339618Y-59243191D01*
X159315323Y-59239632D01*
X159265096Y-59244028D01*
X159254287Y-59244500D01*
X159248580Y-59244500D01*
X159217290Y-59248157D01*
X159213707Y-59248523D01*
X159137755Y-59255169D01*
X159130688Y-59256628D01*
X159130679Y-59256588D01*
X159122970Y-59258297D01*
X159122980Y-59258337D01*
X159115960Y-59260000D01*
X159044317Y-59286075D01*
X159040915Y-59287257D01*
X158968567Y-59311231D01*
X158962020Y-59314285D01*
X158962003Y-59314248D01*
X158954896Y-59317689D01*
X158954914Y-59317724D01*
X158948464Y-59320963D01*
X158884770Y-59362854D01*
X158881733Y-59364788D01*
X158816857Y-59404806D01*
X158811184Y-59409292D01*
X158811159Y-59409261D01*
X158805044Y-59414243D01*
X158805069Y-59414273D01*
X158799543Y-59418909D01*
X158747229Y-59474358D01*
X158744717Y-59476943D01*
X158176328Y-60045332D01*
X158115005Y-60078817D01*
X158068239Y-60079960D01*
X157987569Y-60066500D01*
X157762431Y-60066500D01*
X157540362Y-60103556D01*
X157327430Y-60176656D01*
X157327419Y-60176661D01*
X157129427Y-60283808D01*
X157129422Y-60283812D01*
X156951761Y-60422092D01*
X156951756Y-60422097D01*
X156799284Y-60587723D01*
X156799276Y-60587734D01*
X156708808Y-60726206D01*
X156655662Y-60771562D01*
X156586431Y-60780986D01*
X156523095Y-60751484D01*
X156501192Y-60726206D01*
X156429084Y-60615837D01*
X156410722Y-60587732D01*
X156410719Y-60587729D01*
X156410715Y-60587723D01*
X156258243Y-60422097D01*
X156258238Y-60422092D01*
X156099647Y-60298655D01*
X156080576Y-60283811D01*
X156080575Y-60283810D01*
X156080572Y-60283808D01*
X155882580Y-60176661D01*
X155882577Y-60176659D01*
X155882574Y-60176658D01*
X155882571Y-60176657D01*
X155882569Y-60176656D01*
X155669637Y-60103556D01*
X155447569Y-60066500D01*
X155222431Y-60066500D01*
X155000362Y-60103556D01*
X154787430Y-60176656D01*
X154787419Y-60176661D01*
X154589427Y-60283808D01*
X154589422Y-60283812D01*
X154411761Y-60422092D01*
X154411756Y-60422097D01*
X154259284Y-60587723D01*
X154259276Y-60587734D01*
X154165251Y-60731650D01*
X154112105Y-60777007D01*
X154042873Y-60786430D01*
X153979538Y-60756928D01*
X153959868Y-60734951D01*
X153833113Y-60553926D01*
X153833108Y-60553920D01*
X153666082Y-60386894D01*
X153472578Y-60251399D01*
X153258492Y-60151570D01*
X153258486Y-60151567D01*
X153045000Y-60094364D01*
X153045000Y-60989498D01*
X152937315Y-60940320D01*
X152830763Y-60925000D01*
X152759237Y-60925000D01*
X152652685Y-60940320D01*
X152545000Y-60989498D01*
X152545000Y-60094364D01*
X152544999Y-60094364D01*
X152331513Y-60151567D01*
X152331507Y-60151570D01*
X152117422Y-60251399D01*
X152117420Y-60251400D01*
X151923926Y-60386886D01*
X151923920Y-60386891D01*
X151756891Y-60553920D01*
X151756886Y-60553926D01*
X151621400Y-60747420D01*
X151621399Y-60747422D01*
X151521570Y-60961507D01*
X151521567Y-60961513D01*
X151464364Y-61174999D01*
X151464364Y-61175000D01*
X152361314Y-61175000D01*
X152335507Y-61215156D01*
X152295000Y-61353111D01*
X152295000Y-61496889D01*
X152335507Y-61634844D01*
X152361314Y-61675000D01*
X151464364Y-61675000D01*
X151521567Y-61888486D01*
X151521570Y-61888492D01*
X151621399Y-62102578D01*
X151756894Y-62296082D01*
X151923917Y-62463105D01*
X152104802Y-62589763D01*
X152148427Y-62644340D01*
X152155619Y-62713839D01*
X152124097Y-62776193D01*
X152092697Y-62800392D01*
X152049427Y-62823809D01*
X152049422Y-62823812D01*
X151871761Y-62962092D01*
X151871756Y-62962097D01*
X151719284Y-63127723D01*
X151719276Y-63127734D01*
X151622852Y-63275322D01*
X151569706Y-63320679D01*
X151519044Y-63331500D01*
X145453767Y-63331500D01*
X145386728Y-63311815D01*
X145366086Y-63295181D01*
X143864819Y-61793914D01*
X143831334Y-61732591D01*
X143828500Y-61706233D01*
X143828500Y-60905000D01*
X144105000Y-60905000D01*
X144105000Y-60946721D01*
X144115431Y-61033596D01*
X144169950Y-61171846D01*
X144259743Y-61290256D01*
X144378153Y-61380049D01*
X144516403Y-61434568D01*
X144603278Y-61445000D01*
X145210000Y-61445000D01*
X145210000Y-60905000D01*
X145710000Y-60905000D01*
X145710000Y-61445000D01*
X146316722Y-61445000D01*
X146403596Y-61434568D01*
X146541846Y-61380049D01*
X146660256Y-61290256D01*
X146750049Y-61171846D01*
X146804568Y-61033596D01*
X146815000Y-60946721D01*
X146815000Y-60905000D01*
X145710000Y-60905000D01*
X145210000Y-60905000D01*
X144105000Y-60905000D01*
X143828500Y-60905000D01*
X143828500Y-57819094D01*
X143848185Y-57752055D01*
X143864817Y-57731415D01*
X143873649Y-57722583D01*
X143887016Y-57709215D01*
X143948336Y-57675730D01*
X144018028Y-57680713D01*
X144073962Y-57722583D01*
X144098381Y-57788047D01*
X144097813Y-57811674D01*
X144096645Y-57821405D01*
X144096500Y-57822614D01*
X144096500Y-58407386D01*
X144103147Y-58462735D01*
X144107097Y-58495631D01*
X144162470Y-58636046D01*
X144162470Y-58636047D01*
X144192066Y-58675076D01*
X144216888Y-58740388D01*
X144202459Y-58808752D01*
X144192066Y-58824924D01*
X144162470Y-58863952D01*
X144162470Y-58863953D01*
X144107097Y-59004368D01*
X144107097Y-59004369D01*
X144107097Y-59004370D01*
X144096500Y-59092614D01*
X144096500Y-59677386D01*
X144101670Y-59720435D01*
X144107097Y-59765631D01*
X144162470Y-59906046D01*
X144162471Y-59906048D01*
X144197398Y-59952107D01*
X144222221Y-60017419D01*
X144207793Y-60085783D01*
X144197400Y-60101955D01*
X144169950Y-60138154D01*
X144169948Y-60138158D01*
X144115432Y-60276400D01*
X144105000Y-60363278D01*
X144105000Y-60405000D01*
X146814999Y-60405000D01*
X146836865Y-60383134D01*
X146898188Y-60349648D01*
X146967880Y-60354632D01*
X147012227Y-60383131D01*
X147037913Y-60408817D01*
X147047820Y-60421182D01*
X147048029Y-60421010D01*
X147052997Y-60427015D01*
X147080151Y-60452515D01*
X147113652Y-60506016D01*
X147139118Y-60587737D01*
X147139173Y-60587913D01*
X147223441Y-60727309D01*
X147228186Y-60735158D01*
X147349841Y-60856813D01*
X147349843Y-60856814D01*
X147349845Y-60856816D01*
X147497087Y-60945827D01*
X147661351Y-60997013D01*
X147732735Y-61003500D01*
X148247264Y-61003499D01*
X148247272Y-61003499D01*
X148318645Y-60997014D01*
X148318648Y-60997013D01*
X148318649Y-60997013D01*
X148482913Y-60945827D01*
X148630155Y-60856816D01*
X148678661Y-60808310D01*
X148727319Y-60759653D01*
X148788642Y-60726168D01*
X148858334Y-60731152D01*
X148902681Y-60759653D01*
X148999841Y-60856813D01*
X148999843Y-60856814D01*
X148999845Y-60856816D01*
X149147087Y-60945827D01*
X149311351Y-60997013D01*
X149382735Y-61003500D01*
X149897264Y-61003499D01*
X149897272Y-61003499D01*
X149968645Y-60997014D01*
X149968648Y-60997013D01*
X149968649Y-60997013D01*
X150132913Y-60945827D01*
X150280155Y-60856816D01*
X150401816Y-60735155D01*
X150490827Y-60587913D01*
X150542013Y-60423649D01*
X150548500Y-60352265D01*
X150548499Y-60058764D01*
X150568183Y-59991726D01*
X150584813Y-59971089D01*
X151108815Y-59447087D01*
X151121180Y-59437183D01*
X151121006Y-59436973D01*
X151127012Y-59432003D01*
X151127018Y-59432000D01*
X151173706Y-59382280D01*
X151176355Y-59379547D01*
X151196135Y-59359769D01*
X151198670Y-59356499D01*
X151206259Y-59347615D01*
X151212345Y-59341134D01*
X151236586Y-59315321D01*
X151246420Y-59297430D01*
X151257098Y-59281174D01*
X151269614Y-59265040D01*
X151287209Y-59224378D01*
X151292350Y-59213885D01*
X151292885Y-59212913D01*
X151313695Y-59175060D01*
X151318774Y-59155274D01*
X151325072Y-59136882D01*
X151333181Y-59118145D01*
X151340113Y-59074372D01*
X151342478Y-59062953D01*
X151353500Y-59020030D01*
X151353500Y-58999615D01*
X151355027Y-58980214D01*
X151358220Y-58960057D01*
X151354050Y-58915942D01*
X151353500Y-58904273D01*
X151353500Y-54397798D01*
X151356487Y-54370746D01*
X151357709Y-54365281D01*
X151352665Y-54204796D01*
X151352665Y-54204794D01*
X151343376Y-54172826D01*
X151339428Y-54153760D01*
X151338474Y-54146203D01*
X151329990Y-54124775D01*
X151326208Y-54113734D01*
X151307869Y-54050607D01*
X151290916Y-54021942D01*
X151282361Y-54004478D01*
X151279552Y-53997383D01*
X151279549Y-53997379D01*
X151279548Y-53997376D01*
X151266002Y-53978732D01*
X151259591Y-53968974D01*
X151226135Y-53912402D01*
X151202585Y-53888852D01*
X151189956Y-53874065D01*
X151185472Y-53867893D01*
X151185469Y-53867891D01*
X151185469Y-53867890D01*
X151167709Y-53853198D01*
X151159068Y-53845335D01*
X145513658Y-48199925D01*
X145503732Y-48187535D01*
X145503525Y-48187707D01*
X145498552Y-48181696D01*
X145448718Y-48134899D01*
X145445918Y-48132185D01*
X145426098Y-48112365D01*
X145426094Y-48112361D01*
X145422796Y-48109803D01*
X145413915Y-48102217D01*
X145381509Y-48071785D01*
X145381501Y-48071780D01*
X145363540Y-48061906D01*
X145347274Y-48051222D01*
X145331064Y-48038648D01*
X145290252Y-48020987D01*
X145279763Y-48015849D01*
X145240805Y-47994432D01*
X145240804Y-47994431D01*
X145240803Y-47994431D01*
X145220937Y-47989330D01*
X145202538Y-47983030D01*
X145183709Y-47974883D01*
X145183708Y-47974882D01*
X145139788Y-47967926D01*
X145128352Y-47965558D01*
X145085282Y-47954500D01*
X145064774Y-47954500D01*
X145045376Y-47952973D01*
X145034769Y-47951293D01*
X145025122Y-47949765D01*
X145025121Y-47949764D01*
X144980848Y-47953950D01*
X144969179Y-47954500D01*
X124133852Y-47954500D01*
X124118069Y-47952757D01*
X124118044Y-47953025D01*
X124110282Y-47952291D01*
X124110281Y-47952291D01*
X124041938Y-47954439D01*
X124038043Y-47954500D01*
X124010017Y-47954500D01*
X124010013Y-47954500D01*
X124010001Y-47954501D01*
X124005876Y-47955022D01*
X123994247Y-47955937D01*
X123949799Y-47957334D01*
X123949794Y-47957335D01*
X123930093Y-47963058D01*
X123911054Y-47967000D01*
X123890711Y-47969571D01*
X123890703Y-47969572D01*
X123890701Y-47969573D01*
X123890699Y-47969573D01*
X123890693Y-47969575D01*
X123849359Y-47985939D01*
X123838319Y-47989719D01*
X123795609Y-48002129D01*
X123783110Y-48009521D01*
X123777948Y-48012573D01*
X123760483Y-48021129D01*
X123741415Y-48028678D01*
X123741414Y-48028679D01*
X123705433Y-48054820D01*
X123695675Y-48061230D01*
X123657398Y-48083868D01*
X123642902Y-48098364D01*
X123628112Y-48110996D01*
X123611516Y-48123054D01*
X123611513Y-48123057D01*
X123583159Y-48157330D01*
X123575298Y-48165968D01*
X122191086Y-49550181D01*
X122129763Y-49583666D01*
X122103405Y-49586500D01*
X122049513Y-49586500D01*
X121862714Y-49626205D01*
X121688243Y-49703884D01*
X121582885Y-49780432D01*
X121517079Y-49803912D01*
X121449025Y-49788086D01*
X121437115Y-49780432D01*
X121331756Y-49703884D01*
X121279740Y-49680725D01*
X121157288Y-49626206D01*
X121157286Y-49626205D01*
X120970487Y-49586500D01*
X120779513Y-49586500D01*
X120592714Y-49626205D01*
X120418243Y-49703884D01*
X120312885Y-49780432D01*
X120247079Y-49803912D01*
X120179025Y-49788086D01*
X120167115Y-49780432D01*
X120061756Y-49703884D01*
X120009740Y-49680725D01*
X119887288Y-49626206D01*
X119887286Y-49626205D01*
X119700487Y-49586500D01*
X119509513Y-49586500D01*
X119322714Y-49626205D01*
X119148246Y-49703883D01*
X118993745Y-49816135D01*
X118865959Y-49958057D01*
X118770473Y-50123443D01*
X118770470Y-50123450D01*
X118711459Y-50305068D01*
X118711458Y-50305072D01*
X118691496Y-50495000D01*
X118711458Y-50684928D01*
X118711459Y-50684931D01*
X118770470Y-50866549D01*
X118770472Y-50866553D01*
X118770473Y-50866556D01*
X118777817Y-50879277D01*
X118777952Y-50879510D01*
X118794422Y-50947410D01*
X118771569Y-51013436D01*
X118716646Y-51056626D01*
X118647093Y-51063266D01*
X118614911Y-51052317D01*
X118597562Y-51043604D01*
X118590781Y-51041136D01*
X118590794Y-51041097D01*
X118583340Y-51038506D01*
X118583327Y-51038546D01*
X118576471Y-51036274D01*
X118501841Y-51020864D01*
X118498322Y-51020084D01*
X118424120Y-51002499D01*
X118416948Y-51001661D01*
X118416952Y-51001619D01*
X118409106Y-51000818D01*
X118409103Y-51000860D01*
X118401913Y-51000230D01*
X118325711Y-51002448D01*
X118322105Y-51002500D01*
X116494589Y-51002500D01*
X116476620Y-51001191D01*
X116452325Y-50997632D01*
X116402096Y-51002028D01*
X116391287Y-51002500D01*
X116385580Y-51002500D01*
X116354290Y-51006157D01*
X116350707Y-51006523D01*
X116274755Y-51013169D01*
X116267688Y-51014628D01*
X116267679Y-51014588D01*
X116259970Y-51016297D01*
X116259980Y-51016337D01*
X116252960Y-51018000D01*
X116181317Y-51044075D01*
X116177915Y-51045257D01*
X116105567Y-51069231D01*
X116099020Y-51072285D01*
X116099003Y-51072248D01*
X116091896Y-51075689D01*
X116091914Y-51075724D01*
X116085464Y-51078963D01*
X116021770Y-51120854D01*
X116018733Y-51122788D01*
X115953857Y-51162806D01*
X115948184Y-51167292D01*
X115948159Y-51167261D01*
X115942044Y-51172243D01*
X115942069Y-51172273D01*
X115936543Y-51176909D01*
X115884229Y-51232358D01*
X115881717Y-51234943D01*
X115554157Y-51562503D01*
X115492834Y-51595988D01*
X115429588Y-51593208D01*
X115348649Y-51567987D01*
X115277265Y-51561500D01*
X115277262Y-51561500D01*
X113862727Y-51561500D01*
X113791355Y-51567985D01*
X113791344Y-51567988D01*
X113627090Y-51619171D01*
X113479841Y-51708186D01*
X113358186Y-51829841D01*
X113269173Y-51977086D01*
X113217986Y-52141354D01*
X113211500Y-52212737D01*
X113211500Y-52727272D01*
X113217985Y-52798645D01*
X113217988Y-52798655D01*
X113269171Y-52962910D01*
X113269173Y-52962914D01*
X113310242Y-53030851D01*
X113328078Y-53098406D01*
X113310242Y-53159149D01*
X113269174Y-53227084D01*
X113217986Y-53391354D01*
X113211500Y-53462737D01*
X113211500Y-53977272D01*
X113217985Y-54048645D01*
X113217988Y-54048655D01*
X113269171Y-54212910D01*
X113269173Y-54212914D01*
X113310242Y-54280851D01*
X113328078Y-54348406D01*
X113310242Y-54409149D01*
X113269174Y-54477084D01*
X113217986Y-54641354D01*
X113211500Y-54712737D01*
X113211500Y-55227272D01*
X113217985Y-55298645D01*
X113217988Y-55298655D01*
X113269171Y-55462910D01*
X113269173Y-55462914D01*
X113310242Y-55530851D01*
X113328078Y-55598406D01*
X113310242Y-55659149D01*
X113269174Y-55727084D01*
X113217986Y-55891354D01*
X113211500Y-55962737D01*
X113211500Y-56477272D01*
X113217985Y-56548645D01*
X113217988Y-56548655D01*
X113269171Y-56712910D01*
X113269173Y-56712914D01*
X113310242Y-56780851D01*
X113328078Y-56848406D01*
X113310242Y-56909149D01*
X113269174Y-56977084D01*
X113269173Y-56977086D01*
X113269173Y-56977087D01*
X113263946Y-56993861D01*
X113217986Y-57141354D01*
X113211500Y-57212737D01*
X113211500Y-57727272D01*
X113217985Y-57798645D01*
X113217988Y-57798655D01*
X113269171Y-57962910D01*
X113269173Y-57962914D01*
X113310242Y-58030851D01*
X113328078Y-58098406D01*
X113310242Y-58159149D01*
X113269174Y-58227084D01*
X113217986Y-58391354D01*
X113211500Y-58462737D01*
X113211500Y-58977272D01*
X113217985Y-59048645D01*
X113217988Y-59048655D01*
X113269171Y-59212910D01*
X113269173Y-59212914D01*
X113310242Y-59280851D01*
X113328078Y-59348406D01*
X113310242Y-59409149D01*
X113269174Y-59477084D01*
X113217986Y-59641354D01*
X113211500Y-59712737D01*
X113211500Y-60227272D01*
X113217985Y-60298645D01*
X113217988Y-60298655D01*
X113269171Y-60462909D01*
X113269172Y-60462911D01*
X113269173Y-60462913D01*
X113313981Y-60537035D01*
X113315209Y-60539065D01*
X113333045Y-60606620D01*
X113315209Y-60667364D01*
X113276982Y-60730599D01*
X113276980Y-60730603D01*
X113226409Y-60892893D01*
X113220000Y-60963427D01*
X113220000Y-60970000D01*
X114696000Y-60970000D01*
X114763039Y-60989685D01*
X114808794Y-61042489D01*
X114820000Y-61094000D01*
X114820000Y-62119999D01*
X115276581Y-62119999D01*
X115347102Y-62113591D01*
X115347107Y-62113590D01*
X115509396Y-62063018D01*
X115654877Y-61975072D01*
X115654878Y-61975071D01*
X115709819Y-61920131D01*
X115771142Y-61886646D01*
X115840834Y-61891630D01*
X115896767Y-61933502D01*
X115921184Y-61998966D01*
X115921500Y-62007812D01*
X115921500Y-62118404D01*
X115901815Y-62185443D01*
X115885181Y-62206085D01*
X113783957Y-64307309D01*
X113722634Y-64340794D01*
X113652942Y-64335810D01*
X113597009Y-64293938D01*
X113572592Y-64228474D01*
X113577615Y-64183633D01*
X113588546Y-64147601D01*
X113603500Y-63995775D01*
X113603499Y-62844226D01*
X113588546Y-62692399D01*
X113529450Y-62497583D01*
X113527097Y-62493181D01*
X113433485Y-62318045D01*
X113433483Y-62318043D01*
X113433482Y-62318040D01*
X113365109Y-62234727D01*
X113304331Y-62160668D01*
X113161184Y-62043191D01*
X113146960Y-62031518D01*
X113146958Y-62031517D01*
X113146954Y-62031514D01*
X112967424Y-61935553D01*
X112967421Y-61935552D01*
X112967420Y-61935551D01*
X112967417Y-61935550D01*
X112772601Y-61876454D01*
X112772599Y-61876453D01*
X112772601Y-61876453D01*
X112663682Y-61865726D01*
X112620775Y-61861500D01*
X112620771Y-61861500D01*
X110569229Y-61861500D01*
X110417401Y-61876453D01*
X110338360Y-61900430D01*
X110222583Y-61935550D01*
X110222580Y-61935551D01*
X110222578Y-61935552D01*
X110222575Y-61935553D01*
X110043045Y-62031514D01*
X110043038Y-62031519D01*
X109885668Y-62160668D01*
X109756519Y-62318038D01*
X109756514Y-62318045D01*
X109660553Y-62497575D01*
X109660552Y-62497578D01*
X109660551Y-62497580D01*
X109660550Y-62497583D01*
X109651509Y-62527387D01*
X109601453Y-62692400D01*
X109591575Y-62792697D01*
X109588199Y-62826981D01*
X109586500Y-62844228D01*
X109586500Y-63995770D01*
X109601453Y-64147598D01*
X109601454Y-64147600D01*
X109601454Y-64147601D01*
X109660550Y-64342417D01*
X109660551Y-64342420D01*
X109660552Y-64342421D01*
X109660553Y-64342424D01*
X109756514Y-64521954D01*
X109756519Y-64521961D01*
X109885668Y-64679331D01*
X109991885Y-64766500D01*
X110043040Y-64808482D01*
X110043043Y-64808483D01*
X110043045Y-64808485D01*
X110222575Y-64904446D01*
X110222576Y-64904446D01*
X110222583Y-64904450D01*
X110417399Y-64963546D01*
X110417398Y-64963546D01*
X110428125Y-64964602D01*
X110569225Y-64978500D01*
X112620774Y-64978499D01*
X112772601Y-64963546D01*
X112808632Y-64952615D01*
X112878499Y-64951992D01*
X112937612Y-64989240D01*
X112967203Y-65052533D01*
X112957878Y-65121778D01*
X112932309Y-65158957D01*
X109054921Y-69036344D01*
X109042531Y-69046272D01*
X109042702Y-69046479D01*
X109036695Y-69051448D01*
X108989898Y-69101281D01*
X108987190Y-69104075D01*
X108967366Y-69123898D01*
X108967365Y-69123900D01*
X108964797Y-69127211D01*
X108957221Y-69136080D01*
X108926782Y-69168495D01*
X108926781Y-69168496D01*
X108916900Y-69186468D01*
X108906225Y-69202719D01*
X108893652Y-69218929D01*
X108893650Y-69218933D01*
X108875987Y-69259748D01*
X108870850Y-69270233D01*
X108849430Y-69309197D01*
X108844329Y-69329064D01*
X108838030Y-69347462D01*
X108829884Y-69366287D01*
X108829881Y-69366296D01*
X108822926Y-69410212D01*
X108820557Y-69421650D01*
X108809500Y-69464710D01*
X108809500Y-69485225D01*
X108807973Y-69504624D01*
X108804765Y-69524877D01*
X108808950Y-69569149D01*
X108809500Y-69580819D01*
X108809500Y-77716151D01*
X108807758Y-77731927D01*
X108808026Y-77731953D01*
X108807292Y-77739718D01*
X108809439Y-77808043D01*
X108809500Y-77811938D01*
X108809500Y-77839982D01*
X108810022Y-77844118D01*
X108810937Y-77855749D01*
X108812334Y-77900203D01*
X108812335Y-77900207D01*
X108818057Y-77919905D01*
X108822000Y-77938946D01*
X108824571Y-77959288D01*
X108824574Y-77959303D01*
X108840941Y-78000644D01*
X108844722Y-78011687D01*
X108857130Y-78054391D01*
X108867570Y-78072044D01*
X108876128Y-78089514D01*
X108883679Y-78108585D01*
X108883683Y-78108592D01*
X108909824Y-78144572D01*
X108916231Y-78154325D01*
X108938866Y-78192598D01*
X108938870Y-78192602D01*
X108953364Y-78207096D01*
X108965996Y-78221885D01*
X108978058Y-78238487D01*
X109012323Y-78266833D01*
X109020964Y-78274696D01*
X109571342Y-78825075D01*
X109581267Y-78837463D01*
X109581474Y-78837292D01*
X109586444Y-78843300D01*
X109636281Y-78890100D01*
X109639078Y-78892811D01*
X109658906Y-78912639D01*
X109662190Y-78915186D01*
X109671081Y-78922779D01*
X109703495Y-78953218D01*
X109721463Y-78963096D01*
X109737720Y-78973774D01*
X109741646Y-78976819D01*
X109753934Y-78986350D01*
X109753937Y-78986351D01*
X109753938Y-78986352D01*
X109794738Y-79004007D01*
X109805231Y-79009147D01*
X109825569Y-79020328D01*
X109871946Y-79064838D01*
X109878179Y-79075149D01*
X109878184Y-79075155D01*
X109999845Y-79196816D01*
X110019648Y-79208787D01*
X110066836Y-79260313D01*
X110079500Y-79314905D01*
X110079500Y-80278880D01*
X110078148Y-80293186D01*
X110077725Y-80299906D01*
X110079255Y-80324224D01*
X110079500Y-80332011D01*
X110079500Y-80456614D01*
X110059815Y-80523653D01*
X110007011Y-80569408D01*
X109937853Y-80579352D01*
X109900047Y-80567523D01*
X108245186Y-79740093D01*
X108194028Y-79692506D01*
X108176669Y-79626546D01*
X108177158Y-79603551D01*
X108562978Y-61470000D01*
X113220001Y-61470000D01*
X113220001Y-61476582D01*
X113226408Y-61547102D01*
X113226409Y-61547107D01*
X113276981Y-61709396D01*
X113364927Y-61854877D01*
X113485122Y-61975072D01*
X113630604Y-62063019D01*
X113630603Y-62063019D01*
X113792894Y-62113590D01*
X113792893Y-62113590D01*
X113863427Y-62119999D01*
X114319999Y-62119999D01*
X114320000Y-62119998D01*
X114320000Y-61470000D01*
X113220001Y-61470000D01*
X108562978Y-61470000D01*
X108792217Y-50695770D01*
X109511500Y-50695770D01*
X109526453Y-50847598D01*
X109526454Y-50847601D01*
X109585550Y-51042417D01*
X109585551Y-51042420D01*
X109585552Y-51042421D01*
X109585553Y-51042424D01*
X109681514Y-51221954D01*
X109681517Y-51221958D01*
X109681518Y-51221960D01*
X109691126Y-51233667D01*
X109810668Y-51379331D01*
X109864105Y-51423185D01*
X109968040Y-51508482D01*
X109968043Y-51508483D01*
X109968045Y-51508485D01*
X110147575Y-51604446D01*
X110147576Y-51604446D01*
X110147583Y-51604450D01*
X110342399Y-51663546D01*
X110342398Y-51663546D01*
X110353125Y-51664602D01*
X110494225Y-51678500D01*
X112545774Y-51678499D01*
X112697601Y-51663546D01*
X112892417Y-51604450D01*
X113071960Y-51508482D01*
X113229331Y-51379331D01*
X113358482Y-51221960D01*
X113454450Y-51042417D01*
X113513546Y-50847601D01*
X113528500Y-50695775D01*
X113528499Y-49544226D01*
X113513546Y-49392399D01*
X113454450Y-49197583D01*
X113454446Y-49197575D01*
X113358485Y-49018045D01*
X113358483Y-49018043D01*
X113358482Y-49018040D01*
X113319204Y-48970180D01*
X113229331Y-48860668D01*
X113071961Y-48731519D01*
X113071954Y-48731514D01*
X112892424Y-48635553D01*
X112892421Y-48635552D01*
X112892420Y-48635551D01*
X112892417Y-48635550D01*
X112697601Y-48576454D01*
X112697599Y-48576453D01*
X112697601Y-48576453D01*
X112588682Y-48565726D01*
X112545775Y-48561500D01*
X112545771Y-48561500D01*
X110494229Y-48561500D01*
X110342401Y-48576453D01*
X110254987Y-48602969D01*
X110147583Y-48635550D01*
X110147580Y-48635551D01*
X110147578Y-48635552D01*
X110147575Y-48635553D01*
X109968045Y-48731514D01*
X109968038Y-48731519D01*
X109810668Y-48860668D01*
X109681519Y-49018038D01*
X109681514Y-49018045D01*
X109585553Y-49197575D01*
X109585552Y-49197578D01*
X109585551Y-49197580D01*
X109585550Y-49197583D01*
X109561345Y-49277374D01*
X109526453Y-49392400D01*
X109511500Y-49544228D01*
X109511500Y-50695770D01*
X108792217Y-50695770D01*
X108809406Y-49887872D01*
X108822468Y-49835063D01*
X109422719Y-48634561D01*
X109470304Y-48583405D01*
X109491912Y-48573245D01*
X118335000Y-45415000D01*
X118335000Y-36603618D01*
X121649500Y-36603618D01*
X121683610Y-36808034D01*
X121750898Y-37004037D01*
X121750900Y-37004043D01*
X121849534Y-37186302D01*
X121849537Y-37186306D01*
X121976818Y-37349836D01*
X121976821Y-37349840D01*
X122129296Y-37490204D01*
X122302788Y-37603551D01*
X122492572Y-37686798D01*
X122693469Y-37737672D01*
X122762312Y-37743376D01*
X122899994Y-37754786D01*
X122900000Y-37754786D01*
X122900006Y-37754786D01*
X123023918Y-37744517D01*
X123106531Y-37737672D01*
X123307428Y-37686798D01*
X123497212Y-37603551D01*
X123670706Y-37490202D01*
X123823176Y-37349843D01*
X123950465Y-37186303D01*
X124049100Y-37004042D01*
X124116390Y-36808032D01*
X124150500Y-36603619D01*
X124150500Y-36500000D01*
X124150500Y-36499500D01*
X124150500Y-34499901D01*
X124150500Y-34396381D01*
X124116390Y-34191968D01*
X124049100Y-33995958D01*
X123950465Y-33813697D01*
X123950462Y-33813693D01*
X123823181Y-33650163D01*
X123823178Y-33650159D01*
X123670703Y-33509795D01*
X123497211Y-33396448D01*
X123307428Y-33313202D01*
X123106527Y-33262327D01*
X122900006Y-33245214D01*
X122899994Y-33245214D01*
X122693472Y-33262327D01*
X122492571Y-33313202D01*
X122302788Y-33396448D01*
X122129296Y-33509795D01*
X121976821Y-33650159D01*
X121976818Y-33650163D01*
X121849537Y-33813693D01*
X121849534Y-33813697D01*
X121750900Y-33995956D01*
X121750898Y-33995962D01*
X121683610Y-34191965D01*
X121649500Y-34396381D01*
X121649500Y-36603618D01*
X118335000Y-36603618D01*
X118335000Y-34014272D01*
X118348091Y-33958818D01*
X118420652Y-33813697D01*
X118479243Y-33696515D01*
X118956116Y-32742769D01*
X118961001Y-32732998D01*
X118984229Y-32700771D01*
X119568681Y-32116319D01*
X119630004Y-32082834D01*
X119656362Y-32080000D01*
X125925728Y-32080000D01*
X125981182Y-32093091D01*
G37*
%TD.AperFunction*%
%TA.AperFunction,Conductor*%
G36*
X112429206Y-74265185D02*
G01*
X112449848Y-74281819D01*
X112515347Y-74347318D01*
X112548832Y-74408641D01*
X112543848Y-74478333D01*
X112515348Y-74522680D01*
X112418185Y-74619843D01*
X112329173Y-74767086D01*
X112277986Y-74931354D01*
X112271500Y-75002737D01*
X112271500Y-75517272D01*
X112277985Y-75588645D01*
X112277988Y-75588655D01*
X112329171Y-75752909D01*
X112329172Y-75752911D01*
X112329173Y-75752913D01*
X112418184Y-75900155D01*
X112539845Y-76021816D01*
X112559648Y-76033787D01*
X112606836Y-76085313D01*
X112619500Y-76139905D01*
X112619500Y-78351151D01*
X112617758Y-78366927D01*
X112618026Y-78366953D01*
X112617292Y-78374718D01*
X112617292Y-78374719D01*
X112618155Y-78402187D01*
X112619439Y-78443043D01*
X112619500Y-78446938D01*
X112619500Y-78474982D01*
X112620022Y-78479118D01*
X112620937Y-78490749D01*
X112622334Y-78535203D01*
X112622335Y-78535207D01*
X112628057Y-78554905D01*
X112632000Y-78573946D01*
X112634571Y-78594288D01*
X112634574Y-78594303D01*
X112650941Y-78635644D01*
X112654722Y-78646687D01*
X112667130Y-78689391D01*
X112667131Y-78689393D01*
X112668829Y-78692265D01*
X112677570Y-78707044D01*
X112686128Y-78724514D01*
X112693679Y-78743585D01*
X112693683Y-78743592D01*
X112719824Y-78779572D01*
X112726231Y-78789325D01*
X112748866Y-78827598D01*
X112748870Y-78827602D01*
X112763363Y-78842095D01*
X112776001Y-78856892D01*
X112788057Y-78873487D01*
X112822325Y-78901835D01*
X112830966Y-78909698D01*
X113061339Y-79140071D01*
X113071269Y-79152465D01*
X113071476Y-79152295D01*
X113076443Y-79158300D01*
X113126296Y-79205114D01*
X113129096Y-79207828D01*
X113148904Y-79227637D01*
X113152184Y-79230181D01*
X113161066Y-79237766D01*
X113193494Y-79268217D01*
X113211470Y-79278099D01*
X113227716Y-79288770D01*
X113243933Y-79301349D01*
X113284756Y-79319014D01*
X113295223Y-79324143D01*
X113310168Y-79332359D01*
X113334192Y-79345567D01*
X113334194Y-79345567D01*
X113334197Y-79345569D01*
X113354066Y-79350670D01*
X113372462Y-79356968D01*
X113391292Y-79365117D01*
X113435219Y-79372073D01*
X113446650Y-79374441D01*
X113489718Y-79385500D01*
X113510226Y-79385500D01*
X113529623Y-79387026D01*
X113549877Y-79390234D01*
X113549878Y-79390235D01*
X113549878Y-79390234D01*
X113549879Y-79390235D01*
X113569397Y-79388389D01*
X113594152Y-79386050D01*
X113605821Y-79385500D01*
X114105377Y-79385500D01*
X114172416Y-79405185D01*
X114193058Y-79421819D01*
X114195687Y-79424448D01*
X114195696Y-79424455D01*
X114201065Y-79427630D01*
X114248751Y-79478697D01*
X114261257Y-79547438D01*
X114234613Y-79612029D01*
X114225632Y-79622042D01*
X114215716Y-79631957D01*
X114215716Y-79631958D01*
X114215715Y-79631960D01*
X114206070Y-79647596D01*
X114154125Y-79694321D01*
X114100532Y-79706500D01*
X111474500Y-79706500D01*
X111407461Y-79686815D01*
X111361706Y-79634011D01*
X111350500Y-79582500D01*
X111350500Y-79314905D01*
X111370185Y-79247866D01*
X111410351Y-79208787D01*
X111430155Y-79196816D01*
X111551816Y-79075155D01*
X111640827Y-78927913D01*
X111692013Y-78763649D01*
X111698500Y-78692265D01*
X111698499Y-78177736D01*
X111698499Y-78177727D01*
X111692014Y-78106354D01*
X111692011Y-78106344D01*
X111640828Y-77942090D01*
X111640827Y-77942089D01*
X111640827Y-77942087D01*
X111551816Y-77794845D01*
X111551814Y-77794843D01*
X111551813Y-77794841D01*
X111448641Y-77691669D01*
X111415156Y-77630346D01*
X111420140Y-77560654D01*
X111448642Y-77516306D01*
X111545071Y-77419878D01*
X111545072Y-77419877D01*
X111633019Y-77274395D01*
X111683590Y-77112106D01*
X111690000Y-77041572D01*
X111690000Y-77035000D01*
X110589000Y-77035000D01*
X110521961Y-77015315D01*
X110476206Y-76962511D01*
X110465000Y-76911000D01*
X110465000Y-75510000D01*
X110965000Y-75510000D01*
X110965000Y-76535000D01*
X111689999Y-76535000D01*
X111689999Y-76528417D01*
X111683591Y-76457897D01*
X111683590Y-76457892D01*
X111633018Y-76295603D01*
X111545072Y-76150122D01*
X111505131Y-76110182D01*
X111471645Y-76048859D01*
X111476629Y-75979168D01*
X111505131Y-75934818D01*
X111545071Y-75894877D01*
X111545072Y-75894877D01*
X111633019Y-75749395D01*
X111683590Y-75587106D01*
X111690000Y-75516572D01*
X111690000Y-75510000D01*
X110965000Y-75510000D01*
X110465000Y-75510000D01*
X110465000Y-75134000D01*
X110484685Y-75066961D01*
X110537489Y-75021206D01*
X110589000Y-75010000D01*
X111689999Y-75010000D01*
X111689999Y-75003417D01*
X111683591Y-74932897D01*
X111683590Y-74932892D01*
X111633018Y-74770603D01*
X111545072Y-74625122D01*
X111448641Y-74528691D01*
X111415156Y-74467368D01*
X111420140Y-74397676D01*
X111448637Y-74353333D01*
X111520154Y-74281816D01*
X111581476Y-74248334D01*
X111607833Y-74245500D01*
X112362167Y-74245500D01*
X112429206Y-74265185D01*
G37*
%TD.AperFunction*%
%TA.AperFunction,Conductor*%
G36*
X162684840Y-60167185D02*
G01*
X162705482Y-60183819D01*
X163101181Y-60579518D01*
X163134666Y-60640841D01*
X163137500Y-60667199D01*
X163137500Y-63132800D01*
X163117815Y-63199839D01*
X163101181Y-63220481D01*
X162225481Y-64096181D01*
X162164158Y-64129666D01*
X162137800Y-64132500D01*
X161668834Y-64132500D01*
X161601795Y-64112815D01*
X161556040Y-64060011D01*
X161546096Y-63990853D01*
X161575121Y-63927297D01*
X161581153Y-63920819D01*
X161616812Y-63885159D01*
X161616813Y-63885158D01*
X161616816Y-63885155D01*
X161705827Y-63737913D01*
X161757013Y-63573649D01*
X161763500Y-63502265D01*
X161763499Y-62987736D01*
X161763499Y-62987727D01*
X161757014Y-62916354D01*
X161757011Y-62916344D01*
X161705828Y-62752090D01*
X161705827Y-62752089D01*
X161705827Y-62752087D01*
X161616816Y-62604845D01*
X161616814Y-62604843D01*
X161616813Y-62604841D01*
X161498819Y-62486847D01*
X161465334Y-62425524D01*
X161470318Y-62355832D01*
X161498819Y-62311484D01*
X161575576Y-62234727D01*
X161664542Y-62090492D01*
X161664547Y-62090481D01*
X161717855Y-61929606D01*
X161727999Y-61830322D01*
X161728000Y-61830309D01*
X161728000Y-61807000D01*
X159778001Y-61807000D01*
X159778001Y-61830322D01*
X159788174Y-61929898D01*
X159775404Y-61998591D01*
X159727524Y-62049475D01*
X159664816Y-62066500D01*
X159266853Y-62066500D01*
X159199814Y-62046815D01*
X159154059Y-61994011D01*
X159144115Y-61924853D01*
X159153295Y-61892695D01*
X159164296Y-61867616D01*
X159219564Y-61649368D01*
X159220768Y-61634844D01*
X159238156Y-61425005D01*
X159238156Y-61424994D01*
X159221107Y-61219254D01*
X159235188Y-61150818D01*
X159256995Y-61121340D01*
X159572520Y-60805817D01*
X159633842Y-60772334D01*
X159660200Y-60769500D01*
X159775957Y-60769500D01*
X159842996Y-60789185D01*
X159888751Y-60841989D01*
X159898695Y-60911147D01*
X159881496Y-60958597D01*
X159841454Y-61023513D01*
X159841452Y-61023518D01*
X159788144Y-61184393D01*
X159778000Y-61283677D01*
X159778000Y-61307000D01*
X161727999Y-61307000D01*
X161727999Y-61283692D01*
X161727998Y-61283677D01*
X161717855Y-61184392D01*
X161664547Y-61023518D01*
X161664542Y-61023507D01*
X161614493Y-60942366D01*
X161596052Y-60874974D01*
X161616974Y-60808310D01*
X161670616Y-60763541D01*
X161681030Y-60759562D01*
X161681866Y-60759285D01*
X161698016Y-60755706D01*
X161698007Y-60755666D01*
X161705033Y-60754000D01*
X161705036Y-60753998D01*
X161705042Y-60753998D01*
X161776757Y-60727895D01*
X161780012Y-60726764D01*
X161852440Y-60702765D01*
X161852446Y-60702761D01*
X161858988Y-60699711D01*
X161859006Y-60699750D01*
X161866102Y-60696315D01*
X161866083Y-60696276D01*
X161872535Y-60693035D01*
X161872539Y-60693034D01*
X161936275Y-60651113D01*
X161939206Y-60649245D01*
X162004149Y-60609188D01*
X162004153Y-60609183D01*
X162009813Y-60604709D01*
X162009840Y-60604743D01*
X162015954Y-60599763D01*
X162015927Y-60599730D01*
X162021457Y-60595088D01*
X162021462Y-60595085D01*
X162073820Y-60539587D01*
X162076231Y-60537104D01*
X162429520Y-60183817D01*
X162490842Y-60150334D01*
X162517200Y-60147500D01*
X162617801Y-60147500D01*
X162684840Y-60167185D01*
G37*
%TD.AperFunction*%
%TA.AperFunction,Conductor*%
G36*
X144122445Y-49880185D02*
G01*
X144143087Y-49896819D01*
X145852586Y-51606319D01*
X145886071Y-51667642D01*
X145881087Y-51737334D01*
X145839215Y-51793267D01*
X145773751Y-51817684D01*
X145764905Y-51818000D01*
X145763000Y-51818000D01*
X145763000Y-52518000D01*
X146487999Y-52518000D01*
X146497599Y-52508399D01*
X146507684Y-52474055D01*
X146560488Y-52428300D01*
X146629646Y-52418356D01*
X146693202Y-52447381D01*
X146699680Y-52453413D01*
X147123897Y-52877631D01*
X147123901Y-52877634D01*
X147123906Y-52877639D01*
X147130363Y-52882648D01*
X147142036Y-52892940D01*
X148970181Y-54721085D01*
X149003666Y-54782408D01*
X149006500Y-54808766D01*
X149006500Y-57220166D01*
X148986815Y-57287205D01*
X148970181Y-57307847D01*
X148902681Y-57375347D01*
X148841358Y-57408832D01*
X148771666Y-57403848D01*
X148727319Y-57375347D01*
X148630158Y-57278186D01*
X148560979Y-57236366D01*
X148482913Y-57189173D01*
X148318649Y-57137987D01*
X148318647Y-57137986D01*
X148318645Y-57137986D01*
X148268667Y-57133444D01*
X148247265Y-57131500D01*
X148247262Y-57131500D01*
X147732727Y-57131500D01*
X147661354Y-57137985D01*
X147661344Y-57137988D01*
X147497090Y-57189171D01*
X147349843Y-57278185D01*
X147228181Y-57399848D01*
X147215002Y-57421650D01*
X147163474Y-57468837D01*
X147108885Y-57481500D01*
X146894193Y-57481500D01*
X146827154Y-57461815D01*
X146781399Y-57409011D01*
X146771455Y-57339853D01*
X146778839Y-57312009D01*
X146786243Y-57293233D01*
X146812903Y-57225630D01*
X146823500Y-57137386D01*
X146823500Y-56552614D01*
X146812903Y-56464370D01*
X146774110Y-56366000D01*
X146757529Y-56323953D01*
X146757528Y-56323951D01*
X146666322Y-56203677D01*
X146546048Y-56112471D01*
X146546046Y-56112470D01*
X146405631Y-56057097D01*
X146393023Y-56055583D01*
X146317386Y-56046500D01*
X146317380Y-56046500D01*
X146219500Y-56046500D01*
X146152461Y-56026815D01*
X146106706Y-55974011D01*
X146095500Y-55922500D01*
X146095500Y-55268925D01*
X146115185Y-55201886D01*
X146154402Y-55163387D01*
X146221040Y-55122285D01*
X146342285Y-55001040D01*
X146432302Y-54855101D01*
X146486236Y-54692336D01*
X146496500Y-54591872D01*
X146496500Y-54044128D01*
X146486236Y-53943664D01*
X146432302Y-53780899D01*
X146432298Y-53780893D01*
X146432297Y-53780890D01*
X146342287Y-53634963D01*
X146342284Y-53634959D01*
X146331996Y-53624671D01*
X146298511Y-53563348D01*
X146303495Y-53493656D01*
X146331996Y-53449309D01*
X146335572Y-53445732D01*
X146335575Y-53445728D01*
X146424542Y-53301492D01*
X146424547Y-53301481D01*
X146477855Y-53140606D01*
X146487999Y-53041322D01*
X146488000Y-53041309D01*
X146488000Y-53018000D01*
X144538001Y-53018000D01*
X144538001Y-53041322D01*
X144548144Y-53140607D01*
X144601452Y-53301481D01*
X144601457Y-53301492D01*
X144690424Y-53445728D01*
X144690427Y-53445732D01*
X144694004Y-53449309D01*
X144727489Y-53510632D01*
X144722505Y-53580324D01*
X144694004Y-53624671D01*
X144683715Y-53634959D01*
X144683712Y-53634963D01*
X144593702Y-53780890D01*
X144593697Y-53780901D01*
X144539764Y-53943663D01*
X144529500Y-54044120D01*
X144529500Y-54591879D01*
X144539764Y-54692336D01*
X144593697Y-54855098D01*
X144593702Y-54855109D01*
X144683712Y-55001036D01*
X144683715Y-55001040D01*
X144788181Y-55105506D01*
X144821666Y-55166829D01*
X144824500Y-55193187D01*
X144824500Y-55922500D01*
X144804815Y-55989539D01*
X144752011Y-56035294D01*
X144700500Y-56046500D01*
X144602614Y-56046500D01*
X144541134Y-56053883D01*
X144514368Y-56057097D01*
X144373953Y-56112470D01*
X144373951Y-56112471D01*
X144279226Y-56184304D01*
X144213915Y-56209127D01*
X144204301Y-56209500D01*
X143936351Y-56209500D01*
X143920576Y-56207758D01*
X143920551Y-56208026D01*
X143912783Y-56207291D01*
X143844470Y-56209439D01*
X143840575Y-56209500D01*
X143812515Y-56209500D01*
X143808371Y-56210023D01*
X143796743Y-56210938D01*
X143752299Y-56212335D01*
X143752289Y-56212337D01*
X143732598Y-56218057D01*
X143713556Y-56222000D01*
X143711627Y-56222244D01*
X143693203Y-56224572D01*
X143693195Y-56224574D01*
X143651845Y-56240945D01*
X143640802Y-56244726D01*
X143598106Y-56257132D01*
X143580450Y-56267573D01*
X143562988Y-56276127D01*
X143543915Y-56283679D01*
X143543906Y-56283684D01*
X143507929Y-56309822D01*
X143498169Y-56316233D01*
X143459902Y-56338864D01*
X143445398Y-56353368D01*
X143430608Y-56366000D01*
X143414015Y-56378055D01*
X143414012Y-56378058D01*
X143385663Y-56412325D01*
X143377803Y-56420962D01*
X142793754Y-57005011D01*
X142789490Y-57008893D01*
X142784914Y-57013765D01*
X142782219Y-57016546D01*
X142717363Y-57081403D01*
X142701778Y-57101494D01*
X142694200Y-57110367D01*
X142678414Y-57127178D01*
X142678409Y-57127184D01*
X142674730Y-57133876D01*
X142664061Y-57150117D01*
X142643648Y-57176434D01*
X142643646Y-57176439D01*
X142617546Y-57236753D01*
X142612410Y-57247239D01*
X142601305Y-57267440D01*
X142599580Y-57274160D01*
X142599407Y-57274832D01*
X142593109Y-57293226D01*
X142579883Y-57323792D01*
X142579882Y-57323794D01*
X142579882Y-57323796D01*
X142569601Y-57388701D01*
X142567234Y-57400133D01*
X142561500Y-57422466D01*
X142561500Y-57430098D01*
X142559973Y-57449497D01*
X142555063Y-57480500D01*
X142554765Y-57482379D01*
X142558268Y-57519431D01*
X142560950Y-57547806D01*
X142561500Y-57559476D01*
X142561500Y-61461233D01*
X142541815Y-61528272D01*
X142489011Y-61574027D01*
X142419853Y-61583971D01*
X142356297Y-61554946D01*
X142349819Y-61548914D01*
X142269819Y-61468914D01*
X142236334Y-61407591D01*
X142233500Y-61381233D01*
X142233500Y-59183631D01*
X142235238Y-59167881D01*
X142234968Y-59167856D01*
X142235701Y-59160094D01*
X142235702Y-59160091D01*
X142233561Y-59091981D01*
X142233500Y-59088085D01*
X142233500Y-59060146D01*
X142233500Y-59060144D01*
X142232981Y-59056041D01*
X142232064Y-59044389D01*
X142230673Y-59000110D01*
X142230672Y-59000108D01*
X142229532Y-58996183D01*
X142224977Y-58980508D01*
X142221032Y-58961457D01*
X142218474Y-58941203D01*
X142213290Y-58928111D01*
X142202162Y-58900004D01*
X142198377Y-58888950D01*
X142186018Y-58846407D01*
X142175622Y-58828829D01*
X142167066Y-58811362D01*
X142166033Y-58808752D01*
X142159552Y-58792383D01*
X142133510Y-58756539D01*
X142127099Y-58746781D01*
X142123318Y-58740388D01*
X142104542Y-58708638D01*
X142090108Y-58694204D01*
X142077471Y-58679409D01*
X142065472Y-58662893D01*
X142065469Y-58662891D01*
X142065469Y-58662890D01*
X142031325Y-58634643D01*
X142022685Y-58626781D01*
X141521305Y-58125400D01*
X141511671Y-58112976D01*
X141510914Y-58113564D01*
X141506129Y-58107395D01*
X141123658Y-57724925D01*
X141113732Y-57712535D01*
X141113525Y-57712707D01*
X141108552Y-57706696D01*
X141058718Y-57659899D01*
X141055918Y-57657185D01*
X141036098Y-57637365D01*
X141036094Y-57637361D01*
X141032796Y-57634803D01*
X141023915Y-57627217D01*
X140991509Y-57596785D01*
X140991501Y-57596780D01*
X140973540Y-57586906D01*
X140957274Y-57576222D01*
X140941064Y-57563648D01*
X140900252Y-57545987D01*
X140889763Y-57540849D01*
X140850805Y-57519432D01*
X140850804Y-57519431D01*
X140850803Y-57519431D01*
X140830937Y-57514330D01*
X140812538Y-57508030D01*
X140793709Y-57499883D01*
X140793708Y-57499882D01*
X140749788Y-57492926D01*
X140738352Y-57490558D01*
X140695282Y-57479500D01*
X140674774Y-57479500D01*
X140655376Y-57477973D01*
X140644769Y-57476293D01*
X140635122Y-57474765D01*
X140635121Y-57474764D01*
X140590848Y-57478950D01*
X140579179Y-57479500D01*
X140033198Y-57479500D01*
X139966159Y-57459815D01*
X139920404Y-57407011D01*
X139910460Y-57337853D01*
X139939485Y-57274297D01*
X139945517Y-57267819D01*
X140114744Y-57098592D01*
X140418504Y-56794832D01*
X140432133Y-56783055D01*
X140451822Y-56768398D01*
X140484229Y-56729774D01*
X140491541Y-56721796D01*
X140495573Y-56717765D01*
X140515136Y-56693021D01*
X140517414Y-56690227D01*
X140521404Y-56685472D01*
X140566396Y-56631853D01*
X140566401Y-56631842D01*
X140570364Y-56625819D01*
X140570401Y-56625843D01*
X140574638Y-56619193D01*
X140574601Y-56619170D01*
X140578393Y-56613021D01*
X140578395Y-56613019D01*
X140610630Y-56543889D01*
X140612145Y-56540758D01*
X140646394Y-56472566D01*
X140646395Y-56472562D01*
X140648866Y-56465774D01*
X140648907Y-56465789D01*
X140651494Y-56458347D01*
X140651452Y-56458334D01*
X140653723Y-56451478D01*
X140653723Y-56451476D01*
X140653725Y-56451473D01*
X140669141Y-56376802D01*
X140669922Y-56373286D01*
X140671622Y-56366116D01*
X140687500Y-56299123D01*
X140687500Y-56299118D01*
X140688338Y-56291950D01*
X140688379Y-56291954D01*
X140689181Y-56284105D01*
X140689140Y-56284102D01*
X140689769Y-56276911D01*
X140687552Y-56200695D01*
X140687500Y-56197089D01*
X140687500Y-55331500D01*
X140707185Y-55264461D01*
X140759989Y-55218706D01*
X140811500Y-55207500D01*
X141028813Y-55207500D01*
X141095852Y-55227185D01*
X141116494Y-55243819D01*
X141121959Y-55249284D01*
X141121963Y-55249287D01*
X141267890Y-55339297D01*
X141267893Y-55339298D01*
X141267899Y-55339302D01*
X141430664Y-55393236D01*
X141531128Y-55403500D01*
X141531133Y-55403500D01*
X142128867Y-55403500D01*
X142128872Y-55403500D01*
X142229336Y-55393236D01*
X142392101Y-55339302D01*
X142538040Y-55249285D01*
X142659285Y-55128040D01*
X142749302Y-54982101D01*
X142803236Y-54819336D01*
X142813500Y-54718872D01*
X142813500Y-54171128D01*
X142803236Y-54070664D01*
X142749302Y-53907899D01*
X142749298Y-53907893D01*
X142749297Y-53907890D01*
X142659287Y-53761963D01*
X142659284Y-53761959D01*
X142648996Y-53751671D01*
X142615511Y-53690348D01*
X142620495Y-53620656D01*
X142648996Y-53576309D01*
X142652572Y-53572732D01*
X142652575Y-53572728D01*
X142741542Y-53428492D01*
X142741547Y-53428481D01*
X142794855Y-53267606D01*
X142804999Y-53168322D01*
X142805000Y-53168309D01*
X142805000Y-53145000D01*
X137045000Y-53145000D01*
X137042084Y-53147916D01*
X136980761Y-53181401D01*
X136911069Y-53176415D01*
X136858938Y-53137389D01*
X136858388Y-53137885D01*
X136855881Y-53135100D01*
X136855136Y-53134543D01*
X136854086Y-53133120D01*
X136854043Y-53133061D01*
X136854040Y-53133056D01*
X136726253Y-52991134D01*
X136571752Y-52878882D01*
X136397288Y-52801206D01*
X136397286Y-52801205D01*
X136210487Y-52761500D01*
X136019513Y-52761500D01*
X135832714Y-52801205D01*
X135658246Y-52878883D01*
X135503745Y-52991135D01*
X135375959Y-53133057D01*
X135280473Y-53298443D01*
X135280470Y-53298450D01*
X135221459Y-53480068D01*
X135221458Y-53480072D01*
X135201496Y-53670000D01*
X135221458Y-53859928D01*
X135221459Y-53859931D01*
X135280470Y-54041549D01*
X135280473Y-54041556D01*
X135375960Y-54206944D01*
X135503747Y-54348866D01*
X135658248Y-54461118D01*
X135832712Y-54538794D01*
X135832714Y-54538794D01*
X135832715Y-54538795D01*
X135889163Y-54550793D01*
X135950645Y-54583985D01*
X135951064Y-54584402D01*
X136305162Y-54938500D01*
X136316938Y-54952125D01*
X136331602Y-54971822D01*
X136331604Y-54971823D01*
X136331605Y-54971825D01*
X136370226Y-55004231D01*
X136378203Y-55011541D01*
X136382236Y-55015574D01*
X136406964Y-55035127D01*
X136409758Y-55037403D01*
X136440600Y-55063282D01*
X136468147Y-55086396D01*
X136468153Y-55086399D01*
X136474178Y-55090362D01*
X136474154Y-55090397D01*
X136480817Y-55094641D01*
X136480839Y-55094606D01*
X136486976Y-55098391D01*
X136486981Y-55098395D01*
X136550545Y-55128036D01*
X136556087Y-55130620D01*
X136559248Y-55132149D01*
X136627434Y-55166394D01*
X136627441Y-55166395D01*
X136634220Y-55168863D01*
X136634205Y-55168903D01*
X136641663Y-55171496D01*
X136641677Y-55171455D01*
X136648519Y-55173722D01*
X136648527Y-55173726D01*
X136723228Y-55189149D01*
X136726737Y-55189928D01*
X136800877Y-55207500D01*
X136800878Y-55207500D01*
X136808051Y-55208339D01*
X136808046Y-55208380D01*
X136815896Y-55209182D01*
X136815900Y-55209141D01*
X136823088Y-55209770D01*
X136823091Y-55209769D01*
X136823092Y-55209770D01*
X136899324Y-55207552D01*
X136902930Y-55207500D01*
X137218813Y-55207500D01*
X137285852Y-55227185D01*
X137306494Y-55243819D01*
X137311959Y-55249284D01*
X137311963Y-55249287D01*
X137457890Y-55339297D01*
X137457893Y-55339298D01*
X137457899Y-55339302D01*
X137620664Y-55393236D01*
X137721128Y-55403500D01*
X137721133Y-55403500D01*
X138318867Y-55403500D01*
X138318872Y-55403500D01*
X138419336Y-55393236D01*
X138582101Y-55339302D01*
X138728040Y-55249285D01*
X138733506Y-55243819D01*
X138794829Y-55210334D01*
X138821187Y-55207500D01*
X139038500Y-55207500D01*
X139105539Y-55227185D01*
X139151294Y-55279989D01*
X139162500Y-55331500D01*
X139162500Y-55842800D01*
X139142815Y-55909839D01*
X139126181Y-55930481D01*
X139046481Y-56010181D01*
X138985158Y-56043666D01*
X138958800Y-56046500D01*
X137342614Y-56046500D01*
X137281134Y-56053883D01*
X137254368Y-56057097D01*
X137113953Y-56112470D01*
X137113951Y-56112471D01*
X136993677Y-56203677D01*
X136902471Y-56323951D01*
X136902470Y-56323953D01*
X136847097Y-56464368D01*
X136845548Y-56477272D01*
X136836500Y-56552614D01*
X136836500Y-57137386D01*
X136846007Y-57216556D01*
X136847097Y-57225630D01*
X136881161Y-57312009D01*
X136887443Y-57381596D01*
X136855107Y-57443533D01*
X136794418Y-57478154D01*
X136765807Y-57481500D01*
X136551115Y-57481500D01*
X136484076Y-57461815D01*
X136444998Y-57421650D01*
X136431818Y-57399848D01*
X136431817Y-57399847D01*
X136431816Y-57399845D01*
X136310155Y-57278184D01*
X136162913Y-57189173D01*
X135998649Y-57137987D01*
X135998647Y-57137986D01*
X135998645Y-57137986D01*
X135948667Y-57133444D01*
X135927265Y-57131500D01*
X135927262Y-57131500D01*
X135412727Y-57131500D01*
X135341354Y-57137985D01*
X135341344Y-57137988D01*
X135177090Y-57189171D01*
X135029841Y-57278186D01*
X135029840Y-57278187D01*
X134932681Y-57375347D01*
X134871358Y-57408832D01*
X134801666Y-57403848D01*
X134757319Y-57375347D01*
X134660158Y-57278186D01*
X134590979Y-57236366D01*
X134512913Y-57189173D01*
X134348649Y-57137987D01*
X134348647Y-57137986D01*
X134348645Y-57137986D01*
X134298667Y-57133444D01*
X134277265Y-57131500D01*
X134277262Y-57131500D01*
X133762727Y-57131500D01*
X133691353Y-57137986D01*
X133612368Y-57162598D01*
X133542508Y-57163748D01*
X133487798Y-57131893D01*
X132974819Y-56618914D01*
X132941334Y-56557591D01*
X132938500Y-56531233D01*
X132938500Y-54388631D01*
X132940238Y-54372881D01*
X132939968Y-54372856D01*
X132940701Y-54365094D01*
X132940702Y-54365091D01*
X132938561Y-54296981D01*
X132938500Y-54293085D01*
X132938500Y-54265146D01*
X132937982Y-54261049D01*
X132937064Y-54249389D01*
X132936375Y-54227472D01*
X132935673Y-54205110D01*
X132929977Y-54185508D01*
X132926032Y-54166457D01*
X132923474Y-54146203D01*
X132907162Y-54105005D01*
X132903377Y-54093950D01*
X132891948Y-54054610D01*
X132891018Y-54051407D01*
X132880623Y-54033831D01*
X132872064Y-54016356D01*
X132864554Y-53997388D01*
X132864554Y-53997387D01*
X132864553Y-53997385D01*
X132864552Y-53997383D01*
X132838504Y-53961531D01*
X132832100Y-53951783D01*
X132809542Y-53913637D01*
X132795106Y-53899201D01*
X132782469Y-53884406D01*
X132770471Y-53867892D01*
X132736336Y-53839653D01*
X132727696Y-53831791D01*
X131548570Y-52652665D01*
X131542429Y-52645000D01*
X137045000Y-52645000D01*
X137770000Y-52645000D01*
X138270000Y-52645000D01*
X139675000Y-52645000D01*
X140175000Y-52645000D01*
X141580000Y-52645000D01*
X141580000Y-51945000D01*
X142080000Y-51945000D01*
X142080000Y-52645000D01*
X142804999Y-52645000D01*
X142804999Y-52621692D01*
X142804998Y-52621677D01*
X142794855Y-52522392D01*
X142793400Y-52518000D01*
X144538000Y-52518000D01*
X145263000Y-52518000D01*
X145263000Y-51818000D01*
X145262999Y-51817999D01*
X145214693Y-51818000D01*
X145214675Y-51818001D01*
X145115392Y-51828144D01*
X144954518Y-51881452D01*
X144954507Y-51881457D01*
X144810271Y-51970424D01*
X144810267Y-51970427D01*
X144690427Y-52090267D01*
X144690424Y-52090271D01*
X144601457Y-52234507D01*
X144601452Y-52234518D01*
X144548144Y-52395393D01*
X144538000Y-52494677D01*
X144538000Y-52518000D01*
X142793400Y-52518000D01*
X142741547Y-52361518D01*
X142741542Y-52361507D01*
X142652575Y-52217271D01*
X142652572Y-52217267D01*
X142532732Y-52097427D01*
X142532728Y-52097424D01*
X142388492Y-52008457D01*
X142388481Y-52008452D01*
X142227606Y-51955144D01*
X142128322Y-51945000D01*
X142080000Y-51945000D01*
X141580000Y-51945000D01*
X141579999Y-51944999D01*
X141531693Y-51945000D01*
X141531675Y-51945001D01*
X141432392Y-51955144D01*
X141271518Y-52008452D01*
X141271507Y-52008457D01*
X141127271Y-52097424D01*
X141127267Y-52097427D01*
X141007426Y-52217268D01*
X140983038Y-52256808D01*
X140931090Y-52303532D01*
X140862127Y-52314753D01*
X140798045Y-52286909D01*
X140771962Y-52256808D01*
X140747573Y-52217268D01*
X140627732Y-52097427D01*
X140627728Y-52097424D01*
X140483492Y-52008457D01*
X140483481Y-52008452D01*
X140322606Y-51955144D01*
X140223322Y-51945000D01*
X140175000Y-51945000D01*
X140175000Y-52645000D01*
X139675000Y-52645000D01*
X139675000Y-51945000D01*
X139674999Y-51944999D01*
X139626693Y-51945000D01*
X139626675Y-51945001D01*
X139527392Y-51955144D01*
X139366518Y-52008452D01*
X139366507Y-52008457D01*
X139222271Y-52097424D01*
X139222267Y-52097427D01*
X139102426Y-52217268D01*
X139078038Y-52256808D01*
X139026090Y-52303532D01*
X138957127Y-52314753D01*
X138893045Y-52286909D01*
X138866962Y-52256808D01*
X138842573Y-52217268D01*
X138722732Y-52097427D01*
X138722728Y-52097424D01*
X138578492Y-52008457D01*
X138578481Y-52008452D01*
X138417606Y-51955144D01*
X138318322Y-51945000D01*
X138270000Y-51945000D01*
X138270000Y-52645000D01*
X137770000Y-52645000D01*
X137770000Y-51945000D01*
X137769999Y-51944999D01*
X137721693Y-51945000D01*
X137721675Y-51945001D01*
X137622392Y-51955144D01*
X137461518Y-52008452D01*
X137461507Y-52008457D01*
X137317271Y-52097424D01*
X137317267Y-52097427D01*
X137197427Y-52217267D01*
X137197424Y-52217271D01*
X137108457Y-52361507D01*
X137108452Y-52361518D01*
X137055144Y-52522393D01*
X137045000Y-52621677D01*
X137045000Y-52645000D01*
X131542429Y-52645000D01*
X131531553Y-52631424D01*
X131528553Y-52626697D01*
X131528552Y-52626696D01*
X131411509Y-52516786D01*
X131411506Y-52516783D01*
X131382324Y-52500740D01*
X131366064Y-52490058D01*
X131360042Y-52485387D01*
X131360041Y-52485386D01*
X131360039Y-52485385D01*
X131360036Y-52485383D01*
X131338876Y-52476226D01*
X131328390Y-52471089D01*
X131270801Y-52439430D01*
X131238550Y-52431149D01*
X131220151Y-52424850D01*
X131213146Y-52421819D01*
X131213147Y-52421819D01*
X131190368Y-52418210D01*
X131178940Y-52415843D01*
X131115286Y-52399500D01*
X131115282Y-52399500D01*
X131081989Y-52399500D01*
X131062590Y-52397973D01*
X131055057Y-52396780D01*
X131032101Y-52398950D01*
X131020432Y-52399500D01*
X123978593Y-52399500D01*
X123911554Y-52379815D01*
X123865799Y-52327011D01*
X123855855Y-52257853D01*
X123884880Y-52194297D01*
X123890912Y-52187819D01*
X126181913Y-49896819D01*
X126243236Y-49863334D01*
X126269594Y-49860500D01*
X144055406Y-49860500D01*
X144122445Y-49880185D01*
G37*
%TD.AperFunction*%
%TD*%
M02*
