%TF.GenerationSoftware,KiCad,Pcbnew,7.0.10*%
%TF.CreationDate,2024-01-10T06:21:24+05:30*%
%TF.ProjectId,Dashcam,44617368-6361-46d2-9e6b-696361645f70,rev?*%
%TF.SameCoordinates,Original*%
%TF.FileFunction,Legend,Bot*%
%TF.FilePolarity,Positive*%
%FSLAX46Y46*%
G04 Gerber Fmt 4.6, Leading zero omitted, Abs format (unit mm)*
G04 Created by KiCad (PCBNEW 7.0.10) date 2024-01-10 06:21:24*
%MOMM*%
%LPD*%
G01*
G04 APERTURE LIST*
%ADD10C,0.150000*%
%ADD11C,0.120000*%
%ADD12C,0.127000*%
%ADD13C,0.200000*%
G04 APERTURE END LIST*
D10*
X157403333Y-65824819D02*
X157403333Y-66539104D01*
X157403333Y-66539104D02*
X157450952Y-66681961D01*
X157450952Y-66681961D02*
X157546190Y-66777200D01*
X157546190Y-66777200D02*
X157689047Y-66824819D01*
X157689047Y-66824819D02*
X157784285Y-66824819D01*
X157022380Y-65824819D02*
X156403333Y-65824819D01*
X156403333Y-65824819D02*
X156736666Y-66205771D01*
X156736666Y-66205771D02*
X156593809Y-66205771D01*
X156593809Y-66205771D02*
X156498571Y-66253390D01*
X156498571Y-66253390D02*
X156450952Y-66301009D01*
X156450952Y-66301009D02*
X156403333Y-66396247D01*
X156403333Y-66396247D02*
X156403333Y-66634342D01*
X156403333Y-66634342D02*
X156450952Y-66729580D01*
X156450952Y-66729580D02*
X156498571Y-66777200D01*
X156498571Y-66777200D02*
X156593809Y-66824819D01*
X156593809Y-66824819D02*
X156879523Y-66824819D01*
X156879523Y-66824819D02*
X156974761Y-66777200D01*
X156974761Y-66777200D02*
X157022380Y-66729580D01*
X135011666Y-56664819D02*
X135344999Y-56188628D01*
X135583094Y-56664819D02*
X135583094Y-55664819D01*
X135583094Y-55664819D02*
X135202142Y-55664819D01*
X135202142Y-55664819D02*
X135106904Y-55712438D01*
X135106904Y-55712438D02*
X135059285Y-55760057D01*
X135059285Y-55760057D02*
X135011666Y-55855295D01*
X135011666Y-55855295D02*
X135011666Y-55998152D01*
X135011666Y-55998152D02*
X135059285Y-56093390D01*
X135059285Y-56093390D02*
X135106904Y-56141009D01*
X135106904Y-56141009D02*
X135202142Y-56188628D01*
X135202142Y-56188628D02*
X135583094Y-56188628D01*
X134678332Y-55664819D02*
X134011666Y-55664819D01*
X134011666Y-55664819D02*
X134440237Y-56664819D01*
X145999580Y-50963333D02*
X146047200Y-50915714D01*
X146047200Y-50915714D02*
X146094819Y-50772857D01*
X146094819Y-50772857D02*
X146094819Y-50677619D01*
X146094819Y-50677619D02*
X146047200Y-50534762D01*
X146047200Y-50534762D02*
X145951961Y-50439524D01*
X145951961Y-50439524D02*
X145856723Y-50391905D01*
X145856723Y-50391905D02*
X145666247Y-50344286D01*
X145666247Y-50344286D02*
X145523390Y-50344286D01*
X145523390Y-50344286D02*
X145332914Y-50391905D01*
X145332914Y-50391905D02*
X145237676Y-50439524D01*
X145237676Y-50439524D02*
X145142438Y-50534762D01*
X145142438Y-50534762D02*
X145094819Y-50677619D01*
X145094819Y-50677619D02*
X145094819Y-50772857D01*
X145094819Y-50772857D02*
X145142438Y-50915714D01*
X145142438Y-50915714D02*
X145190057Y-50963333D01*
X145523390Y-51534762D02*
X145475771Y-51439524D01*
X145475771Y-51439524D02*
X145428152Y-51391905D01*
X145428152Y-51391905D02*
X145332914Y-51344286D01*
X145332914Y-51344286D02*
X145285295Y-51344286D01*
X145285295Y-51344286D02*
X145190057Y-51391905D01*
X145190057Y-51391905D02*
X145142438Y-51439524D01*
X145142438Y-51439524D02*
X145094819Y-51534762D01*
X145094819Y-51534762D02*
X145094819Y-51725238D01*
X145094819Y-51725238D02*
X145142438Y-51820476D01*
X145142438Y-51820476D02*
X145190057Y-51868095D01*
X145190057Y-51868095D02*
X145285295Y-51915714D01*
X145285295Y-51915714D02*
X145332914Y-51915714D01*
X145332914Y-51915714D02*
X145428152Y-51868095D01*
X145428152Y-51868095D02*
X145475771Y-51820476D01*
X145475771Y-51820476D02*
X145523390Y-51725238D01*
X145523390Y-51725238D02*
X145523390Y-51534762D01*
X145523390Y-51534762D02*
X145571009Y-51439524D01*
X145571009Y-51439524D02*
X145618628Y-51391905D01*
X145618628Y-51391905D02*
X145713866Y-51344286D01*
X145713866Y-51344286D02*
X145904342Y-51344286D01*
X145904342Y-51344286D02*
X145999580Y-51391905D01*
X145999580Y-51391905D02*
X146047200Y-51439524D01*
X146047200Y-51439524D02*
X146094819Y-51534762D01*
X146094819Y-51534762D02*
X146094819Y-51725238D01*
X146094819Y-51725238D02*
X146047200Y-51820476D01*
X146047200Y-51820476D02*
X145999580Y-51868095D01*
X145999580Y-51868095D02*
X145904342Y-51915714D01*
X145904342Y-51915714D02*
X145713866Y-51915714D01*
X145713866Y-51915714D02*
X145618628Y-51868095D01*
X145618628Y-51868095D02*
X145571009Y-51820476D01*
X145571009Y-51820476D02*
X145523390Y-51725238D01*
X120571428Y-83231009D02*
X120904761Y-83231009D01*
X120904761Y-83754819D02*
X120904761Y-82754819D01*
X120904761Y-82754819D02*
X120428571Y-82754819D01*
X120047618Y-83754819D02*
X120047618Y-82754819D01*
X119571428Y-83754819D02*
X119571428Y-82754819D01*
X119571428Y-82754819D02*
X119333333Y-82754819D01*
X119333333Y-82754819D02*
X119190476Y-82802438D01*
X119190476Y-82802438D02*
X119095238Y-82897676D01*
X119095238Y-82897676D02*
X119047619Y-82992914D01*
X119047619Y-82992914D02*
X119000000Y-83183390D01*
X119000000Y-83183390D02*
X119000000Y-83326247D01*
X119000000Y-83326247D02*
X119047619Y-83516723D01*
X119047619Y-83516723D02*
X119095238Y-83611961D01*
X119095238Y-83611961D02*
X119190476Y-83707200D01*
X119190476Y-83707200D02*
X119333333Y-83754819D01*
X119333333Y-83754819D02*
X119571428Y-83754819D01*
X118666666Y-82754819D02*
X118047619Y-82754819D01*
X118047619Y-82754819D02*
X118380952Y-83135771D01*
X118380952Y-83135771D02*
X118238095Y-83135771D01*
X118238095Y-83135771D02*
X118142857Y-83183390D01*
X118142857Y-83183390D02*
X118095238Y-83231009D01*
X118095238Y-83231009D02*
X118047619Y-83326247D01*
X118047619Y-83326247D02*
X118047619Y-83564342D01*
X118047619Y-83564342D02*
X118095238Y-83659580D01*
X118095238Y-83659580D02*
X118142857Y-83707200D01*
X118142857Y-83707200D02*
X118238095Y-83754819D01*
X118238095Y-83754819D02*
X118523809Y-83754819D01*
X118523809Y-83754819D02*
X118619047Y-83707200D01*
X118619047Y-83707200D02*
X118666666Y-83659580D01*
X114858333Y-48044819D02*
X114858333Y-48759104D01*
X114858333Y-48759104D02*
X114905952Y-48901961D01*
X114905952Y-48901961D02*
X115001190Y-48997200D01*
X115001190Y-48997200D02*
X115144047Y-49044819D01*
X115144047Y-49044819D02*
X115239285Y-49044819D01*
X113953571Y-48378152D02*
X113953571Y-49044819D01*
X114191666Y-47997200D02*
X114429761Y-48711485D01*
X114429761Y-48711485D02*
X113810714Y-48711485D01*
X164127428Y-41881009D02*
X164460761Y-41881009D01*
X164460761Y-42404819D02*
X164460761Y-41404819D01*
X164460761Y-41404819D02*
X163984571Y-41404819D01*
X163603618Y-42404819D02*
X163603618Y-41404819D01*
X163127428Y-42404819D02*
X163127428Y-41404819D01*
X163127428Y-41404819D02*
X162889333Y-41404819D01*
X162889333Y-41404819D02*
X162746476Y-41452438D01*
X162746476Y-41452438D02*
X162651238Y-41547676D01*
X162651238Y-41547676D02*
X162603619Y-41642914D01*
X162603619Y-41642914D02*
X162556000Y-41833390D01*
X162556000Y-41833390D02*
X162556000Y-41976247D01*
X162556000Y-41976247D02*
X162603619Y-42166723D01*
X162603619Y-42166723D02*
X162651238Y-42261961D01*
X162651238Y-42261961D02*
X162746476Y-42357200D01*
X162746476Y-42357200D02*
X162889333Y-42404819D01*
X162889333Y-42404819D02*
X163127428Y-42404819D01*
X162175047Y-41500057D02*
X162127428Y-41452438D01*
X162127428Y-41452438D02*
X162032190Y-41404819D01*
X162032190Y-41404819D02*
X161794095Y-41404819D01*
X161794095Y-41404819D02*
X161698857Y-41452438D01*
X161698857Y-41452438D02*
X161651238Y-41500057D01*
X161651238Y-41500057D02*
X161603619Y-41595295D01*
X161603619Y-41595295D02*
X161603619Y-41690533D01*
X161603619Y-41690533D02*
X161651238Y-41833390D01*
X161651238Y-41833390D02*
X162222666Y-42404819D01*
X162222666Y-42404819D02*
X161603619Y-42404819D01*
X120366904Y-77254819D02*
X120366904Y-78064342D01*
X120366904Y-78064342D02*
X120319285Y-78159580D01*
X120319285Y-78159580D02*
X120271666Y-78207200D01*
X120271666Y-78207200D02*
X120176428Y-78254819D01*
X120176428Y-78254819D02*
X119985952Y-78254819D01*
X119985952Y-78254819D02*
X119890714Y-78207200D01*
X119890714Y-78207200D02*
X119843095Y-78159580D01*
X119843095Y-78159580D02*
X119795476Y-78064342D01*
X119795476Y-78064342D02*
X119795476Y-77254819D01*
X119366904Y-77350057D02*
X119319285Y-77302438D01*
X119319285Y-77302438D02*
X119224047Y-77254819D01*
X119224047Y-77254819D02*
X118985952Y-77254819D01*
X118985952Y-77254819D02*
X118890714Y-77302438D01*
X118890714Y-77302438D02*
X118843095Y-77350057D01*
X118843095Y-77350057D02*
X118795476Y-77445295D01*
X118795476Y-77445295D02*
X118795476Y-77540533D01*
X118795476Y-77540533D02*
X118843095Y-77683390D01*
X118843095Y-77683390D02*
X119414523Y-78254819D01*
X119414523Y-78254819D02*
X118795476Y-78254819D01*
X163586666Y-64284819D02*
X163919999Y-63808628D01*
X164158094Y-64284819D02*
X164158094Y-63284819D01*
X164158094Y-63284819D02*
X163777142Y-63284819D01*
X163777142Y-63284819D02*
X163681904Y-63332438D01*
X163681904Y-63332438D02*
X163634285Y-63380057D01*
X163634285Y-63380057D02*
X163586666Y-63475295D01*
X163586666Y-63475295D02*
X163586666Y-63618152D01*
X163586666Y-63618152D02*
X163634285Y-63713390D01*
X163634285Y-63713390D02*
X163681904Y-63761009D01*
X163681904Y-63761009D02*
X163777142Y-63808628D01*
X163777142Y-63808628D02*
X164158094Y-63808628D01*
X163253332Y-63284819D02*
X162634285Y-63284819D01*
X162634285Y-63284819D02*
X162967618Y-63665771D01*
X162967618Y-63665771D02*
X162824761Y-63665771D01*
X162824761Y-63665771D02*
X162729523Y-63713390D01*
X162729523Y-63713390D02*
X162681904Y-63761009D01*
X162681904Y-63761009D02*
X162634285Y-63856247D01*
X162634285Y-63856247D02*
X162634285Y-64094342D01*
X162634285Y-64094342D02*
X162681904Y-64189580D01*
X162681904Y-64189580D02*
X162729523Y-64237200D01*
X162729523Y-64237200D02*
X162824761Y-64284819D01*
X162824761Y-64284819D02*
X163110475Y-64284819D01*
X163110475Y-64284819D02*
X163205713Y-64237200D01*
X163205713Y-64237200D02*
X163253332Y-64189580D01*
X142029580Y-50963333D02*
X142077200Y-50915714D01*
X142077200Y-50915714D02*
X142124819Y-50772857D01*
X142124819Y-50772857D02*
X142124819Y-50677619D01*
X142124819Y-50677619D02*
X142077200Y-50534762D01*
X142077200Y-50534762D02*
X141981961Y-50439524D01*
X141981961Y-50439524D02*
X141886723Y-50391905D01*
X141886723Y-50391905D02*
X141696247Y-50344286D01*
X141696247Y-50344286D02*
X141553390Y-50344286D01*
X141553390Y-50344286D02*
X141362914Y-50391905D01*
X141362914Y-50391905D02*
X141267676Y-50439524D01*
X141267676Y-50439524D02*
X141172438Y-50534762D01*
X141172438Y-50534762D02*
X141124819Y-50677619D01*
X141124819Y-50677619D02*
X141124819Y-50772857D01*
X141124819Y-50772857D02*
X141172438Y-50915714D01*
X141172438Y-50915714D02*
X141220057Y-50963333D01*
X141124819Y-51296667D02*
X141124819Y-51963333D01*
X141124819Y-51963333D02*
X142124819Y-51534762D01*
X110881666Y-80794819D02*
X111214999Y-80318628D01*
X111453094Y-80794819D02*
X111453094Y-79794819D01*
X111453094Y-79794819D02*
X111072142Y-79794819D01*
X111072142Y-79794819D02*
X110976904Y-79842438D01*
X110976904Y-79842438D02*
X110929285Y-79890057D01*
X110929285Y-79890057D02*
X110881666Y-79985295D01*
X110881666Y-79985295D02*
X110881666Y-80128152D01*
X110881666Y-80128152D02*
X110929285Y-80223390D01*
X110929285Y-80223390D02*
X110976904Y-80271009D01*
X110976904Y-80271009D02*
X111072142Y-80318628D01*
X111072142Y-80318628D02*
X111453094Y-80318628D01*
X109929285Y-80794819D02*
X110500713Y-80794819D01*
X110214999Y-80794819D02*
X110214999Y-79794819D01*
X110214999Y-79794819D02*
X110310237Y-79937676D01*
X110310237Y-79937676D02*
X110405475Y-80032914D01*
X110405475Y-80032914D02*
X110500713Y-80080533D01*
X138252580Y-50963333D02*
X138300200Y-50915714D01*
X138300200Y-50915714D02*
X138347819Y-50772857D01*
X138347819Y-50772857D02*
X138347819Y-50677619D01*
X138347819Y-50677619D02*
X138300200Y-50534762D01*
X138300200Y-50534762D02*
X138204961Y-50439524D01*
X138204961Y-50439524D02*
X138109723Y-50391905D01*
X138109723Y-50391905D02*
X137919247Y-50344286D01*
X137919247Y-50344286D02*
X137776390Y-50344286D01*
X137776390Y-50344286D02*
X137585914Y-50391905D01*
X137585914Y-50391905D02*
X137490676Y-50439524D01*
X137490676Y-50439524D02*
X137395438Y-50534762D01*
X137395438Y-50534762D02*
X137347819Y-50677619D01*
X137347819Y-50677619D02*
X137347819Y-50772857D01*
X137347819Y-50772857D02*
X137395438Y-50915714D01*
X137395438Y-50915714D02*
X137443057Y-50963333D01*
X137347819Y-51820476D02*
X137347819Y-51630000D01*
X137347819Y-51630000D02*
X137395438Y-51534762D01*
X137395438Y-51534762D02*
X137443057Y-51487143D01*
X137443057Y-51487143D02*
X137585914Y-51391905D01*
X137585914Y-51391905D02*
X137776390Y-51344286D01*
X137776390Y-51344286D02*
X138157342Y-51344286D01*
X138157342Y-51344286D02*
X138252580Y-51391905D01*
X138252580Y-51391905D02*
X138300200Y-51439524D01*
X138300200Y-51439524D02*
X138347819Y-51534762D01*
X138347819Y-51534762D02*
X138347819Y-51725238D01*
X138347819Y-51725238D02*
X138300200Y-51820476D01*
X138300200Y-51820476D02*
X138252580Y-51868095D01*
X138252580Y-51868095D02*
X138157342Y-51915714D01*
X138157342Y-51915714D02*
X137919247Y-51915714D01*
X137919247Y-51915714D02*
X137824009Y-51868095D01*
X137824009Y-51868095D02*
X137776390Y-51820476D01*
X137776390Y-51820476D02*
X137728771Y-51725238D01*
X137728771Y-51725238D02*
X137728771Y-51534762D01*
X137728771Y-51534762D02*
X137776390Y-51439524D01*
X137776390Y-51439524D02*
X137824009Y-51391905D01*
X137824009Y-51391905D02*
X137919247Y-51344286D01*
X118501666Y-80699580D02*
X118549285Y-80747200D01*
X118549285Y-80747200D02*
X118692142Y-80794819D01*
X118692142Y-80794819D02*
X118787380Y-80794819D01*
X118787380Y-80794819D02*
X118930237Y-80747200D01*
X118930237Y-80747200D02*
X119025475Y-80651961D01*
X119025475Y-80651961D02*
X119073094Y-80556723D01*
X119073094Y-80556723D02*
X119120713Y-80366247D01*
X119120713Y-80366247D02*
X119120713Y-80223390D01*
X119120713Y-80223390D02*
X119073094Y-80032914D01*
X119073094Y-80032914D02*
X119025475Y-79937676D01*
X119025475Y-79937676D02*
X118930237Y-79842438D01*
X118930237Y-79842438D02*
X118787380Y-79794819D01*
X118787380Y-79794819D02*
X118692142Y-79794819D01*
X118692142Y-79794819D02*
X118549285Y-79842438D01*
X118549285Y-79842438D02*
X118501666Y-79890057D01*
X117549285Y-80794819D02*
X118120713Y-80794819D01*
X117834999Y-80794819D02*
X117834999Y-79794819D01*
X117834999Y-79794819D02*
X117930237Y-79937676D01*
X117930237Y-79937676D02*
X118025475Y-80032914D01*
X118025475Y-80032914D02*
X118120713Y-80080533D01*
X148981666Y-62379819D02*
X149314999Y-61903628D01*
X149553094Y-62379819D02*
X149553094Y-61379819D01*
X149553094Y-61379819D02*
X149172142Y-61379819D01*
X149172142Y-61379819D02*
X149076904Y-61427438D01*
X149076904Y-61427438D02*
X149029285Y-61475057D01*
X149029285Y-61475057D02*
X148981666Y-61570295D01*
X148981666Y-61570295D02*
X148981666Y-61713152D01*
X148981666Y-61713152D02*
X149029285Y-61808390D01*
X149029285Y-61808390D02*
X149076904Y-61856009D01*
X149076904Y-61856009D02*
X149172142Y-61903628D01*
X149172142Y-61903628D02*
X149553094Y-61903628D01*
X148505475Y-62379819D02*
X148314999Y-62379819D01*
X148314999Y-62379819D02*
X148219761Y-62332200D01*
X148219761Y-62332200D02*
X148172142Y-62284580D01*
X148172142Y-62284580D02*
X148076904Y-62141723D01*
X148076904Y-62141723D02*
X148029285Y-61951247D01*
X148029285Y-61951247D02*
X148029285Y-61570295D01*
X148029285Y-61570295D02*
X148076904Y-61475057D01*
X148076904Y-61475057D02*
X148124523Y-61427438D01*
X148124523Y-61427438D02*
X148219761Y-61379819D01*
X148219761Y-61379819D02*
X148410237Y-61379819D01*
X148410237Y-61379819D02*
X148505475Y-61427438D01*
X148505475Y-61427438D02*
X148553094Y-61475057D01*
X148553094Y-61475057D02*
X148600713Y-61570295D01*
X148600713Y-61570295D02*
X148600713Y-61808390D01*
X148600713Y-61808390D02*
X148553094Y-61903628D01*
X148553094Y-61903628D02*
X148505475Y-61951247D01*
X148505475Y-61951247D02*
X148410237Y-61998866D01*
X148410237Y-61998866D02*
X148219761Y-61998866D01*
X148219761Y-61998866D02*
X148124523Y-61951247D01*
X148124523Y-61951247D02*
X148076904Y-61903628D01*
X148076904Y-61903628D02*
X148029285Y-61808390D01*
X114135952Y-68841009D02*
X113993095Y-68888628D01*
X113993095Y-68888628D02*
X113945476Y-68936247D01*
X113945476Y-68936247D02*
X113897857Y-69031485D01*
X113897857Y-69031485D02*
X113897857Y-69174342D01*
X113897857Y-69174342D02*
X113945476Y-69269580D01*
X113945476Y-69269580D02*
X113993095Y-69317200D01*
X113993095Y-69317200D02*
X114088333Y-69364819D01*
X114088333Y-69364819D02*
X114469285Y-69364819D01*
X114469285Y-69364819D02*
X114469285Y-68364819D01*
X114469285Y-68364819D02*
X114135952Y-68364819D01*
X114135952Y-68364819D02*
X114040714Y-68412438D01*
X114040714Y-68412438D02*
X113993095Y-68460057D01*
X113993095Y-68460057D02*
X113945476Y-68555295D01*
X113945476Y-68555295D02*
X113945476Y-68650533D01*
X113945476Y-68650533D02*
X113993095Y-68745771D01*
X113993095Y-68745771D02*
X114040714Y-68793390D01*
X114040714Y-68793390D02*
X114135952Y-68841009D01*
X114135952Y-68841009D02*
X114469285Y-68841009D01*
X113564523Y-68364819D02*
X112897857Y-68364819D01*
X112897857Y-68364819D02*
X113564523Y-69364819D01*
X113564523Y-69364819D02*
X112897857Y-69364819D01*
X111993095Y-69364819D02*
X112564523Y-69364819D01*
X112278809Y-69364819D02*
X112278809Y-68364819D01*
X112278809Y-68364819D02*
X112374047Y-68507676D01*
X112374047Y-68507676D02*
X112469285Y-68602914D01*
X112469285Y-68602914D02*
X112564523Y-68650533D01*
X119043866Y-64084048D02*
X119043866Y-64845953D01*
X119424819Y-64465000D02*
X118662914Y-64465000D01*
X143226904Y-62014819D02*
X143226904Y-62824342D01*
X143226904Y-62824342D02*
X143179285Y-62919580D01*
X143179285Y-62919580D02*
X143131666Y-62967200D01*
X143131666Y-62967200D02*
X143036428Y-63014819D01*
X143036428Y-63014819D02*
X142845952Y-63014819D01*
X142845952Y-63014819D02*
X142750714Y-62967200D01*
X142750714Y-62967200D02*
X142703095Y-62919580D01*
X142703095Y-62919580D02*
X142655476Y-62824342D01*
X142655476Y-62824342D02*
X142655476Y-62014819D01*
X142274523Y-62014819D02*
X141655476Y-62014819D01*
X141655476Y-62014819D02*
X141988809Y-62395771D01*
X141988809Y-62395771D02*
X141845952Y-62395771D01*
X141845952Y-62395771D02*
X141750714Y-62443390D01*
X141750714Y-62443390D02*
X141703095Y-62491009D01*
X141703095Y-62491009D02*
X141655476Y-62586247D01*
X141655476Y-62586247D02*
X141655476Y-62824342D01*
X141655476Y-62824342D02*
X141703095Y-62919580D01*
X141703095Y-62919580D02*
X141750714Y-62967200D01*
X141750714Y-62967200D02*
X141845952Y-63014819D01*
X141845952Y-63014819D02*
X142131666Y-63014819D01*
X142131666Y-63014819D02*
X142226904Y-62967200D01*
X142226904Y-62967200D02*
X142274523Y-62919580D01*
X114588332Y-85192200D02*
X114445475Y-85239819D01*
X114445475Y-85239819D02*
X114207380Y-85239819D01*
X114207380Y-85239819D02*
X114112142Y-85192200D01*
X114112142Y-85192200D02*
X114064523Y-85144580D01*
X114064523Y-85144580D02*
X114016904Y-85049342D01*
X114016904Y-85049342D02*
X114016904Y-84954104D01*
X114016904Y-84954104D02*
X114064523Y-84858866D01*
X114064523Y-84858866D02*
X114112142Y-84811247D01*
X114112142Y-84811247D02*
X114207380Y-84763628D01*
X114207380Y-84763628D02*
X114397856Y-84716009D01*
X114397856Y-84716009D02*
X114493094Y-84668390D01*
X114493094Y-84668390D02*
X114540713Y-84620771D01*
X114540713Y-84620771D02*
X114588332Y-84525533D01*
X114588332Y-84525533D02*
X114588332Y-84430295D01*
X114588332Y-84430295D02*
X114540713Y-84335057D01*
X114540713Y-84335057D02*
X114493094Y-84287438D01*
X114493094Y-84287438D02*
X114397856Y-84239819D01*
X114397856Y-84239819D02*
X114159761Y-84239819D01*
X114159761Y-84239819D02*
X114016904Y-84287438D01*
X113683570Y-84239819D02*
X113445475Y-85239819D01*
X113445475Y-85239819D02*
X113254999Y-84525533D01*
X113254999Y-84525533D02*
X113064523Y-85239819D01*
X113064523Y-85239819D02*
X112826428Y-84239819D01*
X111921666Y-85239819D02*
X112493094Y-85239819D01*
X112207380Y-85239819D02*
X112207380Y-84239819D01*
X112207380Y-84239819D02*
X112302618Y-84382676D01*
X112302618Y-84382676D02*
X112397856Y-84477914D01*
X112397856Y-84477914D02*
X112493094Y-84525533D01*
X140157580Y-50963333D02*
X140205200Y-50915714D01*
X140205200Y-50915714D02*
X140252819Y-50772857D01*
X140252819Y-50772857D02*
X140252819Y-50677619D01*
X140252819Y-50677619D02*
X140205200Y-50534762D01*
X140205200Y-50534762D02*
X140109961Y-50439524D01*
X140109961Y-50439524D02*
X140014723Y-50391905D01*
X140014723Y-50391905D02*
X139824247Y-50344286D01*
X139824247Y-50344286D02*
X139681390Y-50344286D01*
X139681390Y-50344286D02*
X139490914Y-50391905D01*
X139490914Y-50391905D02*
X139395676Y-50439524D01*
X139395676Y-50439524D02*
X139300438Y-50534762D01*
X139300438Y-50534762D02*
X139252819Y-50677619D01*
X139252819Y-50677619D02*
X139252819Y-50772857D01*
X139252819Y-50772857D02*
X139300438Y-50915714D01*
X139300438Y-50915714D02*
X139348057Y-50963333D01*
X139252819Y-51868095D02*
X139252819Y-51391905D01*
X139252819Y-51391905D02*
X139729009Y-51344286D01*
X139729009Y-51344286D02*
X139681390Y-51391905D01*
X139681390Y-51391905D02*
X139633771Y-51487143D01*
X139633771Y-51487143D02*
X139633771Y-51725238D01*
X139633771Y-51725238D02*
X139681390Y-51820476D01*
X139681390Y-51820476D02*
X139729009Y-51868095D01*
X139729009Y-51868095D02*
X139824247Y-51915714D01*
X139824247Y-51915714D02*
X140062342Y-51915714D01*
X140062342Y-51915714D02*
X140157580Y-51868095D01*
X140157580Y-51868095D02*
X140205200Y-51820476D01*
X140205200Y-51820476D02*
X140252819Y-51725238D01*
X140252819Y-51725238D02*
X140252819Y-51487143D01*
X140252819Y-51487143D02*
X140205200Y-51391905D01*
X140205200Y-51391905D02*
X140157580Y-51344286D01*
X148981666Y-56664819D02*
X149314999Y-56188628D01*
X149553094Y-56664819D02*
X149553094Y-55664819D01*
X149553094Y-55664819D02*
X149172142Y-55664819D01*
X149172142Y-55664819D02*
X149076904Y-55712438D01*
X149076904Y-55712438D02*
X149029285Y-55760057D01*
X149029285Y-55760057D02*
X148981666Y-55855295D01*
X148981666Y-55855295D02*
X148981666Y-55998152D01*
X148981666Y-55998152D02*
X149029285Y-56093390D01*
X149029285Y-56093390D02*
X149076904Y-56141009D01*
X149076904Y-56141009D02*
X149172142Y-56188628D01*
X149172142Y-56188628D02*
X149553094Y-56188628D01*
X148410237Y-56093390D02*
X148505475Y-56045771D01*
X148505475Y-56045771D02*
X148553094Y-55998152D01*
X148553094Y-55998152D02*
X148600713Y-55902914D01*
X148600713Y-55902914D02*
X148600713Y-55855295D01*
X148600713Y-55855295D02*
X148553094Y-55760057D01*
X148553094Y-55760057D02*
X148505475Y-55712438D01*
X148505475Y-55712438D02*
X148410237Y-55664819D01*
X148410237Y-55664819D02*
X148219761Y-55664819D01*
X148219761Y-55664819D02*
X148124523Y-55712438D01*
X148124523Y-55712438D02*
X148076904Y-55760057D01*
X148076904Y-55760057D02*
X148029285Y-55855295D01*
X148029285Y-55855295D02*
X148029285Y-55902914D01*
X148029285Y-55902914D02*
X148076904Y-55998152D01*
X148076904Y-55998152D02*
X148124523Y-56045771D01*
X148124523Y-56045771D02*
X148219761Y-56093390D01*
X148219761Y-56093390D02*
X148410237Y-56093390D01*
X148410237Y-56093390D02*
X148505475Y-56141009D01*
X148505475Y-56141009D02*
X148553094Y-56188628D01*
X148553094Y-56188628D02*
X148600713Y-56283866D01*
X148600713Y-56283866D02*
X148600713Y-56474342D01*
X148600713Y-56474342D02*
X148553094Y-56569580D01*
X148553094Y-56569580D02*
X148505475Y-56617200D01*
X148505475Y-56617200D02*
X148410237Y-56664819D01*
X148410237Y-56664819D02*
X148219761Y-56664819D01*
X148219761Y-56664819D02*
X148124523Y-56617200D01*
X148124523Y-56617200D02*
X148076904Y-56569580D01*
X148076904Y-56569580D02*
X148029285Y-56474342D01*
X148029285Y-56474342D02*
X148029285Y-56283866D01*
X148029285Y-56283866D02*
X148076904Y-56188628D01*
X148076904Y-56188628D02*
X148124523Y-56141009D01*
X148124523Y-56141009D02*
X148219761Y-56093390D01*
X130002856Y-59839819D02*
X130002856Y-58839819D01*
X130002856Y-58839819D02*
X129764761Y-58839819D01*
X129764761Y-58839819D02*
X129621904Y-58887438D01*
X129621904Y-58887438D02*
X129526666Y-58982676D01*
X129526666Y-58982676D02*
X129479047Y-59077914D01*
X129479047Y-59077914D02*
X129431428Y-59268390D01*
X129431428Y-59268390D02*
X129431428Y-59411247D01*
X129431428Y-59411247D02*
X129479047Y-59601723D01*
X129479047Y-59601723D02*
X129526666Y-59696961D01*
X129526666Y-59696961D02*
X129621904Y-59792200D01*
X129621904Y-59792200D02*
X129764761Y-59839819D01*
X129764761Y-59839819D02*
X130002856Y-59839819D01*
X128431428Y-59744580D02*
X128479047Y-59792200D01*
X128479047Y-59792200D02*
X128621904Y-59839819D01*
X128621904Y-59839819D02*
X128717142Y-59839819D01*
X128717142Y-59839819D02*
X128859999Y-59792200D01*
X128859999Y-59792200D02*
X128955237Y-59696961D01*
X128955237Y-59696961D02*
X129002856Y-59601723D01*
X129002856Y-59601723D02*
X129050475Y-59411247D01*
X129050475Y-59411247D02*
X129050475Y-59268390D01*
X129050475Y-59268390D02*
X129002856Y-59077914D01*
X129002856Y-59077914D02*
X128955237Y-58982676D01*
X128955237Y-58982676D02*
X128859999Y-58887438D01*
X128859999Y-58887438D02*
X128717142Y-58839819D01*
X128717142Y-58839819D02*
X128621904Y-58839819D01*
X128621904Y-58839819D02*
X128479047Y-58887438D01*
X128479047Y-58887438D02*
X128431428Y-58935057D01*
X128240952Y-59935057D02*
X127479047Y-59935057D01*
X127240951Y-58839819D02*
X127240951Y-59649342D01*
X127240951Y-59649342D02*
X127193332Y-59744580D01*
X127193332Y-59744580D02*
X127145713Y-59792200D01*
X127145713Y-59792200D02*
X127050475Y-59839819D01*
X127050475Y-59839819D02*
X126859999Y-59839819D01*
X126859999Y-59839819D02*
X126764761Y-59792200D01*
X126764761Y-59792200D02*
X126717142Y-59744580D01*
X126717142Y-59744580D02*
X126669523Y-59649342D01*
X126669523Y-59649342D02*
X126669523Y-58839819D01*
X125669523Y-59839819D02*
X126240951Y-59839819D01*
X125955237Y-59839819D02*
X125955237Y-58839819D01*
X125955237Y-58839819D02*
X126050475Y-58982676D01*
X126050475Y-58982676D02*
X126145713Y-59077914D01*
X126145713Y-59077914D02*
X126240951Y-59125533D01*
X161334819Y-54702143D02*
X160334819Y-54702143D01*
X160334819Y-54702143D02*
X160334819Y-54940238D01*
X160334819Y-54940238D02*
X160382438Y-55083095D01*
X160382438Y-55083095D02*
X160477676Y-55178333D01*
X160477676Y-55178333D02*
X160572914Y-55225952D01*
X160572914Y-55225952D02*
X160763390Y-55273571D01*
X160763390Y-55273571D02*
X160906247Y-55273571D01*
X160906247Y-55273571D02*
X161096723Y-55225952D01*
X161096723Y-55225952D02*
X161191961Y-55178333D01*
X161191961Y-55178333D02*
X161287200Y-55083095D01*
X161287200Y-55083095D02*
X161334819Y-54940238D01*
X161334819Y-54940238D02*
X161334819Y-54702143D01*
X161239580Y-56273571D02*
X161287200Y-56225952D01*
X161287200Y-56225952D02*
X161334819Y-56083095D01*
X161334819Y-56083095D02*
X161334819Y-55987857D01*
X161334819Y-55987857D02*
X161287200Y-55845000D01*
X161287200Y-55845000D02*
X161191961Y-55749762D01*
X161191961Y-55749762D02*
X161096723Y-55702143D01*
X161096723Y-55702143D02*
X160906247Y-55654524D01*
X160906247Y-55654524D02*
X160763390Y-55654524D01*
X160763390Y-55654524D02*
X160572914Y-55702143D01*
X160572914Y-55702143D02*
X160477676Y-55749762D01*
X160477676Y-55749762D02*
X160382438Y-55845000D01*
X160382438Y-55845000D02*
X160334819Y-55987857D01*
X160334819Y-55987857D02*
X160334819Y-56083095D01*
X160334819Y-56083095D02*
X160382438Y-56225952D01*
X160382438Y-56225952D02*
X160430057Y-56273571D01*
X161430057Y-56464048D02*
X161430057Y-57225952D01*
X160334819Y-57464048D02*
X161144342Y-57464048D01*
X161144342Y-57464048D02*
X161239580Y-57511667D01*
X161239580Y-57511667D02*
X161287200Y-57559286D01*
X161287200Y-57559286D02*
X161334819Y-57654524D01*
X161334819Y-57654524D02*
X161334819Y-57845000D01*
X161334819Y-57845000D02*
X161287200Y-57940238D01*
X161287200Y-57940238D02*
X161239580Y-57987857D01*
X161239580Y-57987857D02*
X161144342Y-58035476D01*
X161144342Y-58035476D02*
X160334819Y-58035476D01*
X160668152Y-58940238D02*
X161334819Y-58940238D01*
X160287200Y-58702143D02*
X161001485Y-58464048D01*
X161001485Y-58464048D02*
X161001485Y-59083095D01*
X115961666Y-75079819D02*
X116294999Y-74603628D01*
X116533094Y-75079819D02*
X116533094Y-74079819D01*
X116533094Y-74079819D02*
X116152142Y-74079819D01*
X116152142Y-74079819D02*
X116056904Y-74127438D01*
X116056904Y-74127438D02*
X116009285Y-74175057D01*
X116009285Y-74175057D02*
X115961666Y-74270295D01*
X115961666Y-74270295D02*
X115961666Y-74413152D01*
X115961666Y-74413152D02*
X116009285Y-74508390D01*
X116009285Y-74508390D02*
X116056904Y-74556009D01*
X116056904Y-74556009D02*
X116152142Y-74603628D01*
X116152142Y-74603628D02*
X116533094Y-74603628D01*
X115104523Y-74413152D02*
X115104523Y-75079819D01*
X115342618Y-74032200D02*
X115580713Y-74746485D01*
X115580713Y-74746485D02*
X114961666Y-74746485D01*
X117866666Y-60474819D02*
X118199999Y-59998628D01*
X118438094Y-60474819D02*
X118438094Y-59474819D01*
X118438094Y-59474819D02*
X118057142Y-59474819D01*
X118057142Y-59474819D02*
X117961904Y-59522438D01*
X117961904Y-59522438D02*
X117914285Y-59570057D01*
X117914285Y-59570057D02*
X117866666Y-59665295D01*
X117866666Y-59665295D02*
X117866666Y-59808152D01*
X117866666Y-59808152D02*
X117914285Y-59903390D01*
X117914285Y-59903390D02*
X117961904Y-59951009D01*
X117961904Y-59951009D02*
X118057142Y-59998628D01*
X118057142Y-59998628D02*
X118438094Y-59998628D01*
X117485713Y-59570057D02*
X117438094Y-59522438D01*
X117438094Y-59522438D02*
X117342856Y-59474819D01*
X117342856Y-59474819D02*
X117104761Y-59474819D01*
X117104761Y-59474819D02*
X117009523Y-59522438D01*
X117009523Y-59522438D02*
X116961904Y-59570057D01*
X116961904Y-59570057D02*
X116914285Y-59665295D01*
X116914285Y-59665295D02*
X116914285Y-59760533D01*
X116914285Y-59760533D02*
X116961904Y-59903390D01*
X116961904Y-59903390D02*
X117533332Y-60474819D01*
X117533332Y-60474819D02*
X116914285Y-60474819D01*
X110881666Y-72539819D02*
X111214999Y-72063628D01*
X111453094Y-72539819D02*
X111453094Y-71539819D01*
X111453094Y-71539819D02*
X111072142Y-71539819D01*
X111072142Y-71539819D02*
X110976904Y-71587438D01*
X110976904Y-71587438D02*
X110929285Y-71635057D01*
X110929285Y-71635057D02*
X110881666Y-71730295D01*
X110881666Y-71730295D02*
X110881666Y-71873152D01*
X110881666Y-71873152D02*
X110929285Y-71968390D01*
X110929285Y-71968390D02*
X110976904Y-72016009D01*
X110976904Y-72016009D02*
X111072142Y-72063628D01*
X111072142Y-72063628D02*
X111453094Y-72063628D01*
X109976904Y-71539819D02*
X110453094Y-71539819D01*
X110453094Y-71539819D02*
X110500713Y-72016009D01*
X110500713Y-72016009D02*
X110453094Y-71968390D01*
X110453094Y-71968390D02*
X110357856Y-71920771D01*
X110357856Y-71920771D02*
X110119761Y-71920771D01*
X110119761Y-71920771D02*
X110024523Y-71968390D01*
X110024523Y-71968390D02*
X109976904Y-72016009D01*
X109976904Y-72016009D02*
X109929285Y-72111247D01*
X109929285Y-72111247D02*
X109929285Y-72349342D01*
X109929285Y-72349342D02*
X109976904Y-72444580D01*
X109976904Y-72444580D02*
X110024523Y-72492200D01*
X110024523Y-72492200D02*
X110119761Y-72539819D01*
X110119761Y-72539819D02*
X110357856Y-72539819D01*
X110357856Y-72539819D02*
X110453094Y-72492200D01*
X110453094Y-72492200D02*
X110500713Y-72444580D01*
X135011666Y-63014819D02*
X135344999Y-62538628D01*
X135583094Y-63014819D02*
X135583094Y-62014819D01*
X135583094Y-62014819D02*
X135202142Y-62014819D01*
X135202142Y-62014819D02*
X135106904Y-62062438D01*
X135106904Y-62062438D02*
X135059285Y-62110057D01*
X135059285Y-62110057D02*
X135011666Y-62205295D01*
X135011666Y-62205295D02*
X135011666Y-62348152D01*
X135011666Y-62348152D02*
X135059285Y-62443390D01*
X135059285Y-62443390D02*
X135106904Y-62491009D01*
X135106904Y-62491009D02*
X135202142Y-62538628D01*
X135202142Y-62538628D02*
X135583094Y-62538628D01*
X134154523Y-62014819D02*
X134344999Y-62014819D01*
X134344999Y-62014819D02*
X134440237Y-62062438D01*
X134440237Y-62062438D02*
X134487856Y-62110057D01*
X134487856Y-62110057D02*
X134583094Y-62252914D01*
X134583094Y-62252914D02*
X134630713Y-62443390D01*
X134630713Y-62443390D02*
X134630713Y-62824342D01*
X134630713Y-62824342D02*
X134583094Y-62919580D01*
X134583094Y-62919580D02*
X134535475Y-62967200D01*
X134535475Y-62967200D02*
X134440237Y-63014819D01*
X134440237Y-63014819D02*
X134249761Y-63014819D01*
X134249761Y-63014819D02*
X134154523Y-62967200D01*
X134154523Y-62967200D02*
X134106904Y-62919580D01*
X134106904Y-62919580D02*
X134059285Y-62824342D01*
X134059285Y-62824342D02*
X134059285Y-62586247D01*
X134059285Y-62586247D02*
X134106904Y-62491009D01*
X134106904Y-62491009D02*
X134154523Y-62443390D01*
X134154523Y-62443390D02*
X134249761Y-62395771D01*
X134249761Y-62395771D02*
X134440237Y-62395771D01*
X134440237Y-62395771D02*
X134535475Y-62443390D01*
X134535475Y-62443390D02*
X134583094Y-62491009D01*
X134583094Y-62491009D02*
X134630713Y-62586247D01*
D11*
%TO.C,J3*%
X156605000Y-62695000D02*
X159205000Y-62695000D01*
X151465000Y-65295000D02*
X151465000Y-60095000D01*
X159205000Y-60095000D02*
X151465000Y-60095000D01*
X159205000Y-65295000D02*
X159205000Y-63965000D01*
X156605000Y-65295000D02*
X151465000Y-65295000D01*
X156605000Y-65295000D02*
X156605000Y-62695000D01*
X157875000Y-65295000D02*
X159205000Y-65295000D01*
X159205000Y-62695000D02*
X159205000Y-60095000D01*
%TO.C,R7*%
X134607742Y-57592500D02*
X135082258Y-57592500D01*
X134607742Y-58637500D02*
X135082258Y-58637500D01*
%TO.C,C8*%
X146023000Y-53402420D02*
X146023000Y-53683580D01*
X145003000Y-53402420D02*
X145003000Y-53683580D01*
%TO.C,J4*%
X114480000Y-50110000D02*
X114480000Y-51910000D01*
X113270000Y-50120000D02*
X114480000Y-50110000D01*
X110010000Y-51380000D02*
X109995000Y-62245000D01*
X114480000Y-51910000D02*
X115420000Y-51910000D01*
X114480000Y-63580000D02*
X114480000Y-61780000D01*
X113195000Y-63580000D02*
X114480000Y-63580000D01*
%TO.C,U2*%
X116127500Y-76240000D02*
X115477500Y-76240000D01*
X116127500Y-76240000D02*
X116777500Y-76240000D01*
X116127500Y-79360000D02*
X114452500Y-79360000D01*
X116127500Y-79360000D02*
X116777500Y-79360000D01*
%TO.C,R3*%
X161302500Y-63832742D02*
X161302500Y-64307258D01*
X160257500Y-63832742D02*
X160257500Y-64307258D01*
%TO.C,C7*%
X142340000Y-53529420D02*
X142340000Y-53810580D01*
X141320000Y-53529420D02*
X141320000Y-53810580D01*
%TO.C,R1*%
X111237500Y-77847258D02*
X111237500Y-77372742D01*
X110192500Y-77847258D02*
X110192500Y-77372742D01*
%TO.C,C6*%
X138530000Y-53529420D02*
X138530000Y-53810580D01*
X137510000Y-53529420D02*
X137510000Y-53810580D01*
%TO.C,C1*%
X115935580Y-80850000D02*
X115654420Y-80850000D01*
X115935580Y-79830000D02*
X115654420Y-79830000D01*
%TO.C,R9*%
X148577742Y-59497500D02*
X149052258Y-59497500D01*
X148577742Y-60542500D02*
X149052258Y-60542500D01*
%TO.C,BZ1*%
X127610000Y-68275000D02*
G75*
G03*
X115410000Y-68275000I-6100000J0D01*
G01*
X115410000Y-68275000D02*
G75*
G03*
X127610000Y-68275000I6100000J0D01*
G01*
D12*
%TO.C,U3*%
X144475000Y-61370000D02*
X139185000Y-61370000D01*
X144475000Y-56130000D02*
X139185000Y-56130000D01*
D13*
X147270000Y-56265000D02*
G75*
G03*
X147070000Y-56265000I-100000J0D01*
G01*
X147070000Y-56265000D02*
G75*
G03*
X147270000Y-56265000I100000J0D01*
G01*
D11*
%TO.C,SW1*%
X110845000Y-83135000D02*
X110845000Y-86435000D01*
X110545000Y-83135000D02*
X110845000Y-83135000D01*
X108345000Y-83135000D02*
X108045000Y-83135000D01*
X108045000Y-83135000D02*
X108045000Y-86435000D01*
X107725000Y-83785000D02*
X108045000Y-83785000D01*
X107345000Y-84285000D02*
X107725000Y-83785000D01*
X107345000Y-84285000D02*
X107345000Y-85285000D01*
X107345000Y-85285000D02*
X107725000Y-85785000D01*
X107725000Y-85785000D02*
X108045000Y-85785000D01*
X110845000Y-86435000D02*
X110545000Y-86435000D01*
X108045000Y-86435000D02*
X108345000Y-86435000D01*
%TO.C,C5*%
X140435000Y-53529420D02*
X140435000Y-53810580D01*
X139415000Y-53529420D02*
X139415000Y-53810580D01*
%TO.C,R8*%
X148577742Y-57592500D02*
X149052258Y-57592500D01*
X148577742Y-58637500D02*
X149052258Y-58637500D01*
%TO.C,DC_U1*%
X127096000Y-61798580D02*
X127096000Y-61517420D01*
X128116000Y-61798580D02*
X128116000Y-61517420D01*
%TO.C,DC_U4*%
X161263000Y-60641420D02*
X161263000Y-60922580D01*
X160243000Y-60641420D02*
X160243000Y-60922580D01*
%TO.C,R4*%
X113777500Y-74197742D02*
X113777500Y-74672258D01*
X112732500Y-74197742D02*
X112732500Y-74672258D01*
%TO.C,R2*%
X120127500Y-59782742D02*
X120127500Y-60257258D01*
X119082500Y-59782742D02*
X119082500Y-60257258D01*
%TO.C,R5*%
X110192500Y-74672258D02*
X110192500Y-74197742D01*
X111237500Y-74672258D02*
X111237500Y-74197742D01*
%TO.C,R6*%
X134607742Y-60132500D02*
X135082258Y-60132500D01*
X134607742Y-61177500D02*
X135082258Y-61177500D01*
%TD*%
M02*
