%TF.GenerationSoftware,KiCad,Pcbnew,7.0.10*%
%TF.CreationDate,2024-01-10T06:21:24+05:30*%
%TF.ProjectId,Dashcam,44617368-6361-46d2-9e6b-696361645f70,rev?*%
%TF.SameCoordinates,Original*%
%TF.FileFunction,Legend,Top*%
%TF.FilePolarity,Positive*%
%FSLAX46Y46*%
G04 Gerber Fmt 4.6, Leading zero omitted, Abs format (unit mm)*
G04 Created by KiCad (PCBNEW 7.0.10) date 2024-01-10 06:21:24*
%MOMM*%
%LPD*%
G01*
G04 APERTURE LIST*
%ADD10C,0.150000*%
%ADD11C,0.120000*%
G04 APERTURE END LIST*
D10*
X154276095Y-52235819D02*
X154276095Y-53045342D01*
X154276095Y-53045342D02*
X154323714Y-53140580D01*
X154323714Y-53140580D02*
X154371333Y-53188200D01*
X154371333Y-53188200D02*
X154466571Y-53235819D01*
X154466571Y-53235819D02*
X154657047Y-53235819D01*
X154657047Y-53235819D02*
X154752285Y-53188200D01*
X154752285Y-53188200D02*
X154799904Y-53140580D01*
X154799904Y-53140580D02*
X154847523Y-53045342D01*
X154847523Y-53045342D02*
X154847523Y-52235819D01*
X155752285Y-52569152D02*
X155752285Y-53235819D01*
X155514190Y-52188200D02*
X155276095Y-52902485D01*
X155276095Y-52902485D02*
X155895142Y-52902485D01*
X159391714Y-58554819D02*
X158820286Y-58554819D01*
X159106000Y-58554819D02*
X159106000Y-57554819D01*
X159106000Y-57554819D02*
X159010762Y-57697676D01*
X159010762Y-57697676D02*
X158915524Y-57792914D01*
X158915524Y-57792914D02*
X158820286Y-57840533D01*
X161734571Y-67881009D02*
X161401238Y-67881009D01*
X161401238Y-68404819D02*
X161401238Y-67404819D01*
X161401238Y-67404819D02*
X161877428Y-67404819D01*
X162258381Y-68404819D02*
X162258381Y-67404819D01*
X162734571Y-68404819D02*
X162734571Y-67404819D01*
X162734571Y-67404819D02*
X162972666Y-67404819D01*
X162972666Y-67404819D02*
X163115523Y-67452438D01*
X163115523Y-67452438D02*
X163210761Y-67547676D01*
X163210761Y-67547676D02*
X163258380Y-67642914D01*
X163258380Y-67642914D02*
X163305999Y-67833390D01*
X163305999Y-67833390D02*
X163305999Y-67976247D01*
X163305999Y-67976247D02*
X163258380Y-68166723D01*
X163258380Y-68166723D02*
X163210761Y-68261961D01*
X163210761Y-68261961D02*
X163115523Y-68357200D01*
X163115523Y-68357200D02*
X162972666Y-68404819D01*
X162972666Y-68404819D02*
X162734571Y-68404819D01*
X164163142Y-67738152D02*
X164163142Y-68404819D01*
X163925047Y-67357200D02*
X163686952Y-68071485D01*
X163686952Y-68071485D02*
X164305999Y-68071485D01*
X121828571Y-41831009D02*
X121495238Y-41831009D01*
X121495238Y-42354819D02*
X121495238Y-41354819D01*
X121495238Y-41354819D02*
X121971428Y-41354819D01*
X122352381Y-42354819D02*
X122352381Y-41354819D01*
X122828571Y-42354819D02*
X122828571Y-41354819D01*
X122828571Y-41354819D02*
X123066666Y-41354819D01*
X123066666Y-41354819D02*
X123209523Y-41402438D01*
X123209523Y-41402438D02*
X123304761Y-41497676D01*
X123304761Y-41497676D02*
X123352380Y-41592914D01*
X123352380Y-41592914D02*
X123399999Y-41783390D01*
X123399999Y-41783390D02*
X123399999Y-41926247D01*
X123399999Y-41926247D02*
X123352380Y-42116723D01*
X123352380Y-42116723D02*
X123304761Y-42211961D01*
X123304761Y-42211961D02*
X123209523Y-42307200D01*
X123209523Y-42307200D02*
X123066666Y-42354819D01*
X123066666Y-42354819D02*
X122828571Y-42354819D01*
X124352380Y-42354819D02*
X123780952Y-42354819D01*
X124066666Y-42354819D02*
X124066666Y-41354819D01*
X124066666Y-41354819D02*
X123971428Y-41497676D01*
X123971428Y-41497676D02*
X123876190Y-41592914D01*
X123876190Y-41592914D02*
X123780952Y-41640533D01*
X124685095Y-51981819D02*
X124685095Y-52791342D01*
X124685095Y-52791342D02*
X124732714Y-52886580D01*
X124732714Y-52886580D02*
X124780333Y-52934200D01*
X124780333Y-52934200D02*
X124875571Y-52981819D01*
X124875571Y-52981819D02*
X125066047Y-52981819D01*
X125066047Y-52981819D02*
X125161285Y-52934200D01*
X125161285Y-52934200D02*
X125208904Y-52886580D01*
X125208904Y-52886580D02*
X125256523Y-52791342D01*
X125256523Y-52791342D02*
X125256523Y-51981819D01*
X126256523Y-52981819D02*
X125685095Y-52981819D01*
X125970809Y-52981819D02*
X125970809Y-51981819D01*
X125970809Y-51981819D02*
X125875571Y-52124676D01*
X125875571Y-52124676D02*
X125780333Y-52219914D01*
X125780333Y-52219914D02*
X125685095Y-52267533D01*
D11*
%TO.C,U4*%
X158606000Y-59250000D02*
X151306000Y-59250000D01*
X158606000Y-53750000D02*
X151306000Y-53750000D01*
X151306000Y-53750000D02*
X151306000Y-54900000D01*
%TO.C,U1*%
X129081000Y-59250000D02*
X121781000Y-59250000D01*
X129081000Y-53750000D02*
X121781000Y-53750000D01*
X121781000Y-53750000D02*
X121781000Y-54900000D01*
%TD*%
M02*
