%TF.GenerationSoftware,KiCad,Pcbnew,7.0.10*%
%TF.CreationDate,2024-01-10T06:21:24+05:30*%
%TF.ProjectId,Dashcam,44617368-6361-46d2-9e6b-696361645f70,rev?*%
%TF.SameCoordinates,Original*%
%TF.FileFunction,Profile,NP*%
%FSLAX46Y46*%
G04 Gerber Fmt 4.6, Leading zero omitted, Abs format (unit mm)*
G04 Created by KiCad (PCBNEW 7.0.10) date 2024-01-10 06:21:24*
%MOMM*%
%LPD*%
G01*
G04 APERTURE LIST*
%TA.AperFunction,Profile*%
%ADD10C,0.200000*%
%TD*%
%TA.AperFunction,Profile*%
%ADD11C,0.100000*%
%TD*%
G04 APERTURE END LIST*
D10*
X165900004Y-31500000D02*
X159900004Y-31500000D01*
X112900004Y-46500004D02*
G75*
G03*
X107900004Y-51500000I-4J-4999996D01*
G01*
D11*
X161650000Y-78500000D02*
X161650000Y-76500000D01*
D10*
X107900004Y-51500000D02*
X107900004Y-87250000D01*
D11*
X164150000Y-76500000D02*
G75*
G03*
X161650000Y-76500000I-1250000J0D01*
G01*
D10*
X127900000Y-41500000D02*
G75*
G03*
X132900004Y-46500000I5000000J0D01*
G01*
X119900004Y-31500004D02*
G75*
G03*
X117900004Y-33500000I-4J-1999996D01*
G01*
X159900004Y-31500004D02*
G75*
G03*
X157900004Y-33500000I-4J-1999996D01*
G01*
D11*
X161650000Y-78500000D02*
G75*
G03*
X164150000Y-78500000I1250000J0D01*
G01*
X121650000Y-36500000D02*
G75*
G03*
X124150000Y-36500000I1250000J0D01*
G01*
D10*
X107900004Y-87250000D02*
G75*
G03*
X110900004Y-90249996I2999996J0D01*
G01*
X157900004Y-79500000D02*
X157900004Y-71500000D01*
X125439923Y-81732309D02*
G75*
G03*
X127900004Y-76178072I-5039923J5554209D01*
G01*
X114900004Y-90250003D02*
G75*
G03*
X117021325Y-89371320I-4J3000003D01*
G01*
D11*
X164150000Y-78500000D02*
X164150000Y-76500000D01*
D10*
X112900004Y-46500004D02*
G75*
G03*
X117900004Y-41500000I-4J5000004D01*
G01*
X127900004Y-76178072D02*
X127900004Y-71500000D01*
X119900004Y-31500000D02*
X125900004Y-31500000D01*
D11*
X164150000Y-36500000D02*
X164150000Y-34500000D01*
X121650000Y-36500000D02*
X121650000Y-34500000D01*
D10*
X112900004Y-46500000D02*
X112900004Y-46500000D01*
X167900000Y-33500000D02*
G75*
G03*
X165900004Y-31500000I-2000000J0D01*
G01*
X157900000Y-71500000D02*
G75*
G03*
X152900004Y-66500000I-5000000J0D01*
G01*
X167900004Y-79500000D02*
X167900004Y-66500000D01*
D11*
X124150000Y-36500000D02*
X124150000Y-34500000D01*
D10*
X110900004Y-90250000D02*
X112900004Y-90250000D01*
X117900004Y-41500000D02*
X117900004Y-33500000D01*
X152900004Y-46500004D02*
G75*
G03*
X157900004Y-41500000I-4J5000004D01*
G01*
D11*
X132900004Y-46500000D02*
X152900004Y-46500000D01*
X124150000Y-76500000D02*
G75*
G03*
X121650000Y-76500000I-1250000J0D01*
G01*
D10*
X132900004Y-66500004D02*
G75*
G03*
X127900004Y-71500000I-4J-4999996D01*
G01*
X132900004Y-66500000D02*
X152900004Y-66500000D01*
X157900000Y-79500000D02*
G75*
G03*
X159900004Y-81500000I2000000J0D01*
G01*
X165900004Y-81500000D02*
X159900004Y-81500000D01*
X165900004Y-81500004D02*
G75*
G03*
X167900004Y-79500000I-4J2000004D01*
G01*
D11*
X124150000Y-34500000D02*
G75*
G03*
X121650000Y-34500000I-1250000J0D01*
G01*
D10*
X167900004Y-46500000D02*
X167900004Y-33500000D01*
D11*
X164150000Y-34500000D02*
G75*
G03*
X161650000Y-34500000I-1250000J0D01*
G01*
D10*
X127900000Y-33500000D02*
G75*
G03*
X125900004Y-31500000I-2000000J0D01*
G01*
X125439908Y-81732293D02*
X117021325Y-89371320D01*
D11*
X121650000Y-78500000D02*
G75*
G03*
X124150000Y-78500000I1250000J0D01*
G01*
X124150000Y-78500000D02*
X124150000Y-76500000D01*
X121650000Y-78500000D02*
X121650000Y-76500000D01*
X161650000Y-36500000D02*
X161650000Y-34500000D01*
D10*
X167900004Y-66500000D02*
X167900004Y-46500000D01*
X127900004Y-33500000D02*
X127900004Y-41500000D01*
X112900004Y-90250000D02*
X114900004Y-90250000D01*
X157900004Y-33500000D02*
X157900004Y-41500000D01*
D11*
X161650000Y-36500000D02*
G75*
G03*
X164150000Y-36500000I1250000J0D01*
G01*
M02*
