%TF.GenerationSoftware,KiCad,Pcbnew,7.0.10*%
%TF.CreationDate,2024-01-10T06:21:24+05:30*%
%TF.ProjectId,Dashcam,44617368-6361-46d2-9e6b-696361645f70,rev?*%
%TF.SameCoordinates,Original*%
%TF.FileFunction,Soldermask,Bot*%
%TF.FilePolarity,Negative*%
%FSLAX46Y46*%
G04 Gerber Fmt 4.6, Leading zero omitted, Abs format (unit mm)*
G04 Created by KiCad (PCBNEW 7.0.10) date 2024-01-10 06:21:24*
%MOMM*%
%LPD*%
G01*
G04 APERTURE LIST*
G04 Aperture macros list*
%AMRoundRect*
0 Rectangle with rounded corners*
0 $1 Rounding radius*
0 $2 $3 $4 $5 $6 $7 $8 $9 X,Y pos of 4 corners*
0 Add a 4 corners polygon primitive as box body*
4,1,4,$2,$3,$4,$5,$6,$7,$8,$9,$2,$3,0*
0 Add four circle primitives for the rounded corners*
1,1,$1+$1,$2,$3*
1,1,$1+$1,$4,$5*
1,1,$1+$1,$6,$7*
1,1,$1+$1,$8,$9*
0 Add four rect primitives between the rounded corners*
20,1,$1+$1,$2,$3,$4,$5,0*
20,1,$1+$1,$4,$5,$6,$7,0*
20,1,$1+$1,$6,$7,$8,$9,0*
20,1,$1+$1,$8,$9,$2,$3,0*%
G04 Aperture macros list end*
%ADD10R,1.700000X1.700000*%
%ADD11O,1.700000X1.700000*%
%ADD12RoundRect,0.200000X-0.200000X-0.275000X0.200000X-0.275000X0.200000X0.275000X-0.200000X0.275000X0*%
%ADD13RoundRect,0.225000X-0.250000X0.225000X-0.250000X-0.225000X0.250000X-0.225000X0.250000X0.225000X0*%
%ADD14C,2.000000*%
%ADD15RoundRect,0.200000X-0.650000X0.200000X-0.650000X-0.200000X0.650000X-0.200000X0.650000X0.200000X0*%
%ADD16RoundRect,0.525000X-0.975000X0.525000X-0.975000X-0.525000X0.975000X-0.525000X0.975000X0.525000X0*%
%ADD17RoundRect,0.150000X-0.587500X-0.150000X0.587500X-0.150000X0.587500X0.150000X-0.587500X0.150000X0*%
%ADD18RoundRect,0.200000X-0.275000X0.200000X-0.275000X-0.200000X0.275000X-0.200000X0.275000X0.200000X0*%
%ADD19RoundRect,0.200000X0.275000X-0.200000X0.275000X0.200000X-0.275000X0.200000X-0.275000X-0.200000X0*%
%ADD20RoundRect,0.225000X0.225000X0.250000X-0.225000X0.250000X-0.225000X-0.250000X0.225000X-0.250000X0*%
%ADD21R,2.000000X2.000000*%
%ADD22RoundRect,0.054880X0.902120X0.337120X-0.902120X0.337120X-0.902120X-0.337120X0.902120X-0.337120X0*%
%ADD23R,1.700000X0.900000*%
%ADD24RoundRect,0.225000X0.250000X-0.225000X0.250000X0.225000X-0.250000X0.225000X-0.250000X-0.225000X0*%
G04 APERTURE END LIST*
D10*
%TO.C,J3*%
X157875000Y-63965000D03*
D11*
X157875000Y-61425000D03*
X155335000Y-63965000D03*
X155335000Y-61425000D03*
X152795000Y-63965000D03*
X152795000Y-61425000D03*
%TD*%
D12*
%TO.C,R7*%
X134020000Y-58115000D03*
X135670000Y-58115000D03*
%TD*%
D13*
%TO.C,C8*%
X145513000Y-52768000D03*
X145513000Y-54318000D03*
%TD*%
D14*
%TO.C,FID3*%
X116300000Y-83300000D03*
%TD*%
D15*
%TO.C,J4*%
X114570000Y-52470000D03*
X114570000Y-53720000D03*
X114570000Y-54970000D03*
X114570000Y-56220000D03*
X114570000Y-57470000D03*
X114570000Y-58720000D03*
X114570000Y-59970000D03*
X114570000Y-61220000D03*
D16*
X111520000Y-50120000D03*
X111595000Y-63420000D03*
%TD*%
D14*
%TO.C,FID2*%
X163056000Y-43950000D03*
%TD*%
D17*
%TO.C,U2*%
X115190000Y-78750000D03*
X115190000Y-76850000D03*
X117065000Y-77800000D03*
%TD*%
D18*
%TO.C,R3*%
X160780000Y-63245000D03*
X160780000Y-64895000D03*
%TD*%
D13*
%TO.C,C7*%
X141830000Y-52895000D03*
X141830000Y-54445000D03*
%TD*%
D19*
%TO.C,R1*%
X110715000Y-76785000D03*
X110715000Y-78435000D03*
%TD*%
D13*
%TO.C,C6*%
X138020000Y-52895000D03*
X138020000Y-54445000D03*
%TD*%
D20*
%TO.C,C1*%
X116570000Y-80340000D03*
X115020000Y-80340000D03*
%TD*%
D12*
%TO.C,R9*%
X147990000Y-60020000D03*
X149640000Y-60020000D03*
%TD*%
D21*
%TO.C,BZ1*%
X121510000Y-64475000D03*
D14*
X121510000Y-72075000D03*
%TD*%
D22*
%TO.C,U3*%
X145460000Y-56845000D03*
X145460000Y-58115000D03*
X145460000Y-59385000D03*
X145460000Y-60655000D03*
X138200000Y-60655000D03*
X138200000Y-59385000D03*
X138200000Y-58115000D03*
X138200000Y-56845000D03*
%TD*%
D23*
%TO.C,SW1*%
X109445000Y-83085000D03*
X109445000Y-86485000D03*
%TD*%
D13*
%TO.C,C5*%
X139925000Y-52895000D03*
X139925000Y-54445000D03*
%TD*%
D12*
%TO.C,R8*%
X147990000Y-58115000D03*
X149640000Y-58115000D03*
%TD*%
D24*
%TO.C,DC_U1*%
X127606000Y-62433000D03*
X127606000Y-60883000D03*
%TD*%
D13*
%TO.C,DC_U4*%
X160753000Y-60007000D03*
X160753000Y-61557000D03*
%TD*%
D18*
%TO.C,R4*%
X113255000Y-73610000D03*
X113255000Y-75260000D03*
%TD*%
%TO.C,R2*%
X119605000Y-59195000D03*
X119605000Y-60845000D03*
%TD*%
D19*
%TO.C,R5*%
X110715000Y-75260000D03*
X110715000Y-73610000D03*
%TD*%
D12*
%TO.C,R6*%
X134020000Y-60655000D03*
X135670000Y-60655000D03*
%TD*%
M02*
